<svg width="18" height="18" viewBox="0 0 18 18" fill="none" xmlns="http://www.w3.org/2000/svg">
<path d="M1.31714 3C1.05821 3 0.820573 3.07779 0.617368 3.20579L8.41002 9.79817C8.76679 10.1003 9.24758 10.1003 9.60358 9.79817L17.3825 3.20579C17.1793 3.07779 16.9417 3 16.6827 3H1.31694H1.31714ZM0.0754883 3.88486C0.0284815 4.02037 0 4.16492 0 4.31695V13.0974C0 13.3618 0.0794669 13.6048 0.212683 13.8107L5.78984 8.7279L0.0754883 3.88486ZM17.9245 3.88486L12.2239 8.72115L17.7873 13.8111C17.9205 13.6051 18 13.3621 18 13.0977V4.31726C18 4.16521 17.9715 4.02067 17.9245 3.88518V3.88486ZM11.552 9.29698L10.1663 10.47C9.49606 11.0386 8.51104 11.0378 7.84086 10.47L6.46202 9.30388L0.926017 14.3526C1.04989 14.3909 1.1802 14.4143 1.31708 14.4143H16.6829C16.8196 14.4143 16.9501 14.3909 17.074 14.3526L11.5521 9.29682L11.552 9.29698Z" fill="#29B384"/>
</svg>
