<svg width="50" height="50" viewBox="0 0 50 50" fill="none" xmlns="http://www.w3.org/2000/svg">
<path d="M0.000664535 37.2866H3.82632V37.499C3.82632 40.4744 6.27067 42.9188 9.24609 42.9188C12.2215 42.9188 14.6659 40.4744 14.6659 37.499V37.2866H34.3786V37.499C34.3786 40.4744 36.8229 42.9188 39.7984 42.9188C42.7738 42.9188 45.2181 40.4744 45.2181 37.499V37.2866H50V23.4718L44.6866 22.2498L43.3052 15.3422H32.9431V7H0L0.000664535 37.2866ZM9.2458 40.7932C7.43934 40.7932 5.95158 39.3054 5.95158 37.499C5.95158 37.1802 6.00458 36.8081 6.11096 36.5427C6.53608 35.2144 7.81144 34.2582 9.24577 34.2582C10.6805 34.2582 11.9555 35.2144 12.3806 36.5427C12.487 36.8615 12.54 37.1802 12.54 37.499C12.5403 39.3589 11.0526 40.7932 9.24574 40.7932H9.2458ZM39.7447 40.7932C37.9383 40.7932 36.4505 39.3054 36.4505 37.499C36.4505 37.1802 36.5035 36.8081 36.6099 36.5427C37.035 35.1614 38.3104 34.2582 39.7447 34.2582C41.1794 34.2582 42.4545 35.1614 42.8795 36.5427C42.9859 36.8615 43.0389 37.1802 43.0389 37.499C42.9859 39.3589 41.5512 40.7932 39.7447 40.7932H39.7447ZM41.4982 17.4142L42.8265 23.9496L47.8212 25.1185V35.1609H44.633C44.5266 34.9485 44.4206 34.7888 44.3142 34.5764C44.3142 34.5234 44.2612 34.5234 44.2612 34.47C44.1549 34.3106 43.9955 34.0979 43.8361 33.9385C43.8361 33.8855 43.7831 33.8855 43.7831 33.8321C43.6237 33.6728 43.4644 33.5134 43.305 33.354L43.252 33.301C43.0926 33.1417 42.8799 33.0353 42.7205 32.9289C42.7205 32.9289 42.6675 32.9289 42.6675 32.8759C42.4551 32.7695 42.2954 32.6635 42.083 32.5572C42.03 32.5572 42.03 32.5042 41.9766 32.5042C41.7643 32.3978 41.5515 32.3448 41.3391 32.2918C41.2861 32.2918 41.2861 32.2918 41.2328 32.2388C41.0204 32.1858 40.8077 32.1324 40.5953 32.0794H40.4889C40.2765 32.0264 40.0108 32.0264 39.798 32.0264C39.5323 32.0264 39.3199 32.0264 39.1072 32.0794H39.0008C38.7884 32.1324 38.5757 32.1858 38.3633 32.2388C38.3103 32.2388 38.3103 32.2388 38.257 32.2918C38.0446 32.3448 37.8318 32.4512 37.6195 32.5042C37.5665 32.5042 37.5665 32.5572 37.5131 32.5572C37.3007 32.6635 37.088 32.7695 36.9286 32.8759C36.7162 32.9823 36.5565 33.1417 36.3441 33.301H36.2911C36.1317 33.4604 35.9723 33.6198 35.813 33.7791L35.76 33.8321C35.6006 33.9915 35.4942 34.2043 35.3349 34.3636L35.2819 34.4166C35.1755 34.629 35.0161 34.7888 34.9631 35.0011L14.1346 35.0015C14.0282 34.7891 13.9222 34.6294 13.8158 34.417C13.8158 34.364 13.7628 34.364 13.7628 34.3106C13.6564 34.1513 13.4971 33.9385 13.3377 33.7791C13.3377 33.7261 13.2847 33.7261 13.2847 33.6728L12.8066 33.1947C12.8066 33.1947 12.7536 33.1947 12.7536 33.1417C12.5942 32.9823 12.3815 32.8759 12.2221 32.7695H12.1691C11.9567 32.6632 11.797 32.5572 11.5846 32.4508C11.5316 32.4508 11.5316 32.3978 11.4782 32.3978C11.2658 32.2914 11.0531 32.2384 10.8407 32.1854C10.7877 32.1854 10.7877 32.1854 10.7343 32.1324C10.522 32.0794 10.3092 32.026 10.0968 31.973H9.99048C9.7781 31.92 9.51235 31.92 9.29962 31.92C9.03387 31.92 8.8215 31.92 8.60876 31.973H8.50239C8.29002 32.026 8.07727 32.0794 7.86489 32.1324C7.81189 32.1324 7.81189 32.1324 7.75852 32.1854C7.54615 32.2384 7.3334 32.3448 7.12103 32.3978C7.06803 32.3978 7.06803 32.4508 7.01465 32.4508C6.80228 32.5572 6.58953 32.6632 6.43016 32.7695C6.21779 32.8759 6.05804 33.0353 5.84567 33.1947H5.79267C5.63329 33.354 5.47392 33.5134 5.31455 33.6728L5.26155 33.7258C5.10217 33.8852 4.9958 34.0979 4.83643 34.2573L4.78343 34.3103C4.67705 34.5226 4.51768 34.6824 4.46468 34.8948L2.12602 34.8951V30.9631L32.9438 30.9635V17.1486H41.4984L41.4982 17.4142ZM2.12584 9.12536H30.8182V29.1569L2.12584 29.1565V9.12536Z" fill="#29B384"/>
</svg>
