<svg width="50" height="50" viewBox="0 0 50 50" fill="none" xmlns="http://www.w3.org/2000/svg">
<path d="M5.17432 29.9H7.75765V31.5667H5.17432V29.9Z" fill="#29B384"/>
<path d="M9.48193 29.9H12.0653V31.5667H9.48193V29.9Z" fill="#29B384"/>
<path d="M5.17432 33.3506H7.75765V35.0173H5.17432V33.3506Z" fill="#29B384"/>
<path d="M9.48193 33.3506H12.0653V35.0173H9.48193V33.3506Z" fill="#29B384"/>
<path d="M5.17432 36.8002H7.75765V38.4668H5.17432V36.8002Z" fill="#29B384"/>
<path d="M9.48193 36.8002H12.0653V38.4668H9.48193V36.8002Z" fill="#29B384"/>
<path d="M5.17432 40.2418H7.75765V41.9085H5.17432V40.2418Z" fill="#29B384"/>
<path d="M9.48193 40.2418H12.0653V41.9085H9.48193V40.2418Z" fill="#29B384"/>
<path d="M5.17432 43.6914H7.75765V45.3581H5.17432V43.6914Z" fill="#29B384"/>
<path d="M9.48193 43.6914H12.0653V45.3581H9.48193V43.6914Z" fill="#29B384"/>
<path d="M37.582 16.9668H40.1653V18.6335H37.582V16.9668Z" fill="#29B384"/>
<path d="M41.8999 16.9668H44.4832V18.6335H41.8999V16.9668Z" fill="#29B384"/>
<path d="M37.582 20.417H40.1653V22.0837H37.582V20.417Z" fill="#29B384"/>
<path d="M41.8999 20.417H44.4832V22.0837H41.8999V20.417Z" fill="#29B384"/>
<path d="M37.582 23.8666H40.1653V25.5332H37.582V23.8666Z" fill="#29B384"/>
<path d="M41.8999 23.8666H44.4832V25.5332H41.8999V23.8666Z" fill="#29B384"/>
<path d="M37.582 27.317H40.1653V28.9837H37.582V27.317Z" fill="#29B384"/>
<path d="M41.8999 27.317H44.4832V28.9837H41.8999V27.317Z" fill="#29B384"/>
<path d="M37.582 30.7592H40.1653V32.4259H37.582V30.7592Z" fill="#29B384"/>
<path d="M41.8999 30.7592H44.4832V32.4259H41.8999V30.7592Z" fill="#29B384"/>
<path d="M17.1836 20.0668H28.975V21.7335H17.1836V20.0668Z" fill="#29B384"/>
<path d="M17.1836 23.4506H28.975V25.1172H17.1836V23.4506Z" fill="#29B384"/>
<path d="M17.1836 26.8334H28.975V28.5H17.1836V26.8334Z" fill="#29B384"/>
<path d="M17.1836 30.2172H28.975V31.8839H17.1836V30.2172Z" fill="#29B384"/>
<path d="M17.1836 33.6H28.975V35.2666H17.1836V33.6Z" fill="#29B384"/>
<path d="M17.1836 36.9926H28.975V38.6593H17.1836V36.9926Z" fill="#29B384"/>
<path d="M17.1836 40.3754H28.975V42.042H17.1836V40.3754Z" fill="#29B384"/>
<path d="M18.8657 14.142H27.2906V15.8086H18.8657V14.142Z" fill="#29B384"/>
<path d="M18.8657 10.7592H27.2906V12.4258H18.8657V10.7592Z" fill="#29B384"/>
<path d="M47.8995 47.1419V13.5248H34.1662V47.1419H32.3329V14.1419H30.6662V1L15.5081 7.80838V14.1417H13.8414V26.4503H1.75V47.1417H0V48.8084H50V47.1417L47.8995 47.1419ZM13.8243 47.1419H3.41571V28.1171H13.8243V47.1419ZM30.6662 47.1419H15.491V15.8086H17.1576V8.88371L28.9824 3.57533V15.8087H30.649L30.6662 47.1419ZM46.2329 47.1419H35.8329V15.1914H46.2329V47.1419Z" fill="#29B384"/>
</svg>
