<svg width="50" height="50" viewBox="0 0 50 50" fill="none" xmlns="http://www.w3.org/2000/svg">
<path d="M49.7988 29.1505C49.4917 28.2916 48.8656 27.6021 48.0358 27.2105C47.2078 26.8184 46.2772 26.7716 45.4175 27.0791L42.3676 28.1702L36.9139 12.9214C36.5147 11.8111 35.2856 11.2304 34.1754 11.6265L18.7607 17.1424L14.8698 6.27213C14.5616 5.40993 13.9334 4.71905 13.1021 4.32884C12.273 3.94003 11.3456 3.89432 10.4892 4.20068L2.27395 7.13755C1.41427 7.44463 0.72418 8.07067 0.33213 8.90196C-0.05991 9.73104 -0.106709 10.6624 0.201447 11.5213C0.508525 12.381 1.13531 13.0705 1.96585 13.4624C2.79494 13.8545 3.72556 13.9027 4.58523 13.5931L9.5687 11.8086L17.0722 32.7732C14.8989 34.9714 14.0338 38.2978 15.1426 41.3945C16.3197 44.6813 19.4554 46.8903 22.9437 46.8903C23.8945 46.8903 24.8341 46.7265 25.7355 46.4032C27.8192 45.6573 29.4878 44.1453 30.4336 42.1455C30.8408 41.2851 31.0834 40.3771 31.1795 39.4563L47.7278 33.535C48.5868 33.2279 49.2769 32.6011 49.6679 31.7706C50.0599 30.9397 50.1067 30.0091 49.7985 29.1501L49.7988 29.1505ZM29.8129 14.8979L31.4667 19.5186L29.9209 19.0977C29.5958 19.0099 29.2484 19.1323 29.0515 19.4091L28.1234 20.7156L26.4689 16.0957L29.8129 14.8979ZM24.9503 16.6382L27.1251 22.7136C27.2267 22.9965 27.4768 23.1999 27.7742 23.2403C27.8113 23.246 27.8484 23.2482 27.8847 23.2482C28.1436 23.2482 28.3895 23.124 28.5421 22.9087L30.0397 20.8016L32.5356 21.4824C32.8257 21.5616 33.1357 21.4734 33.3395 21.2516C33.5436 21.0313 33.608 20.7152 33.5065 20.4323L31.3317 14.3551L34.7186 13.1431C34.9879 13.0462 35.3 13.1938 35.3968 13.4631L40.8505 28.711L28.995 32.9525C27.5773 31.4373 25.6172 30.4761 23.4856 30.3356L19.3053 18.6571L24.9503 16.6382ZM11.0323 5.71537C11.4863 5.55337 11.9758 5.57821 12.4162 5.78485C12.8565 5.99221 13.1887 6.35653 13.3514 6.81226L21.7952 30.4025C21.2387 30.4806 20.6889 30.6088 20.1526 30.801C19.5186 31.0286 18.9358 31.3317 18.3972 31.6873L10.8152 10.5052L9.32079 6.32744L11.0323 5.71537ZM9.02533 10.2896L6.50677 11.191L5.28353 7.77278L7.80282 6.87134L9.02533 10.2896ZM4.04259 12.0741C3.58863 12.2368 3.09583 12.2112 2.65475 12.0031C2.21448 11.7951 1.88219 11.4307 1.72015 10.9775C1.55816 10.5235 1.58299 10.0307 1.79107 9.58965C1.99915 9.14937 2.36275 8.81781 2.81673 8.65579L3.7657 8.31631L4.98894 11.7353L4.04259 12.0741ZM28.9765 41.4547C28.2144 43.0661 26.8709 44.2836 25.1929 44.8845C24.4657 45.1451 23.7089 45.2772 22.9447 45.2772C20.1359 45.2772 17.6101 43.4985 16.6619 40.8511C15.4232 37.3893 17.2336 33.5621 20.6971 32.3202C21.4236 32.0606 22.1793 31.9292 22.9428 31.9292C25.753 31.9292 28.2781 33.708 29.2256 36.3565C29.8264 38.0333 29.7378 39.8446 28.9764 41.4548L28.9765 41.4547ZM48.2094 31.0812C48.0014 31.5215 47.6378 31.8537 47.1845 32.0158L31.1772 37.7445C31.1077 37.0921 30.9699 36.4445 30.7434 35.8123C30.5523 35.2777 30.3039 34.7744 30.0162 34.3011L45.9618 28.5972C46.4176 28.4359 46.9093 28.4618 47.3482 28.6681C47.7877 28.8762 48.1189 29.2405 48.2813 29.6938C48.4429 30.1481 48.4177 30.6399 48.2096 31.0812L48.2094 31.0812Z" fill="#29B384"/>
<path d="M22.9423 35.0625C22.5366 35.0625 22.1359 35.132 21.7496 35.2699C20.8593 35.5899 20.1472 36.2368 19.7433 37.0915C19.3394 37.9472 19.2933 38.9073 19.6133 39.7944C20.1141 41.1991 21.4537 42.1433 22.9455 42.1433C23.3519 42.1433 23.7526 42.0731 24.1381 41.9352C25.0284 41.6166 25.7413 40.9715 26.1451 40.1162C26.549 39.2605 26.5958 38.3004 26.2758 37.4108C25.7739 36.0061 24.4341 35.0626 22.9422 35.0626L22.9423 35.0625ZM24.6865 39.4267C24.4673 39.8918 24.0785 40.2436 23.5946 40.4171C22.6099 40.7695 21.4803 40.2252 21.1311 39.2503C20.9569 38.7672 20.9821 38.2456 21.2021 37.7812C21.4213 37.3161 21.8101 36.9626 22.294 36.7894C22.5035 36.7145 22.7213 36.6763 22.9423 36.6763C23.7552 36.6763 24.4842 37.1901 24.7574 37.9554C24.9317 38.4382 24.9065 38.9624 24.6865 39.4268L24.6865 39.4267Z" fill="#29B384"/>
</svg>
