<svg width="50" height="50" viewBox="0 0 50 50" fill="none" xmlns="http://www.w3.org/2000/svg">
<g clip-path="url(#clip0_206_11529)">
<path d="M43.3916 3.66825L24.7905 0.0187005C24.664 -0.0062335 24.5333 -0.0062335 24.4065 0.0187005L5.80536 3.66825C5.33732 3.76015 5 4.17013 5 4.64705V26.9558C5 30.3846 5.88693 33.7776 7.56498 36.7683C9.243 39.7586 11.6769 42.2833 14.6038 44.07L24.0789 49.854C24.2385 49.9512 24.4184 50 24.5986 50C24.7789 50 24.9587 49.9512 25.1183 49.854L34.5935 44.07C37.5204 42.2833 39.9543 39.7586 41.6323 36.7683C43.3103 33.7781 44.1973 30.3849 44.1973 26.9558L44.1966 4.64705C44.1966 4.1701 43.8592 3.76011 43.3912 3.66825H43.3916ZM42.2022 26.9554C42.2022 30.0433 41.4036 33.0987 39.8923 35.7916C38.3813 38.4844 36.1893 40.758 33.5538 42.3669L24.5982 47.8335L15.6424 42.3666C13.0069 40.7576 10.8151 38.484 9.30381 35.7912C7.79285 33.0984 6.99387 30.0429 6.99387 26.9551L6.99423 5.46791L24.5978 2.01386L42.2013 5.46791L42.2022 26.9554Z" fill="#29B384"/>
<path d="M24.4053 4.78698L10.6252 7.49048C10.1571 7.58238 9.81982 7.99236 9.81982 8.46927V26.5917C9.81982 29.1759 10.4884 31.7334 11.7529 33.9871C13.0177 36.2407 14.8521 38.1439 17.0581 39.4904L24.0777 43.7754C24.2372 43.8726 24.4171 43.9214 24.5973 43.9214C24.7776 43.9214 24.9575 43.8726 25.117 43.7754L32.1366 39.4904C34.3425 38.1439 36.1769 36.2407 37.4418 33.9871C38.7066 31.7334 39.3749 29.1759 39.3749 26.5917V8.46927C39.3749 7.99268 39.0375 7.58234 38.5695 7.49048L24.7894 4.78726C24.6626 4.76232 24.5322 4.76232 24.4054 4.78726L24.4053 4.78698ZM37.3802 9.28968V26.5914C37.3802 28.8348 36.8 31.0545 35.7022 33.0107C34.6044 34.967 33.0122 36.6186 31.0973 37.7877L24.5974 41.7554L18.0976 37.7877C16.183 36.6191 14.5904 34.967 13.4926 33.0107C12.3948 31.0545 11.8146 28.8347 11.8146 26.5914V9.28968L24.5971 6.78205L37.3802 9.28968Z" fill="#29B384"/>
<path d="M19.2006 24.4026C18.8113 24.0133 18.1798 24.0133 17.79 24.4026C17.4007 24.7919 17.4007 25.4234 17.79 25.8132L21.3495 29.373C21.5365 29.56 21.7901 29.6651 22.0548 29.6651C22.3194 29.6651 22.573 29.56 22.76 29.373L31.406 20.7271C31.7953 20.3378 31.7953 19.7063 31.406 19.3165C31.0163 18.9272 30.3852 18.9272 29.9954 19.3165L22.0547 27.2568L19.2006 24.4026Z" fill="#29B384"/>
</g>
<defs>
<clipPath id="clip0_206_11529">
<rect width="50" height="50" fill="white"/>
</clipPath>
</defs>
</svg>
