<svg width="50" height="50" viewBox="0 0 50 50" fill="none" xmlns="http://www.w3.org/2000/svg">
<path d="M49.242 27.3524H22.7683C22.3494 27.3524 22.0108 27.0134 22.0108 26.5949C22.0108 26.1764 22.3494 25.8373 22.7683 25.8373H48.4844V6.51513H16.289V25.8373H17.3425C17.7614 25.8373 18.1001 26.1764 18.1001 26.5949C18.1001 27.0134 17.7614 27.3524 17.3425 27.3524H15.5315C15.1125 27.3524 14.7739 27.0134 14.7739 26.5949V5.75756C14.7739 5.33904 15.1125 5 15.5315 5H49.242C49.6609 5 49.9996 5.33904 49.9996 5.75756V26.5949C49.9996 27.013 49.6609 27.352 49.242 27.352L49.242 27.3524Z" fill="#29B384"/>
<path d="M16.2046 39.8868C16.1632 39.8868 16.1217 39.8834 16.079 39.8762L3.08251 37.7075C2.88424 37.6741 2.70668 37.5634 2.59 37.3985C2.47291 37.2341 2.42725 37.0303 2.46107 36.8316L4.41201 25.5255C4.74555 23.8443 5.72714 22.344 7.10785 21.3898L15.0991 15.8404C15.4432 15.6016 15.915 15.6874 16.1534 16.0307C16.3922 16.3743 16.3073 16.8461 15.9632 17.085L7.97032 22.6352C6.90965 23.3682 6.15542 24.522 5.90099 25.8016L4.08316 36.3385L15.583 38.2573L16.16 34.8259C16.1816 34.7012 16.2331 34.5837 16.3118 34.4839L21.6671 27.6637C21.9051 27.361 22.0243 27.0008 22.0116 26.6208C21.9985 25.9541 21.5863 25.3758 20.9611 25.1365C20.2961 24.9006 19.5635 25.1111 19.1302 25.6269L14.8888 30.7544C14.6364 31.0608 14.1866 31.12 13.8649 30.8884L11.7157 29.3521C11.569 29.2473 11.4642 29.0938 11.4211 28.9193C11.2938 28.4115 11.2296 27.8835 11.2296 27.3504C11.2296 25.2067 12.2801 23.1945 14.0409 21.9685L15.1011 21.2384C15.4482 21.0017 15.9187 21.0892 16.1546 21.4325C16.3922 21.777 16.3055 22.2488 15.9606 22.4864L14.9033 23.2144C13.5527 24.155 12.7443 25.7018 12.7443 27.3505C12.7443 27.668 12.7739 27.9825 12.8323 28.2886L14.1707 29.2449L17.9665 24.6556C18.8061 23.657 20.1702 23.2482 21.4842 23.7149C22.7063 24.1825 23.5011 25.3053 23.5252 26.5811C23.5497 27.3129 23.3189 28.0146 22.8564 28.6006L17.6215 35.2677L16.9506 39.255C16.8897 39.6249 16.5684 39.887 16.2053 39.887L16.2046 39.8868Z" fill="#29B384"/>
<path d="M17.1076 44.3901C17.0662 44.3901 17.0239 44.3867 16.982 44.3795L0.632761 41.6405C0.219738 41.5712 -0.058428 41.1805 0.0104778 40.7684L0.719427 36.5354C0.752823 36.3372 0.863158 36.1605 1.02634 36.0438C1.19078 35.9267 1.39412 35.8793 1.59155 35.9131L17.9408 38.6522C18.1391 38.6856 18.3158 38.7959 18.4329 38.9595C18.5492 39.1231 18.5965 39.3264 18.5631 39.5247L17.8538 43.7577C17.7916 44.128 17.4703 44.3901 17.1072 44.3901L17.1076 44.3901ZM1.62952 40.2716L16.4842 42.7604L16.9438 40.0213L2.08796 37.5326L1.62952 40.2716Z" fill="#29B384"/>
<path d="M49.242 14.106H15.5315C15.1125 14.106 14.7739 13.767 14.7739 13.3485V9.64819C14.7739 9.22967 15.1125 8.89062 15.5315 8.89062H49.242C49.6609 8.89062 49.9995 9.22967 49.9995 9.64819V13.3485C49.9995 13.767 49.6609 14.106 49.242 14.106ZM16.2891 12.5909H48.4844V10.4058H16.2891V12.5909Z" fill="#29B384"/>
<path d="M44.2436 24.3557C43.7219 24.3557 43.2189 24.1921 42.7995 23.8992C42.3801 24.1921 41.8762 24.3557 41.3545 24.3557C39.9586 24.3557 38.8223 23.2198 38.8223 21.8235C38.8223 20.4277 39.9586 19.2916 41.3545 19.2916C41.8761 19.2916 42.3796 19.4552 42.7995 19.7482C43.2188 19.4552 43.7219 19.2916 44.2436 19.2916C45.6395 19.2916 46.7758 20.4275 46.7758 21.8235C46.7762 23.2198 45.6399 24.3557 44.2436 24.3557ZM42.7995 22.0915C43.0442 22.0915 43.2742 22.2099 43.4163 22.4098C43.6116 22.6838 43.9126 22.841 44.2436 22.841C44.8046 22.841 45.2607 22.3844 45.2607 21.8239C45.2607 21.2633 44.8041 20.8072 44.2436 20.8072C43.913 20.8072 43.6116 20.9644 43.4163 21.2384C43.1322 21.637 42.4664 21.637 42.1823 21.2384C41.987 20.9645 41.6851 20.8072 41.3546 20.8072C40.7936 20.8072 40.3374 21.2633 40.3374 21.8239C40.3374 22.3849 40.794 22.841 41.3546 22.841C41.6852 22.841 41.987 22.6838 42.1823 22.4098C42.3248 22.2099 42.5547 22.0915 42.7995 22.0915H42.7995Z" fill="#29B384"/>
</svg>
