<svg width="50" height="50" viewBox="0 0 50 50" fill="none" xmlns="http://www.w3.org/2000/svg">
<path fill-rule="evenodd" clip-rule="evenodd" d="M40.0646 14.6022C40.2158 14.5547 40.4147 14.6498 40.6137 14.9112C40.6137 14.9112 40.6137 14.9112 49.6062 23.6741C50.1314 24.1971 50.1314 24.9894 49.6062 25.3776C49.6062 25.3776 49.6062 25.3776 40.6137 34.2752C40.4147 34.5366 40.2158 34.6 40.0646 34.5208C39.9134 34.4416 39.8179 34.2118 39.8179 33.879V15.1727C39.8179 14.8478 39.9134 14.6498 40.0646 14.6022Z" fill="#29B384"/>
<path fill-rule="evenodd" clip-rule="evenodd" d="M24.6818 0H25.3185L25.9312 0.253539C25.9312 0.253539 25.9312 0.253538 35.1864 9.41259C35.5843 9.93551 35.449 10.3317 34.7885 10.3317C34.7885 10.3317 34.7885 10.3317 30.9527 10.3317C30.2922 10.3317 29.767 10.8546 29.767 11.5122C29.767 11.5122 29.767 11.5122 29.767 18.3102C29.767 18.9678 29.2338 19.4907 28.438 19.4907C28.438 19.4907 28.438 19.4907 21.6976 19.4907C21.0371 19.4907 20.5039 18.9678 20.5039 18.3102C20.5039 18.3102 20.5039 18.3102 20.5039 11.5122C20.5039 10.8546 19.9787 10.3317 19.3102 10.3317H15.2118C14.5513 10.3317 14.416 9.93551 14.8139 9.41259C14.8139 9.41259 14.8139 9.41259 24.077 0.253539L24.6818 0Z" fill="#29B384"/>
<path fill-rule="evenodd" clip-rule="evenodd" d="M10.1822 14.404C10.3494 14.4832 10.4528 14.713 10.4528 15.0457V34.1403C10.4528 34.4731 10.3494 34.6712 10.1822 34.7345C10.0231 34.7979 9.7923 34.7345 9.52173 34.5365C9.52173 34.5365 9.52172 34.5365 0.39392 25.3774C-0.131307 24.9892 -0.131307 24.1969 0.39392 23.674C0.39392 23.674 0.393921 23.674 9.52173 14.6496C9.7923 14.3881 10.0231 14.3248 10.1822 14.404Z" fill="#29B384"/>
<path fill-rule="evenodd" clip-rule="evenodd" d="M21.6976 29.4342C21.6976 29.4342 21.6976 29.4342 28.438 29.4342C29.2338 29.4342 29.7669 29.9571 29.7669 30.6147C29.7669 30.6147 29.7669 30.6147 29.7669 37.8089C29.7669 38.5933 30.2922 39.1162 30.9527 39.1162H34.5258C35.1863 39.1162 35.4489 39.5044 34.9237 39.9006C34.9237 39.9006 34.9237 39.9006 25.9312 48.9249C25.6606 49.1864 25.3344 49.3211 25.0001 49.3211C24.6738 49.3211 24.3396 49.1864 24.077 48.9249C24.077 48.9249 24.077 48.9249 15.0845 39.9006C14.5513 39.5044 14.8139 39.1162 15.4744 39.1162C15.4744 39.1162 15.4744 39.1162 19.3102 39.1162C19.9786 39.1162 20.5039 38.5933 20.5039 37.8089C20.5039 37.8089 20.5039 37.8089 20.5039 30.6147C20.5039 29.9571 21.037 29.4342 21.6976 29.4342Z" fill="#29B384"/>
</svg>
