<svg width="40" height="40" viewBox="0 0 40 40" fill="none" xmlns="http://www.w3.org/2000/svg">
<path fill-rule="evenodd" clip-rule="evenodd" d="M11.1629 8.51733C11.2277 8.20131 11.4742 7.90001 11.8642 7.65735C12.407 7.31953 13.2357 7.07979 14.0884 7.01824C15.4529 6.91928 19.1595 7.23854 20.2907 7.60109C21.0909 7.85732 21.7471 8.30087 22.0808 9.41447L22.1559 9.42006C25.5894 9.67158 31.0588 9.45276 31.5549 9.40357C32.2479 9.33495 33.0054 9.4077 33.537 9.85537C33.8368 10.1078 33.9688 10.4612 33.9673 10.8871C33.9658 11.2535 33.929 11.6075 33.762 11.917C33.6372 12.1479 33.459 12.284 33.208 12.3927C32.9598 12.4999 31.0583 13.0998 28.8276 13.2594C31.5475 14.0081 36.1688 15.3013 36.9735 15.6639C37.5888 15.9411 38.2302 16.3781 38.6143 16.8879C39.047 17.4619 39.173 18.1225 38.6921 18.7778C38.3242 19.2791 37.7317 19.477 37.1444 19.5174C36.9683 19.5294 36.7927 19.5274 36.6266 19.5171C36.8098 19.6917 36.9903 19.8917 37.1314 20.1061C37.494 20.6542 37.6141 21.2845 37.0796 21.8653C36.5913 22.3957 35.9719 22.6778 35.0642 22.641C34.5989 22.6219 34.051 22.5153 33.3973 22.3094C33.4874 22.4396 33.5613 22.5727 33.6155 22.7047C33.8267 23.2251 33.756 23.7343 33.2423 24.0842C32.9148 24.3071 32.6247 24.4753 32.3155 24.5784C32.1435 25.1798 31.692 25.6826 31.1572 25.9414C30.546 26.2365 29.8348 26.2192 29.2902 25.7135L29.1529 25.5862C29.284 25.8392 29.4731 26.2604 29.575 26.7434C29.7499 27.5716 29.6692 28.5677 28.697 29.2551C28.2867 29.5452 27.8965 29.637 27.5322 29.5973C27.1746 29.5581 26.8371 29.3879 26.5273 29.1272C25.7435 28.4678 25.1289 27.1996 24.7284 26.3611C24.7072 26.3534 24.6851 26.3455 24.6636 26.3375C24.8326 26.8771 25.0962 27.7541 25.3651 28.7879C25.566 29.561 25.4706 30.1327 25.2547 30.5536C24.9248 31.1956 24.2999 31.496 23.9049 31.6136C23.5297 31.7255 22.8099 31.8574 22.2388 31.7417C21.7829 31.6492 21.4192 31.4071 21.2957 30.9485C21.1508 30.4086 20.0682 27.674 19.2538 25.6442C19.5699 27.6843 19.9327 30.4053 19.7775 31.2857C19.6267 32.1439 18.9343 32.5748 18.1497 32.6478C17.4019 32.7173 16.581 32.449 16.1319 31.9566C16.0203 31.8343 15.901 31.6123 15.7882 31.3066C15.6397 30.9031 15.4904 30.3408 15.3488 29.6873C15.0534 28.323 14.7865 26.5556 14.603 25.0224C14.4899 26.062 14.3533 27.1818 14.2099 28.0309C13.8965 29.8887 13.0965 30.9165 11.7662 30.5976C10.8144 30.3694 10.2401 29.3391 10.2521 28.1489C10.2845 25.0411 10.6971 20.334 10.7746 19.4768L10.7578 19.467C10.2191 19.1546 9.6843 18.8347 9.15735 18.5025C8.92379 18.3549 8.69142 18.205 8.46169 18.0519C8.24993 17.9108 8.04082 17.7674 7.83436 17.6195C7.69977 17.5232 7.56635 17.4254 7.4347 17.3253C7.40701 17.3044 7.38021 17.2835 7.35283 17.2623C7.31572 17.2337 7.2792 17.2051 7.24297 17.1757C7.16993 17.1162 7.09925 17.0546 7.03062 16.9898C6.89633 16.8629 6.77203 16.7245 6.66453 16.5737C6.60946 16.4965 6.55939 16.4161 6.51433 16.3328C6.46868 16.2479 6.42892 16.1602 6.39564 16.0701C6.36353 15.9849 6.33791 15.8981 6.31789 15.8097C6.30669 15.7596 6.29698 15.709 6.28903 15.6583L6.28873 15.6548C5.63667 15.5829 3.65481 15.3131 2.06883 14.5569C1.39408 14.2349 1.08927 13.6206 1.01711 13.0059C0.945251 12.3983 1.10901 11.7966 1.3346 11.4933C2.20815 10.3185 5.23256 8.50662 6.29875 7.81183C7.39555 7.09703 8.32769 7.49994 8.47848 7.57386L11.1629 8.51733ZM11.2902 19.7734C11.1771 21.0566 10.8222 25.2891 10.7921 28.1552C10.783 29.0691 11.1612 29.8976 11.8919 30.0729C12.473 30.2125 12.8926 29.9733 13.1875 29.4738C13.4143 29.0895 13.5718 28.5664 13.677 27.9418C14.034 25.8262 14.3509 22.0193 14.3509 22.0193C14.3629 21.8752 14.4857 21.7663 14.6301 21.7716C14.7744 21.7772 14.8889 21.895 14.8901 22.0393C14.9007 23.3025 15.3419 27.1068 15.8768 29.5734C16.0125 30.1978 16.153 30.735 16.295 31.1203C16.376 31.34 16.4508 31.5055 16.5306 31.593C16.8784 31.9744 17.5202 32.1643 18.0995 32.1104C18.642 32.0601 19.1412 31.7865 19.2455 31.1927C19.477 29.8771 18.5068 24.3557 18.3437 23.4449C16.0535 22.3295 13.4879 21.0213 11.2902 19.7734L11.2902 19.7734ZM19.0968 23.8094C19.7863 25.5168 21.6243 30.0904 21.8179 30.8087C21.8841 31.0564 22.1 31.1627 22.3465 31.2125C22.8278 31.31 23.4342 31.1904 23.7508 31.0961C24.048 31.0078 24.5254 30.7904 24.7736 30.3071C24.9427 29.9778 24.9992 29.5293 24.8423 28.924C24.4844 27.5471 24.1351 26.4515 24.0126 26.0755L24.0052 26.0722C23.6995 25.9417 23.3953 25.8071 23.0919 25.6714C22.7176 25.5041 22.3447 25.3344 21.9724 25.1633C21.0182 24.7251 20.0681 24.2768 19.1215 23.8215L19.0968 23.8094ZM28.59 25.6811C28.494 25.806 28.3665 25.9261 28.1989 26.0389C27.2506 26.6775 26.4886 26.8403 25.4322 26.5794C25.7921 27.3169 26.2755 28.2095 26.8754 28.714C27.0978 28.901 27.3349 29.0324 27.5914 29.0604C27.8408 29.0878 28.1047 29.013 28.3857 28.8142C29.1409 28.2799 29.1823 27.4989 29.0466 26.8553C28.9294 26.299 28.6799 25.8363 28.5901 25.6811L28.59 25.6811ZM35.7369 18.8244C35.8853 18.8662 36.4879 19.0211 37.1076 18.9787C37.5396 18.949 37.9864 18.8274 38.2568 18.4586C38.5737 18.0266 38.4685 17.5919 38.1834 17.2134C37.8495 16.7704 37.2864 16.3976 36.7521 16.1569C35.6073 15.6415 26.6866 13.2344 26.6866 13.2344C26.5505 13.1975 26.4657 13.0624 26.4916 12.9239C26.5172 12.7855 26.6454 12.6901 26.7853 12.7048C29.0333 12.9425 31.732 12.3214 32.853 11.9673C33.0998 11.8834 33.2868 11.6802 33.3504 11.4275C33.399 11.2352 33.427 11.0531 33.4273 10.8856C33.4282 10.6335 33.3663 10.4179 33.1893 10.2688C32.7673 9.91336 32.1588 9.88714 31.6086 9.94163C30.9819 10.0035 22.5406 10.3227 19.9786 9.66743C18.2262 9.21888 15.7369 9.15497 14.2257 9.26423C13.8458 9.29162 13.5295 9.32991 13.3045 9.37645C13.0798 9.42298 12.8724 9.56347 12.7484 9.63975C11.9529 10.1281 9.99582 11.3495 8.58597 12.5048C7.90356 13.0638 7.3481 13.5993 7.14897 14.0257C6.825 14.7187 6.74047 15.2624 6.85033 15.7143C6.95813 16.1555 7.25147 16.4997 7.65022 16.8099C11.5217 19.8216 22.6821 24.9595 24.5482 25.7135L24.2237 25.5783C24.2955 25.5789 24.3642 25.6081 24.4139 25.6584C24.4625 25.6787 24.5076 25.697 24.5482 25.7135C24.6663 25.7612 24.78 25.8051 24.8902 25.8451C24.9647 25.8398 25.0383 25.8658 25.0931 25.9164C26.2293 26.2961 26.9583 26.2224 27.897 25.5907C28.0896 25.4608 28.2074 25.3224 28.2592 25.173C28.3376 24.9498 28.2675 24.7154 28.1479 24.4909C27.8221 23.881 27.1085 23.3485 26.953 23.2372C25.526 22.3925 19.5497 19.5018 19.5497 19.5018C19.416 19.4367 19.3594 19.275 19.4245 19.1407C19.4893 19.0067 19.651 18.9504 19.7853 19.0155C19.7853 19.0155 25.5564 21.8134 27.1651 22.7382C27.1701 22.74 27.1754 22.7421 27.1804 22.7441C28.7888 23.4145 29.8582 23.8256 30.644 24.0209C31.7331 24.2916 32.2329 24.1181 32.938 23.638C33.2078 23.4542 33.2255 23.1818 33.1144 22.9082C32.943 22.4856 32.5074 22.0583 32.0274 21.7993C31.9352 21.7605 31.8406 21.7198 31.7446 21.678C31.7199 21.6745 31.6951 21.6671 31.6716 21.6562C30.3404 21.0468 22.4973 17.0938 22.4973 17.0938C22.3641 17.0266 22.3105 16.864 22.3774 16.7309C22.4448 16.5978 22.6074 16.5442 22.7402 16.6114C22.7402 16.6114 30.1695 20.3559 31.7811 21.1114C31.7929 21.1137 31.8044 21.1167 31.8156 21.1205C31.959 21.1673 32.1033 21.2297 32.2441 21.3043C33.4599 21.8164 34.3738 22.0724 35.0865 22.1015C35.8034 22.1307 36.2967 21.9186 36.6825 21.4998C37.015 21.1381 36.9063 20.7452 36.6813 20.4042C36.2702 19.7822 35.4818 19.3033 35.4818 19.3033C35.4788 19.3015 35.4764 19.2997 35.4738 19.298C33.6752 18.5069 25.6473 15.61 25.6473 15.61C25.5071 15.5593 25.4344 15.4044 25.4847 15.2642C25.5354 15.124 25.6903 15.0513 25.8308 15.1019C25.8308 15.1019 33.9639 18.0378 35.7184 18.8153C35.7248 18.8182 35.731 18.8211 35.7372 18.8244L35.7369 18.8244ZM31.694 24.6933C31.3629 24.7089 30.9854 24.6624 30.5144 24.5455C29.9557 24.4065 29.2562 24.1623 28.3294 23.7959C28.4413 23.9361 28.5435 24.0842 28.6251 24.2365C28.6631 24.3081 28.697 24.3805 28.7252 24.4533C28.8012 24.5231 29.0215 24.7269 29.6583 25.318C30.0261 25.66 30.5094 25.655 30.9221 25.4553C31.2443 25.2995 31.5276 25.0276 31.694 24.6934V24.6933ZM12.5484 13.5632C14.2684 13.9169 18.8526 15.7524 18.8526 15.7524C18.9274 15.7824 19.0122 15.7459 19.0417 15.6714C19.0717 15.5968 19.0355 15.512 18.9607 15.4823C18.9607 15.4823 14.3403 13.6344 12.6076 13.2784C12.5286 13.2622 12.4517 13.3129 12.4356 13.3915C12.4194 13.4702 12.47 13.547 12.5484 13.5632L12.5484 13.5632ZM12.0854 9.41463L8.28313 8.07806C8.27017 8.07365 8.25721 8.06805 8.24514 8.06157C8.24514 8.06157 7.49559 7.67751 6.59409 8.26508C5.56093 8.93865 2.61539 10.6775 1.76837 11.8164C1.60079 12.0417 1.50065 12.4924 1.55396 12.9432C1.6058 13.3868 1.8149 13.8374 2.30204 14.0698C3.76905 14.7695 5.59124 15.0323 6.27457 15.1103C6.30726 14.726 6.42831 14.2924 6.65921 13.797C6.88128 13.3223 7.48361 12.71 8.24376 12.087C9.48427 11.0704 11.1433 10.0022 12.0855 9.41459L12.0854 9.41463ZM14.5461 11.7351C16.2659 12.0885 20.85 13.9243 20.85 13.9243C20.9248 13.9543 21.0097 13.9178 21.0391 13.8433C21.0691 13.7688 21.0329 13.6839 20.9581 13.6542C20.9581 13.6542 16.3377 11.8064 14.6047 11.4503C14.5261 11.4341 14.4492 11.4848 14.433 11.5634C14.4168 11.6421 14.4675 11.7189 14.5461 11.7351L14.5461 11.7351ZM4.09987 12.9256L6.10853 13.3903C6.18658 13.4083 6.26492 13.3597 6.28318 13.2814C6.30114 13.2033 6.25225 13.125 6.17421 13.107L4.16555 12.6422C4.08691 12.624 4.00887 12.6729 3.9909 12.7512C3.97264 12.8293 4.02183 12.9076 4.09987 12.9256ZM5.40402 11.6061L7.37905 11.9819C7.45798 11.9969 7.53396 11.9451 7.54898 11.8662C7.564 11.7872 7.51246 11.7113 7.43353 11.6962L5.45851 11.3204C5.37957 11.3054 5.30359 11.3572 5.28828 11.4362C5.27326 11.5148 5.32509 11.5911 5.40403 11.6061H5.40402ZM7.43884 10.4044L9.14764 10.8559C9.2248 10.8763 9.30461 10.83 9.32553 10.7523C9.34585 10.6748 9.29931 10.595 9.22156 10.5747L7.51276 10.1232C7.4356 10.1026 7.35579 10.1491 7.33546 10.2265C7.31455 10.3043 7.36108 10.3838 7.43884 10.4044ZM9.20449 9.50495L10.6146 9.9055C10.6918 9.92759 10.7725 9.88253 10.7946 9.80537C10.8167 9.7282 10.7713 9.6475 10.6945 9.62571L9.2843 9.22516C9.20685 9.20307 9.12643 9.24814 9.10435 9.3253C9.08226 9.40246 9.12703 9.48286 9.20449 9.50495ZM21.4927 9.363C21.2076 8.62228 20.7163 8.3051 20.1261 8.116C19.0323 7.76553 15.4474 7.46187 14.1279 7.5573C13.3701 7.61237 12.632 7.81647 12.15 8.11659C11.894 8.27593 11.707 8.45058 11.6876 8.65998C11.6861 8.67353 11.6837 8.68678 11.6805 8.69944L12.6772 9.04992C12.719 9.0243 12.7523 9.00397 12.7764 8.98895C12.833 8.95391 12.9272 8.91915 13.0544 8.88617L12.9402 8.5837C12.9119 8.50859 12.9496 8.42465 13.025 8.39638C13.1001 8.3681 13.184 8.4061 13.2123 8.4812L13.3419 8.82461C13.5722 8.78397 13.8585 8.74892 14.1866 8.72536C14.6307 8.69326 15.157 8.67588 15.724 8.67824L15.6162 8.3737C15.5897 8.29801 15.6295 8.21495 15.7051 8.18815C15.7808 8.16135 15.8639 8.20111 15.8907 8.27681L16.0335 8.68148C16.8087 8.69444 17.6439 8.74392 18.4413 8.8417L18.2846 8.50447C18.251 8.43143 18.2825 8.34513 18.3553 8.31126C18.428 8.2774 18.5149 8.30891 18.5485 8.38195L18.7829 8.88705C19.2512 8.9539 19.6783 9.04638 20.0891 9.15153C20.2063 9.18157 20.3598 9.20189 20.5014 9.2281L20.3686 8.91856C20.3368 8.84463 20.3712 8.75893 20.4449 8.72741C20.5188 8.6959 20.6045 8.73006 20.636 8.80369L20.8419 9.28376C21.0431 9.31321 21.2613 9.33942 21.4928 9.36298L21.4927 9.363Z" fill="#29B384" stroke="#29B384" stroke-width="0.4"/>
</svg>
