<svg width="40" height="40" viewBox="0 0 40 40" fill="none" xmlns="http://www.w3.org/2000/svg">
<path d="M4.08847 39.9771H26.8407C27.1759 39.9771 27.4468 39.7058 27.4468 39.371V23.5564H30.3226C30.56 23.5564 30.7747 23.418 30.8735 23.2026C30.9722 22.9868 30.9361 22.7335 30.7812 22.5543L15.9232 5.34136C15.6936 5.07453 15.2357 5.07453 15.0056 5.34136L10.1352 10.9836V7.3449C10.1352 7.01008 9.86429 6.73885 9.52913 6.73885L4.58327 6.73851C4.24811 6.73851 3.97721 7.00975 3.97721 7.34457V18.1177L0.147444 22.5545C-0.00779325 22.7338 -0.0436371 22.9871 0.0551157 23.2029C0.153868 23.4183 0.36863 23.5566 0.606049 23.5566H3.48248V39.3721C3.48248 39.7066 3.75372 39.9779 4.08854 39.9779L4.08847 39.9771ZM12.6081 38.7649V31.0742H18.3206V38.7649H12.6081ZM26.2349 38.7649H19.5327V30.4682C19.5327 30.1334 19.2618 29.8621 18.9267 29.8621H12.002C11.6669 29.8621 11.396 30.1334 11.396 30.4682V38.7649H4.69453V23.5564H26.2347L26.2349 38.7649ZM5.18908 7.95037H8.92317V12.3872L5.18908 16.7128V7.95037ZM5.01152 18.7737L15.4643 6.66467L28.9984 22.3442H1.93015L5.01152 18.7737Z" fill="#29B384"/>
<path d="M15.4648 19.914C17.282 19.914 18.7602 18.4357 18.7602 16.6186C18.7602 14.8014 17.282 13.3228 15.4648 13.3228C13.6477 13.3228 12.1694 14.8011 12.1694 16.6186C12.1694 18.4353 13.6477 19.914 15.4648 19.914ZM15.4648 14.5348C16.6137 14.5348 17.5481 15.4696 17.5481 16.6185C17.5481 17.7673 16.6137 18.7018 15.4648 18.7018C14.3159 18.7018 13.3815 17.7673 13.3815 16.6185C13.3815 15.4696 14.316 14.5348 15.4648 14.5348Z" fill="#29B384"/>
<path d="M37.0242 8.01703C37.0242 5.23739 34.7627 2.97575 31.9833 2.97575C29.2039 2.97575 26.9424 5.2373 26.9424 8.01703C26.9424 10.7968 29.2039 13.058 31.9833 13.058C34.7627 13.058 37.0242 10.7968 37.0242 8.01703ZM31.9833 11.8458C29.8722 11.8458 28.1545 10.1281 28.1545 8.01703C28.1545 5.90561 29.8722 4.18787 31.9833 4.18787C34.0944 4.18787 35.8121 5.90561 35.8121 8.01703C35.8121 10.1281 34.0947 11.8458 31.9833 11.8458Z" fill="#29B384"/>
<path d="M32.5896 1.12858V0.606058C32.5896 0.271237 32.3187 0 31.9835 0C31.6483 0 31.3774 0.271237 31.3774 0.606058V1.12858C31.3774 1.4634 31.6483 1.73464 31.9835 1.73464C32.3187 1.73464 32.5896 1.4634 32.5896 1.12858Z" fill="#29B384"/>
<path d="M31.3774 14.9053V15.4279C31.3774 15.7627 31.6483 16.0339 31.9835 16.0339C32.3187 16.0339 32.5896 15.7627 32.5896 15.4279V14.9053C32.5896 14.5705 32.3187 14.2993 31.9835 14.2993C31.6487 14.2993 31.3774 14.5705 31.3774 14.9053Z" fill="#29B384"/>
<path d="M37.6519 2.34779C37.4152 2.11172 37.0317 2.11138 36.7949 2.34813L36.4256 2.71778C36.1889 2.95486 36.1889 3.33838 36.4256 3.57512C36.544 3.69315 36.6992 3.75234 36.8541 3.75234C37.0093 3.75234 37.1642 3.69315 37.2826 3.57478L37.6519 3.20513C37.8887 2.96805 37.8887 2.58453 37.6519 2.34779V2.34779Z" fill="#29B384"/>
<path d="M26.3143 13.6863C26.4326 13.8043 26.5879 13.8635 26.7428 13.8635C26.898 13.8635 27.0529 13.8043 27.1713 13.686L27.5406 13.3163C27.7773 13.0792 27.7773 12.6957 27.5406 12.459C27.3038 12.2229 26.9203 12.2226 26.6836 12.4593L26.3143 12.8289C26.0775 13.066 26.0775 13.4496 26.3143 13.6863Z" fill="#29B384"/>
<path d="M39.3937 7.41097H38.8712C38.536 7.41097 38.2651 7.68221 38.2651 8.01703C38.2651 8.35185 38.536 8.62309 38.8712 8.62309H39.3937C39.7289 8.62309 39.9998 8.35185 39.9998 8.01703C39.9998 7.68255 39.7289 7.41097 39.3937 7.41097Z" fill="#29B384"/>
<path d="M25.0944 8.62309C25.4296 8.62309 25.7005 8.35185 25.7005 8.01703C25.7005 7.68221 25.4296 7.41097 25.0944 7.41097H24.5719C24.2367 7.41097 23.9658 7.68221 23.9658 8.01703C23.9658 8.35185 24.2367 8.62309 24.5719 8.62309H25.0944Z" fill="#29B384"/>
<path d="M36.7949 13.6863C36.9133 13.8047 37.0685 13.8638 37.2234 13.8638C37.3787 13.8638 37.5336 13.8047 37.6519 13.6866C37.8887 13.4499 37.8887 13.0664 37.6519 12.8293L37.2826 12.4596C37.0459 12.2229 36.6623 12.2232 36.4256 12.4593C36.1889 12.696 36.1889 13.0796 36.4256 13.3166L36.7949 13.6863Z" fill="#29B384"/>
<path d="M26.6841 3.5748C26.8024 3.69318 26.9577 3.75236 27.1126 3.75236C27.2678 3.75236 27.4227 3.69318 27.5411 3.57514C27.7778 3.3384 27.7778 2.95488 27.5411 2.7178L27.1718 2.34815C26.935 2.11141 26.5515 2.11174 26.3148 2.34781C26.078 2.58456 26.078 2.96808 26.3148 3.20515L26.6841 3.5748Z" fill="#29B384"/>
</svg>
