<svg width="40" height="40" viewBox="0 0 40 40" fill="none" xmlns="http://www.w3.org/2000/svg">
<path d="M0.834383 22.4998C0.375967 22.4998 0.000976562 22.1248 0.000976562 21.6663C0.000976562 16.1832 3.68417 12.5002 9.16717 12.5002H29.1666C29.6251 12.5002 30.0001 12.8735 30.0001 13.3336C30.0001 13.7936 29.6251 14.167 29.1666 14.167H9.16717C4.614 14.1667 1.66736 17.1117 1.66736 21.6668C1.66736 22.1252 1.29237 22.5002 0.834241 22.5002L0.834383 22.4998Z" fill="#29B384"/>
<path d="M30.8336 29.166H0.834383C0.375967 29.166 0.000976562 28.791 0.000976562 28.3329C0.000976562 27.8745 0.375967 27.4995 0.834383 27.4995H30.8336C35.3868 27.4995 38.3334 24.5529 38.3334 19.9997C38.3334 19.5396 38.7084 19.1663 39.1668 19.1663C39.6249 19.1663 39.9999 19.5396 39.9999 19.9997C39.9999 25.4828 36.3167 29.1659 30.8337 29.1659L30.8336 29.166Z" fill="#29B384"/>
<path d="M4.16723 32.4995C3.95379 32.4995 3.74062 32.4178 3.57713 32.2562L0.243787 28.9229C-0.0812622 28.5995 -0.0812622 28.0697 0.243787 27.7446L3.57713 24.4113C3.9005 24.0879 4.43032 24.0879 4.75538 24.4113C5.07875 24.7363 5.07875 25.2662 4.75538 25.5895L2.01245 28.333L4.75567 31.0762C5.07904 31.3996 5.07904 31.9294 4.75567 32.2545C4.59412 32.4177 4.38068 32.4995 4.16723 32.4995V32.4995Z" fill="#29B384"/>
<path d="M34.1665 19.1663C30.9501 19.1663 28.3335 16.5497 28.3335 13.3333C28.3335 10.1166 30.9501 7.5 34.1668 7.5C37.3832 7.5 39.9998 10.1166 39.9998 13.3333C39.9998 16.5497 37.3832 19.1663 34.1665 19.1663ZM34.1665 9.16653C31.8683 9.16653 30 11.0365 30 13.3333C30 15.6298 31.8683 17.4997 34.1665 17.4997C36.465 17.4997 38.3332 15.6298 38.3332 13.3333C38.3332 11.0365 36.465 9.16653 34.1665 9.16653Z" fill="#29B384"/>
<path d="M34.1666 15.8335C33.7085 15.8335 33.3335 15.4602 33.3335 15.0001V11.6668C33.3335 11.2067 33.7085 10.8333 34.1669 10.8333C34.625 10.8336 35 11.2069 35 11.6668V15.0001C35 15.4602 34.625 15.8335 34.1666 15.8335Z" fill="#29B384"/>
</svg>
