<svg width="40" height="40" viewBox="0 0 40 40" fill="none" xmlns="http://www.w3.org/2000/svg">
<path d="M19.9895 0.000785714C19.609 0.00663635 19.3051 0.319493 19.3104 0.700396V2.564C8.66922 2.92212 0.179006 11.5411 9.01548e-05 22.2296V22.2299C-0.00422021 22.4971 0.146336 22.7429 0.386169 22.8605C0.626318 22.9781 0.912954 22.9464 1.12139 22.7792C2.71902 21.497 4.74234 20.7297 6.96278 20.7297C9.26078 20.7297 11.3454 21.5546 12.9677 22.9199C13.0995 23.0677 13.2882 23.1518 13.4862 23.1509C13.6842 23.1496 13.872 23.0637 14.0022 22.9147C15.4591 21.691 17.2891 20.9024 19.3104 20.7552V36.5068C19.3104 37.6896 18.38 38.6202 17.1974 38.6202C16.0148 38.6202 15.0844 37.6896 15.0844 36.5068V35.0956L15.0847 35.0959C15.0874 34.9112 15.016 34.7332 14.8861 34.6014C14.7565 34.4699 14.5798 34.3957 14.395 34.3957C14.2103 34.3957 14.0333 34.4699 13.9036 34.6014C13.774 34.7332 13.7026 34.9112 13.7054 35.0959V36.5071C13.7054 38.4302 15.2749 40 17.1977 40C19.1204 40 20.69 38.4302 20.69 36.5071V20.7555C22.71 20.9023 24.5391 21.6903 25.9957 22.9128L25.9954 22.9125C26.1256 23.0631 26.3147 23.1502 26.5135 23.1511C26.7127 23.152 26.9024 23.0671 27.0342 22.9177C28.6561 21.5533 30.7399 20.7289 33.0372 20.7289C35.2577 20.7289 37.2814 21.4963 38.8786 22.7785C39.0874 22.9457 39.3737 22.9774 39.6138 22.8598C39.8537 22.7422 40.0042 22.4964 39.9999 22.2289C39.8207 11.5396 31.3316 2.92118 20.6896 2.56329V0.699687H20.6893C20.6921 0.513082 20.6191 0.333564 20.4874 0.201769C20.3553 0.0699746 20.1758 -0.00269815 19.9892 7.66399e-05L19.9895 0.000785714ZM20 3.93177C20.0425 3.93177 20.0853 3.93208 20.1278 3.93239C20.1346 3.9367 20.1416 3.94101 20.1487 3.94532C21.7553 4.89095 23.2368 6.9562 24.2799 9.74298C25.3229 12.5298 25.9378 16.0148 25.9378 19.7236C25.9378 20.1931 25.9273 20.6624 25.9079 21.1302C24.2164 20.0085 22.1856 19.3501 19.9991 19.3501C17.8122 19.3501 15.7817 20.0084 14.0902 21.1302C14.0693 20.6628 14.0603 20.1935 14.0603 19.7236C14.0603 16.0152 14.6752 12.5301 15.7182 9.74298C16.7613 6.9562 18.2428 4.89095 19.8494 3.94532C19.8565 3.94101 19.8632 3.9367 19.8703 3.93239C19.9131 3.93208 19.9559 3.93177 19.9987 3.93177H20ZM17.472 4.0999C16.2297 5.38552 15.2119 7.1647 14.4277 9.25951C13.315 12.2319 12.6823 15.8636 12.6823 19.7233C12.6823 20.1569 12.69 20.5901 12.7057 21.0222C11.0481 19.966 9.07827 19.3498 6.96218 19.3498C4.94832 19.3498 3.06537 19.9066 1.45757 20.8701C2.2362 12.1775 8.89904 5.2508 17.4709 4.0999H17.472ZM22.5283 4.0999C31.1005 5.25065 37.7629 12.1775 38.5417 20.8701C36.9342 19.9065 35.0509 19.3498 33.037 19.3498C30.921 19.3498 28.9512 19.966 27.2935 21.0222C27.3092 20.5902 27.3169 20.1569 27.3169 19.7233C27.3169 15.8631 26.6842 12.2318 25.5715 9.25951C24.7874 7.1647 23.7695 5.38545 22.5272 4.0999H22.5283Z" fill="#29B384"/>
</svg>
