<svg width="24" height="20" viewBox="0 0 24 20" fill="none" xmlns="http://www.w3.org/2000/svg">
<path d="M15.9976 17.0197C15.9984 16.2748 16.2947 15.5605 16.8214 15.0336C17.3483 14.5069 18.0626 14.2106 18.8076 14.2098C19.5526 14.2106 20.2667 14.5069 20.7936 15.0336C21.3203 15.5605 21.6166 16.2748 21.6174 17.0197C21.6166 17.7647 21.3203 18.4789 20.7936 19.0058C20.2667 19.5325 19.5526 19.8287 18.8076 19.8296C18.0626 19.8288 17.3483 19.5325 16.8216 19.0058C16.2947 18.4789 15.9984 17.7647 15.9976 17.0197ZM17.5249 17.0197C17.5253 17.3597 17.6606 17.6858 17.901 17.9262C18.1416 18.1666 18.4674 18.3018 18.8076 18.3023C19.1476 18.3018 19.4736 18.1666 19.714 17.9262C19.9544 17.6858 20.0897 17.3598 20.0901 17.0197C20.0898 16.6796 19.9545 16.3536 19.714 16.1132C19.4736 15.8726 19.1476 15.7375 18.8076 15.7371C18.4675 15.7374 18.1415 15.8726 17.9009 16.113C17.6604 16.3536 17.5251 16.6796 17.5247 17.0197L17.5249 17.0197ZM7.44301 17.0197C7.4437 16.2748 7.73998 15.5605 8.26685 15.0336C8.79358 14.5069 9.50787 14.2106 10.2529 14.2098C10.9978 14.2106 11.7121 14.5069 12.2389 15.0336C12.7657 15.5605 13.062 16.2748 13.0627 17.0197C13.062 17.7647 12.7657 18.4789 12.2389 19.0058C11.7121 19.5325 10.9978 19.8287 10.2529 19.8296C9.50787 19.8289 8.79344 19.5326 8.26657 19.0058C7.73971 18.479 7.44343 17.7647 7.44258 17.0197H7.44301ZM8.97034 17.0197H8.97021C8.97062 17.3597 9.1059 17.6858 9.34644 17.9262C9.58684 18.1666 9.91285 18.3018 10.2529 18.3023C10.5929 18.3018 10.9189 18.1666 11.1593 17.9262C11.3997 17.6858 11.5349 17.3598 11.5355 17.0197C11.5351 16.6796 11.3998 16.3536 11.1593 16.1132C10.9189 15.8728 10.5929 15.7375 10.2529 15.7371C9.91273 15.7374 9.58673 15.8726 9.34619 16.113C9.10565 16.3534 8.97038 16.6796 8.96996 17.0197L8.97034 17.0197ZM7.91704 13.8398C7.7559 13.8396 7.59904 13.7886 7.46861 13.694C7.33831 13.5994 7.24121 13.4659 7.19128 13.3127L3.35177 1.52691H0.764508H0.764646C0.562006 1.52719 0.367524 1.44683 0.224078 1.30367C0.0806391 1.1605 0 0.966166 0 0.763523C0 0.56102 0.080501 0.366825 0.223664 0.223663C0.366826 0.0805009 0.561025 0 0.763524 0H3.90492C4.06606 0 4.22306 0.0510398 4.35335 0.145652C4.48365 0.240401 4.58075 0.373741 4.63068 0.527016L5.42769 2.97402H23.2361C23.4386 2.97402 23.6328 3.05438 23.7759 3.19768C23.9191 3.34084 23.9996 3.53504 23.9996 3.73754C23.9997 3.77627 23.9968 3.815 23.9912 3.85345C24.0073 3.95871 24.0013 4.06633 23.9733 4.16924L21.5087 13.276C21.4649 13.4379 21.369 13.5808 21.2358 13.6827C21.1026 13.7847 20.9395 13.84 20.7718 13.84L7.91704 13.8398ZM8.47128 12.3124H20.1881L22.3026 4.50029H5.92618L8.47128 12.3124Z" fill="#082242"/>
</svg>
