<svg width="50" height="52" viewBox="0 0 50 52" fill="none" xmlns="http://www.w3.org/2000/svg">
<path d="M14.4018 44.4288V43.6788C13.9876 43.6788 13.6518 44.0146 13.6518 44.4288H14.4018ZM14.4018 51.0001H13.6518C13.6518 51.4143 13.9876 51.7501 14.4018 51.7501V51.0001ZM36.0615 51.0001V51.7501C36.4757 51.7501 36.8115 51.4143 36.8115 51.0001H36.0615ZM36.0615 44.4288H36.8115C36.8115 44.0146 36.4757 43.6788 36.0615 43.6788V44.4288ZM31.5661 43.6788C31.1519 43.6788 30.8161 44.0146 30.8161 44.4288C30.8161 44.843 31.1519 45.1788 31.5661 45.1788V43.6788ZM29.1141 45.1788C29.5283 45.1788 29.8641 44.843 29.8641 44.4288C29.8641 44.0146 29.5283 43.6788 29.1141 43.6788V45.1788ZM13.1758 11.9833L12.4924 11.6743C12.4485 11.7714 12.4258 11.8767 12.4258 11.9833H13.1758ZM17.6712 11.9833H18.4212C18.4212 11.8584 18.39 11.7354 18.3304 11.6256L17.6712 11.9833ZM16.9212 22.2509C16.9212 22.6651 17.257 23.0009 17.6712 23.0009C18.0854 23.0009 18.4212 22.6651 18.4212 22.2509H16.9212ZM17.6712 5.41207L17.0272 5.0276C16.9578 5.14384 16.9212 5.27669 16.9212 5.41207H17.6712ZM22.5753 5.41207H23.3253C23.3253 5.27669 23.2886 5.14384 23.2192 5.0276L22.5753 5.41207ZM21.8253 21.0187C21.8253 21.4329 22.1611 21.7687 22.5753 21.7687C22.9895 21.7687 23.3253 21.4329 23.3253 21.0187H21.8253ZM22.5753 3.35847L21.9142 3.00426C21.8558 3.1132 21.8253 3.23488 21.8253 3.35847H22.5753ZM27.888 3.35847H28.638C28.638 3.25042 28.6147 3.14365 28.5696 3.04546L27.888 3.35847ZM27.138 18.6603C27.138 19.0745 27.4738 19.4103 27.888 19.4103C28.3023 19.4103 28.638 19.0745 28.638 18.6603H27.138ZM33.2008 5.41207H33.9508C33.9508 5.25878 33.9038 5.10917 33.8162 4.98339L33.2008 5.41207ZM32.4508 24.3042C32.4508 24.7184 32.7866 25.0542 33.2008 25.0542C33.615 25.0542 33.9508 24.7184 33.9508 24.3042H32.4508ZM37.6962 16.9116H38.4462C38.4462 16.7499 38.394 16.5926 38.2973 16.463L37.6962 16.9116ZM37.6962 29.2328L38.4308 29.3841C38.4411 29.3343 38.4462 29.2836 38.4462 29.2328H37.6962ZM21.3126 25.2595C21.6567 25.029 21.7488 24.5631 21.5183 24.219C21.2877 23.8749 20.8218 23.7828 20.4777 24.0133L21.3126 25.2595ZM19.7146 36.4546L19.0855 36.8631L19.7146 36.4546ZM31.5661 36.4546L32.0795 37.0013C32.1039 36.9785 32.1266 36.954 32.1477 36.9281L31.5661 36.4546ZM31.5661 27.4192L32.1477 26.9456C32.1199 26.9114 32.089 26.8797 32.0556 26.8509L31.5661 27.4192ZM24.6186 27.4192L24.2314 26.7769C24.1788 26.8086 24.1303 26.8466 24.087 26.8901L24.6186 27.4192ZM24.6186 33.5797L24.1234 34.1429C24.2165 34.2248 24.3284 34.2823 24.4492 34.3103L24.6186 33.5797ZM29.9314 31.1155L30.6739 31.0099C30.6703 30.9845 30.6654 30.9593 30.6592 30.9344L29.9314 31.1155ZM25.4213 29.5056C25.0979 29.7645 25.0457 30.2365 25.3047 30.5598C25.5636 30.8831 26.0356 30.9353 26.3589 30.6764L25.4213 29.5056ZM13.6518 44.4288V51.0001H15.1518V44.4288H13.6518ZM14.4018 51.7501H36.0615V50.2501H14.4018V51.7501ZM36.8115 51.0001V44.4288H35.3115V51.0001H36.8115ZM36.0615 43.6788H33.8138V45.1788H36.0615V43.6788ZM33.8138 43.6788H31.5661V45.1788H33.8138V43.6788ZM34.5638 44.4288V41.1432H33.0638V44.4288H34.5638ZM33.8138 40.3932H16.4452V41.8932H33.8138V40.3932ZM15.6952 41.1432V44.4288H17.1952V41.1432H15.6952ZM16.4452 45.1788H29.1141V43.6788H16.4452V45.1788ZM16.4452 43.6788H15.4235V45.1788H16.4452V43.6788ZM15.4235 43.6788H14.4018V45.1788H15.4235V43.6788ZM29.1141 43.6788H15.4235V45.1788H29.1141V43.6788ZM17.1465 40.8774C16.6067 39.4534 15.7956 37.1505 15.1207 34.8818C14.4351 32.5773 13.9258 30.4209 13.9258 29.2328H12.4258C12.4258 30.6732 13.0062 33.0346 13.6829 35.3095C14.3703 37.62 15.1938 39.9581 15.7439 41.409L17.1465 40.8774ZM13.9258 29.2328C13.9258 29.2277 13.9258 29.2225 13.9258 29.2173C13.9258 29.2122 13.9258 29.2069 13.9258 29.2017C13.9258 29.1964 13.9258 29.1912 13.9258 29.1859C13.9258 29.1806 13.9258 29.1752 13.9258 29.1699C13.9258 29.1645 13.9258 29.1591 13.9258 29.1537C13.9258 29.1483 13.9258 29.1429 13.9258 29.1374C13.9258 29.132 13.9258 29.1265 13.9258 29.1209C13.9258 29.1154 13.9258 29.1099 13.9258 29.1043C13.9258 29.0987 13.9258 29.0931 13.9258 29.0875C13.9258 29.0819 13.9258 29.0762 13.9258 29.0705C13.9258 29.0648 13.9258 29.0591 13.9258 29.0534C13.9258 29.0476 13.9258 29.0419 13.9258 29.0361C13.9258 29.0303 13.9258 29.0245 13.9258 29.0186C13.9258 29.0128 13.9258 29.0069 13.9258 29.001C13.9258 28.9951 13.9258 28.9892 13.9258 28.9832C13.9258 28.9773 13.9258 28.9713 13.9258 28.9653C13.9258 28.9593 13.9258 28.9533 13.9258 28.9472C13.9258 28.9411 13.9258 28.9351 13.9258 28.9289C13.9258 28.9228 13.9258 28.9167 13.9258 28.9105C13.9258 28.9044 13.9258 28.8982 13.9258 28.892C13.9258 28.8858 13.9258 28.8795 13.9258 28.8732C13.9258 28.867 13.9258 28.8607 13.9258 28.8544C13.9258 28.848 13.9258 28.8417 13.9258 28.8353C13.9258 28.829 13.9258 28.8226 13.9258 28.8161C13.9258 28.8097 13.9258 28.8033 13.9258 28.7968C13.9258 28.7903 13.9258 28.7838 13.9258 28.7773C13.9258 28.7708 13.9258 28.7642 13.9258 28.7576C13.9258 28.7511 13.9258 28.7445 13.9258 28.7378C13.9258 28.7312 13.9258 28.7245 13.9258 28.7179C13.9258 28.7112 13.9258 28.7045 13.9258 28.6978C13.9258 28.691 13.9258 28.6843 13.9258 28.6775C13.9258 28.6707 13.9258 28.6639 13.9258 28.6571C13.9258 28.6503 13.9258 28.6434 13.9258 28.6365C13.9258 28.6296 13.9258 28.6227 13.9258 28.6158C13.9258 28.6089 13.9258 28.6019 13.9258 28.595C13.9258 28.588 13.9258 28.581 13.9258 28.5739C13.9258 28.5669 13.9258 28.5599 13.9258 28.5528C13.9258 28.5457 13.9258 28.5386 13.9258 28.5315C13.9258 28.5244 13.9258 28.5172 13.9258 28.51C13.9258 28.5029 13.9258 28.4957 13.9258 28.4884C13.9258 28.4812 13.9258 28.474 13.9258 28.4667C13.9258 28.4594 13.9258 28.4521 13.9258 28.4448C13.9258 28.4375 13.9258 28.4302 13.9258 28.4228C13.9258 28.4154 13.9258 28.408 13.9258 28.4006C13.9258 28.3932 13.9258 28.3858 13.9258 28.3783C13.9258 28.3708 13.9258 28.3634 13.9258 28.3559C13.9258 28.3483 13.9258 28.3408 13.9258 28.3333C13.9258 28.3257 13.9258 28.3181 13.9258 28.3105C13.9258 28.3029 13.9258 28.2953 13.9258 28.2876C13.9258 28.28 13.9258 28.2723 13.9258 28.2646C13.9258 28.2569 13.9258 28.2492 13.9258 28.2414C13.9258 28.2337 13.9258 28.2259 13.9258 28.2181C13.9258 28.2104 13.9258 28.2025 13.9258 28.1947C13.9258 28.1869 13.9258 28.179 13.9258 28.1711C13.9258 28.1632 13.9258 28.1553 13.9258 28.1474C13.9258 28.1395 13.9258 28.1315 13.9258 28.1236C13.9258 28.1156 13.9258 28.1076 13.9258 28.0996C13.9258 28.0916 13.9258 28.0835 13.9258 28.0755C13.9258 28.0674 13.9258 28.0593 13.9258 28.0512C13.9258 28.0431 13.9258 28.035 13.9258 28.0268C13.9258 28.0186 13.9258 28.0105 13.9258 28.0023C13.9258 27.9941 13.9258 27.9859 13.9258 27.9776C13.9258 27.9694 13.9258 27.9611 13.9258 27.9528C13.9258 27.9445 13.9258 27.9362 13.9258 27.9279C13.9258 27.9196 13.9258 27.9112 13.9258 27.9028C13.9258 27.8945 13.9258 27.8861 13.9258 27.8776C13.9258 27.8692 13.9258 27.8608 13.9258 27.8523C13.9258 27.8439 13.9258 27.8354 13.9258 27.8269C13.9258 27.8184 13.9258 27.8098 13.9258 27.8013C13.9258 27.7927 13.9258 27.7842 13.9258 27.7756C13.9258 27.767 13.9258 27.7584 13.9258 27.7497C13.9258 27.7411 13.9258 27.7325 13.9258 27.7238C13.9258 27.7151 13.9258 27.7064 13.9258 27.6977C13.9258 27.689 13.9258 27.6802 13.9258 27.6715C13.9258 27.6627 13.9258 27.6539 13.9258 27.6451C13.9258 27.6363 13.9258 27.6275 13.9258 27.6187C13.9258 27.6098 13.9258 27.601 13.9258 27.5921C13.9258 27.5832 13.9258 27.5743 13.9258 27.5653C13.9258 27.5564 13.9258 27.5475 13.9258 27.5385C13.9258 27.5295 13.9258 27.5205 13.9258 27.5115C13.9258 27.5025 13.9258 27.4935 13.9258 27.4844C13.9258 27.4754 13.9258 27.4663 13.9258 27.4572C13.9258 27.4481 13.9258 27.439 13.9258 27.4299C13.9258 27.4208 13.9258 27.4116 13.9258 27.4025C13.9258 27.3933 13.9258 27.3841 13.9258 27.3749C13.9258 27.3657 13.9258 27.3564 13.9258 27.3472C13.9258 27.3379 13.9258 27.3287 13.9258 27.3194C13.9258 27.3101 13.9258 27.3008 13.9258 27.2914C13.9258 27.2821 13.9258 27.2728 13.9258 27.2634C13.9258 27.254 13.9258 27.2446 13.9258 27.2352C13.9258 27.2258 13.9258 27.2164 13.9258 27.2069C13.9258 27.1975 13.9258 27.188 13.9258 27.1785C13.9258 27.169 13.9258 27.1595 13.9258 27.15C13.9258 27.1405 13.9258 27.1309 13.9258 27.1214C13.9258 27.1118 13.9258 27.1022 13.9258 27.0926C13.9258 27.083 13.9258 27.0734 13.9258 27.0638C13.9258 27.0541 13.9258 27.0445 13.9258 27.0348C13.9258 27.0251 13.9258 27.0154 13.9258 27.0057C13.9258 26.996 13.9258 26.9863 13.9258 26.9765C13.9258 26.9668 13.9258 26.957 13.9258 26.9472C13.9258 26.9374 13.9258 26.9276 13.9258 26.9178C13.9258 26.9079 13.9258 26.8981 13.9258 26.8882C13.9258 26.8784 13.9258 26.8685 13.9258 26.8586C13.9258 26.8487 13.9258 26.8388 13.9258 26.8288C13.9258 26.8189 13.9258 26.8089 13.9258 26.799C13.9258 26.789 13.9258 26.779 13.9258 26.769C13.9258 26.759 13.9258 26.749 13.9258 26.7389C13.9258 26.7289 13.9258 26.7188 13.9258 26.7087C13.9258 26.6986 13.9258 26.6885 13.9258 26.6784C13.9258 26.6683 13.9258 26.6582 13.9258 26.648C13.9258 26.6379 13.9258 26.6277 13.9258 26.6175C13.9258 26.6073 13.9258 26.5971 13.9258 26.5869C13.9258 26.5767 13.9258 26.5664 13.9258 26.5562C13.9258 26.5459 13.9258 26.5357 13.9258 26.5254C13.9258 26.5151 13.9258 26.5048 13.9258 26.4944C13.9258 26.4841 13.9258 26.4738 13.9258 26.4634C13.9258 26.4531 13.9258 26.4427 13.9258 26.4323C13.9258 26.4219 13.9258 26.4115 13.9258 26.4011C13.9258 26.3906 13.9258 26.3802 13.9258 26.3697C13.9258 26.3593 13.9258 26.3488 13.9258 26.3383C13.9258 26.3278 13.9258 26.3173 13.9258 26.3068C13.9258 26.2962 13.9258 26.2857 13.9258 26.2751C13.9258 26.2646 13.9258 26.254 13.9258 26.2434C13.9258 26.2328 13.9258 26.2222 13.9258 26.2116C13.9258 26.2009 13.9258 26.1903 13.9258 26.1796C13.9258 26.169 13.9258 26.1583 13.9258 26.1476C13.9258 26.1369 13.9258 26.1262 13.9258 26.1155C13.9258 26.1048 13.9258 26.094 13.9258 26.0833C13.9258 26.0725 13.9258 26.0617 13.9258 26.0509C13.9258 26.0402 13.9258 26.0294 13.9258 26.0185C13.9258 26.0077 13.9258 25.9969 13.9258 25.986C13.9258 25.9752 13.9258 25.9643 13.9258 25.9534C13.9258 25.9426 13.9258 25.9317 13.9258 25.9207C13.9258 25.9098 13.9258 25.8989 13.9258 25.888C13.9258 25.877 13.9258 25.8661 13.9258 25.8551C13.9258 25.8441 13.9258 25.8331 13.9258 25.8221C13.9258 25.8111 13.9258 25.8001 13.9258 25.7891C13.9258 25.778 13.9258 25.767 13.9258 25.7559C13.9258 25.7448 13.9258 25.7338 13.9258 25.7227C13.9258 25.7116 13.9258 25.7005 13.9258 25.6893C13.9258 25.6782 13.9258 25.6671 13.9258 25.6559C13.9258 25.6448 13.9258 25.6336 13.9258 25.6224C13.9258 25.6112 13.9258 25.6 13.9258 25.5888C13.9258 25.5776 13.9258 25.5664 13.9258 25.5551C13.9258 25.5439 13.9258 25.5326 13.9258 25.5214C13.9258 25.5101 13.9258 25.4988 13.9258 25.4875C13.9258 25.4762 13.9258 25.4649 13.9258 25.4536C13.9258 25.4423 13.9258 25.4309 13.9258 25.4196C13.9258 25.4082 13.9258 25.3968 13.9258 25.3855C13.9258 25.3741 13.9258 25.3627 13.9258 25.3513C13.9258 25.3399 13.9258 25.3284 13.9258 25.317C13.9258 25.3056 13.9258 25.2941 13.9258 25.2826C13.9258 25.2712 13.9258 25.2597 13.9258 25.2482C13.9258 25.2367 13.9258 25.2252 13.9258 25.2137C13.9258 25.2022 13.9258 25.1906 13.9258 25.1791C13.9258 25.1675 13.9258 25.156 13.9258 25.1444C13.9258 25.1328 13.9258 25.1212 13.9258 25.1096C13.9258 25.098 13.9258 25.0864 13.9258 25.0748C13.9258 25.0632 13.9258 25.0515 13.9258 25.0399C13.9258 25.0282 13.9258 25.0166 13.9258 25.0049C13.9258 24.9932 13.9258 24.9815 13.9258 24.9698C13.9258 24.9581 13.9258 24.9464 13.9258 24.9347C13.9258 24.9229 13.9258 24.9112 13.9258 24.8994C13.9258 24.8877 13.9258 24.8759 13.9258 24.8641C13.9258 24.8523 13.9258 24.8406 13.9258 24.8288C13.9258 24.8169 13.9258 24.8051 13.9258 24.7933C13.9258 24.7815 13.9258 24.7696 13.9258 24.7578C13.9258 24.7459 13.9258 24.734 13.9258 24.7222C13.9258 24.7103 13.9258 24.6984 13.9258 24.6865C13.9258 24.6746 13.9258 24.6627 13.9258 24.6508C13.9258 24.6388 13.9258 24.6269 13.9258 24.6149C13.9258 24.603 13.9258 24.591 13.9258 24.579C13.9258 24.5671 13.9258 24.5551 13.9258 24.5431C13.9258 24.5311 13.9258 24.5191 13.9258 24.5071C13.9258 24.495 13.9258 24.483 13.9258 24.471C13.9258 24.4589 13.9258 24.4469 13.9258 24.4348C13.9258 24.4227 13.9258 24.4106 13.9258 24.3986C13.9258 24.3865 13.9258 24.3744 13.9258 24.3622C13.9258 24.3501 13.9258 24.338 13.9258 24.3259C13.9258 24.3137 13.9258 24.3016 13.9258 24.2894C13.9258 24.2773 13.9258 24.2651 13.9258 24.2529C13.9258 24.2408 13.9258 24.2286 13.9258 24.2164C13.9258 24.2042 13.9258 24.1919 13.9258 24.1797C13.9258 24.1675 13.9258 24.1553 13.9258 24.143C13.9258 24.1308 13.9258 24.1185 13.9258 24.1063C13.9258 24.094 13.9258 24.0817 13.9258 24.0694C13.9258 24.0571 13.9258 24.0449 13.9258 24.0325C13.9258 24.0202 13.9258 24.0079 13.9258 23.9956C13.9258 23.9833 13.9258 23.9709 13.9258 23.9586C13.9258 23.9462 13.9258 23.9339 13.9258 23.9215C13.9258 23.9091 13.9258 23.8968 13.9258 23.8844C13.9258 23.872 13.9258 23.8596 13.9258 23.8472C13.9258 23.8348 13.9258 23.8223 13.9258 23.8099C13.9258 23.7975 13.9258 23.7851 13.9258 23.7726C13.9258 23.7602 13.9258 23.7477 13.9258 23.7352C13.9258 23.7228 13.9258 23.7103 13.9258 23.6978C13.9258 23.6853 13.9258 23.6728 13.9258 23.6603C13.9258 23.6478 13.9258 23.6353 13.9258 23.6228C13.9258 23.6103 13.9258 23.5977 13.9258 23.5852C13.9258 23.5726 13.9258 23.5601 13.9258 23.5475C13.9258 23.535 13.9258 23.5224 13.9258 23.5098C13.9258 23.4972 13.9258 23.4846 13.9258 23.4721C13.9258 23.4595 13.9258 23.4468 13.9258 23.4342C13.9258 23.4216 13.9258 23.409 13.9258 23.3964C13.9258 23.3837 13.9258 23.3711 13.9258 23.3584C13.9258 23.3458 13.9258 23.3331 13.9258 23.3205C13.9258 23.3078 13.9258 23.2951 13.9258 23.2824C13.9258 23.2698 13.9258 23.2571 13.9258 23.2444C13.9258 23.2317 13.9258 23.219 13.9258 23.2062C13.9258 23.1935 13.9258 23.1808 13.9258 23.1681C13.9258 23.1553 13.9258 23.1426 13.9258 23.1298C13.9258 23.1171 13.9258 23.1043 13.9258 23.0916C13.9258 23.0788 13.9258 23.066 13.9258 23.0532C13.9258 23.0405 13.9258 23.0277 13.9258 23.0149C13.9258 23.0021 13.9258 22.9893 13.9258 22.9764C13.9258 22.9636 13.9258 22.9508 13.9258 22.938C13.9258 22.9251 13.9258 22.9123 13.9258 22.8995C13.9258 22.8866 13.9258 22.8738 13.9258 22.8609C13.9258 22.8481 13.9258 22.8352 13.9258 22.8223C13.9258 22.8094 13.9258 22.7966 13.9258 22.7837C13.9258 22.7708 13.9258 22.7579 13.9258 22.745C13.9258 22.7321 13.9258 22.7192 13.9258 22.7063C13.9258 22.6933 13.9258 22.6804 13.9258 22.6675C13.9258 22.6545 13.9258 22.6416 13.9258 22.6287C13.9258 22.6157 13.9258 22.6028 13.9258 22.5898C13.9258 22.5769 13.9258 22.5639 13.9258 22.5509C13.9258 22.5379 13.9258 22.525 13.9258 22.512C13.9258 22.499 13.9258 22.486 13.9258 22.473C13.9258 22.46 13.9258 22.447 13.9258 22.434C13.9258 22.421 13.9258 22.408 13.9258 22.3949C13.9258 22.3819 13.9258 22.3689 13.9258 22.3558C13.9258 22.3428 13.9258 22.3298 13.9258 22.3167C13.9258 22.3037 13.9258 22.2906 13.9258 22.2775C13.9258 22.2645 13.9258 22.2514 13.9258 22.2383C13.9258 22.2253 13.9258 22.2122 13.9258 22.1991C13.9258 22.186 13.9258 22.1729 13.9258 22.1598C13.9258 22.1467 13.9258 22.1336 13.9258 22.1205C13.9258 22.1074 13.9258 22.0943 13.9258 22.0812C13.9258 22.0681 13.9258 22.0549 13.9258 22.0418C13.9258 22.0287 13.9258 22.0155 13.9258 22.0024C13.9258 21.9893 13.9258 21.9761 13.9258 21.963C13.9258 21.9498 13.9258 21.9367 13.9258 21.9235C13.9258 21.9103 13.9258 21.8972 13.9258 21.884C13.9258 21.8708 13.9258 21.8576 13.9258 21.8445C13.9258 21.8313 13.9258 21.8181 13.9258 21.8049C13.9258 21.7917 13.9258 21.7785 13.9258 21.7653C13.9258 21.7521 13.9258 21.7389 13.9258 21.7257C13.9258 21.7125 13.9258 21.6992 13.9258 21.686C13.9258 21.6728 13.9258 21.6596 13.9258 21.6463C13.9258 21.6331 13.9258 21.6199 13.9258 21.6066C13.9258 21.5934 13.9258 21.5802 13.9258 21.5669C13.9258 21.5537 13.9258 21.5404 13.9258 21.5272C13.9258 21.5139 13.9258 21.5006 13.9258 21.4874C13.9258 21.4741 13.9258 21.4608 13.9258 21.4476C13.9258 21.4343 13.9258 21.421 13.9258 21.4077C13.9258 21.3945 13.9258 21.3812 13.9258 21.3679C13.9258 21.3546 13.9258 21.3413 13.9258 21.328C13.9258 21.3147 13.9258 21.3014 13.9258 21.2881C13.9258 21.2748 13.9258 21.2615 13.9258 21.2482C13.9258 21.2349 13.9258 21.2216 13.9258 21.2082C13.9258 21.1949 13.9258 21.1816 13.9258 21.1683C13.9258 21.1549 13.9258 21.1416 13.9258 21.1283C13.9258 21.115 13.9258 21.1016 13.9258 21.0883C13.9258 21.0749 13.9258 21.0616 13.9258 21.0483C13.9258 21.0349 13.9258 21.0216 13.9258 21.0082C13.9258 20.9949 13.9258 20.9815 13.9258 20.9681C13.9258 20.9548 13.9258 20.9414 13.9258 20.9281C13.9258 20.9147 13.9258 20.9013 13.9258 20.888C13.9258 20.8746 13.9258 20.8612 13.9258 20.8479C13.9258 20.8345 13.9258 20.8211 13.9258 20.8077C13.9258 20.7943 13.9258 20.781 13.9258 20.7676C13.9258 20.7542 13.9258 20.7408 13.9258 20.7274C13.9258 20.714 13.9258 20.7006 13.9258 20.6873C13.9258 20.6739 13.9258 20.6605 13.9258 20.6471C13.9258 20.6337 13.9258 20.6203 13.9258 20.6069C13.9258 20.5935 13.9258 20.5801 13.9258 20.5667C13.9258 20.5533 13.9258 20.5398 13.9258 20.5264C13.9258 20.513 13.9258 20.4996 13.9258 20.4862C13.9258 20.4728 13.9258 20.4594 13.9258 20.446C13.9258 20.4325 13.9258 20.4191 13.9258 20.4057C13.9258 20.3923 13.9258 20.3789 13.9258 20.3654C13.9258 20.352 13.9258 20.3386 13.9258 20.3252C13.9258 20.3117 13.9258 20.2983 13.9258 20.2849C13.9258 20.2714 13.9258 20.258 13.9258 20.2446C13.9258 20.2312 13.9258 20.2177 13.9258 20.2043C13.9258 20.1909 13.9258 20.1774 13.9258 20.164C13.9258 20.1505 13.9258 20.1371 13.9258 20.1237C13.9258 20.1102 13.9258 20.0968 13.9258 20.0834C13.9258 20.0699 13.9258 20.0565 13.9258 20.043C13.9258 20.0296 13.9258 20.0161 13.9258 20.0027C13.9258 19.9893 13.9258 19.9758 13.9258 19.9624C13.9258 19.9489 13.9258 19.9355 13.9258 19.922C13.9258 19.9086 13.9258 19.8951 13.9258 19.8817C13.9258 19.8683 13.9258 19.8548 13.9258 19.8414C13.9258 19.8279 13.9258 19.8145 13.9258 19.801C13.9258 19.7876 13.9258 19.7741 13.9258 19.7607C13.9258 19.7472 13.9258 19.7338 13.9258 19.7203C13.9258 19.7069 13.9258 19.6934 13.9258 19.68C13.9258 19.6665 13.9258 19.6531 13.9258 19.6397C13.9258 19.6262 13.9258 19.6128 13.9258 19.5993C13.9258 19.5859 13.9258 19.5724 13.9258 19.559C13.9258 19.5455 13.9258 19.5321 13.9258 19.5186C13.9258 19.5052 13.9258 19.4918 13.9258 19.4783C13.9258 19.4649 13.9258 19.4514 13.9258 19.438C13.9258 19.4245 13.9258 19.4111 13.9258 19.3976C13.9258 19.3842 13.9258 19.3708 13.9258 19.3573C13.9258 19.3439 13.9258 19.3304 13.9258 19.317C13.9258 19.3036 13.9258 19.2901 13.9258 19.2767C13.9258 19.2633 13.9258 19.2498 13.9258 19.2364C13.9258 19.223 13.9258 19.2095 13.9258 19.1961C13.9258 19.1827 13.9258 19.1692 13.9258 19.1558C13.9258 19.1424 13.9258 19.1289 13.9258 19.1155C13.9258 19.1021 13.9258 19.0887 13.9258 19.0752C13.9258 19.0618 13.9258 19.0484 13.9258 19.035C13.9258 19.0216 13.9258 19.0081 13.9258 18.9947C13.9258 18.9813 13.9258 18.9679 13.9258 18.9545C13.9258 18.9411 13.9258 18.9277 13.9258 18.9142C13.9258 18.9008 13.9258 18.8874 13.9258 18.874C13.9258 18.8606 13.9258 18.8472 13.9258 18.8338C13.9258 18.8204 13.9258 18.807 13.9258 18.7936C13.9258 18.7802 13.9258 18.7668 13.9258 18.7534C13.9258 18.74 13.9258 18.7266 13.9258 18.7133C13.9258 18.6999 13.9258 18.6865 13.9258 18.6731C13.9258 18.6597 13.9258 18.6463 13.9258 18.6329C13.9258 18.6196 13.9258 18.6062 13.9258 18.5928C13.9258 18.5794 13.9258 18.5661 13.9258 18.5527C13.9258 18.5393 13.9258 18.526 13.9258 18.5126C13.9258 18.4992 13.9258 18.4859 13.9258 18.4725C13.9258 18.4592 13.9258 18.4458 13.9258 18.4325C13.9258 18.4191 13.9258 18.4058 13.9258 18.3924C13.9258 18.3791 13.9258 18.3657 13.9258 18.3524C13.9258 18.3391 13.9258 18.3257 13.9258 18.3124C13.9258 18.2991 13.9258 18.2857 13.9258 18.2724C13.9258 18.2591 13.9258 18.2458 13.9258 18.2324C13.9258 18.2191 13.9258 18.2058 13.9258 18.1925C13.9258 18.1792 13.9258 18.1659 13.9258 18.1526C13.9258 18.1393 13.9258 18.126 13.9258 18.1127C13.9258 18.0994 13.9258 18.0861 13.9258 18.0728C13.9258 18.0595 13.9258 18.0462 13.9258 18.0329C13.9258 18.0197 13.9258 18.0064 13.9258 17.9931C13.9258 17.9798 13.9258 17.9666 13.9258 17.9533C13.9258 17.94 13.9258 17.9268 13.9258 17.9135C13.9258 17.9003 13.9258 17.887 13.9258 17.8738C13.9258 17.8605 13.9258 17.8473 13.9258 17.834C13.9258 17.8208 13.9258 17.8076 13.9258 17.7943C13.9258 17.7811 13.9258 17.7679 13.9258 17.7546C13.9258 17.7414 13.9258 17.7282 13.9258 17.715C13.9258 17.7018 13.9258 17.6886 13.9258 17.6754C13.9258 17.6622 13.9258 17.649 13.9258 17.6358C13.9258 17.6226 13.9258 17.6094 13.9258 17.5962C13.9258 17.583 13.9258 17.5699 13.9258 17.5567C13.9258 17.5435 13.9258 17.5303 13.9258 17.5172C13.9258 17.504 13.9258 17.4909 13.9258 17.4777C13.9258 17.4646 13.9258 17.4514 13.9258 17.4383C13.9258 17.4251 13.9258 17.412 13.9258 17.3989C13.9258 17.3857 13.9258 17.3726 13.9258 17.3595C13.9258 17.3464 13.9258 17.3333 13.9258 17.3201C13.9258 17.307 13.9258 17.2939 13.9258 17.2808C13.9258 17.2677 13.9258 17.2547 13.9258 17.2416C13.9258 17.2285 13.9258 17.2154 13.9258 17.2023C13.9258 17.1893 13.9258 17.1762 13.9258 17.1631C13.9258 17.1501 13.9258 17.137 13.9258 17.124C13.9258 17.1109 13.9258 17.0979 13.9258 17.0848C13.9258 17.0718 13.9258 17.0588 13.9258 17.0457C13.9258 17.0327 13.9258 17.0197 13.9258 17.0067C13.9258 16.9937 13.9258 16.9807 13.9258 16.9677C13.9258 16.9547 13.9258 16.9417 13.9258 16.9287C13.9258 16.9157 13.9258 16.9027 13.9258 16.8898C13.9258 16.8768 13.9258 16.8638 13.9258 16.8509C13.9258 16.8379 13.9258 16.8249 13.9258 16.812C13.9258 16.7991 13.9258 16.7861 13.9258 16.7732C13.9258 16.7603 13.9258 16.7473 13.9258 16.7344C13.9258 16.7215 13.9258 16.7086 13.9258 16.6957C13.9258 16.6828 13.9258 16.6699 13.9258 16.657C13.9258 16.6441 13.9258 16.6312 13.9258 16.6184C13.9258 16.6055 13.9258 16.5926 13.9258 16.5798C13.9258 16.5669 13.9258 16.554 13.9258 16.5412C13.9258 16.5284 13.9258 16.5155 13.9258 16.5027C13.9258 16.4899 13.9258 16.477 13.9258 16.4642C13.9258 16.4514 13.9258 16.4386 13.9258 16.4258C13.9258 16.413 13.9258 16.4002 13.9258 16.3874C13.9258 16.3746 13.9258 16.3619 13.9258 16.3491C13.9258 16.3363 13.9258 16.3236 13.9258 16.3108C13.9258 16.2981 13.9258 16.2853 13.9258 16.2726C13.9258 16.2599 13.9258 16.2471 13.9258 16.2344C13.9258 16.2217 13.9258 16.209 13.9258 16.1963C13.9258 16.1836 13.9258 16.1709 13.9258 16.1582C13.9258 16.1455 13.9258 16.1329 13.9258 16.1202C13.9258 16.1075 13.9258 16.0949 13.9258 16.0822C13.9258 16.0696 13.9258 16.0569 13.9258 16.0443C13.9258 16.0317 13.9258 16.019 13.9258 16.0064C13.9258 15.9938 13.9258 15.9812 13.9258 15.9686C13.9258 15.956 13.9258 15.9434 13.9258 15.9308C13.9258 15.9183 13.9258 15.9057 13.9258 15.8931C13.9258 15.8806 13.9258 15.868 13.9258 15.8555C13.9258 15.8429 13.9258 15.8304 13.9258 15.8179C13.9258 15.8054 13.9258 15.7928 13.9258 15.7803C13.9258 15.7678 13.9258 15.7553 13.9258 15.7428C13.9258 15.7304 13.9258 15.7179 13.9258 15.7054C13.9258 15.693 13.9258 15.6805 13.9258 15.668C13.9258 15.6556 13.9258 15.6432 13.9258 15.6307C13.9258 15.6183 13.9258 15.6059 13.9258 15.5935C13.9258 15.5811 13.9258 15.5687 13.9258 15.5563C13.9258 15.5439 13.9258 15.5315 13.9258 15.5191C13.9258 15.5068 13.9258 15.4944 13.9258 15.4821C13.9258 15.4697 13.9258 15.4574 13.9258 15.4451C13.9258 15.4327 13.9258 15.4204 13.9258 15.4081C13.9258 15.3958 13.9258 15.3835 13.9258 15.3712C13.9258 15.3589 13.9258 15.3467 13.9258 15.3344C13.9258 15.3221 13.9258 15.3099 13.9258 15.2976C13.9258 15.2854 13.9258 15.2731 13.9258 15.2609C13.9258 15.2487 13.9258 15.2365 13.9258 15.2243C13.9258 15.2121 13.9258 15.1999 13.9258 15.1877C13.9258 15.1755 13.9258 15.1634 13.9258 15.1512C13.9258 15.1391 13.9258 15.1269 13.9258 15.1148C13.9258 15.1026 13.9258 15.0905 13.9258 15.0784C13.9258 15.0663 13.9258 15.0542 13.9258 15.0421C13.9258 15.03 13.9258 15.0179 13.9258 15.0059C13.9258 14.9938 13.9258 14.9817 13.9258 14.9697C13.9258 14.9576 13.9258 14.9456 13.9258 14.9336C13.9258 14.9216 13.9258 14.9096 13.9258 14.8976C13.9258 14.8856 13.9258 14.8736 13.9258 14.8616C13.9258 14.8496 13.9258 14.8377 13.9258 14.8257C13.9258 14.8138 13.9258 14.8018 13.9258 14.7899C13.9258 14.778 13.9258 14.766 13.9258 14.7541C13.9258 14.7422 13.9258 14.7303 13.9258 14.7185C13.9258 14.7066 13.9258 14.6947 13.9258 14.6829C13.9258 14.671 13.9258 14.6592 13.9258 14.6473C13.9258 14.6355 13.9258 14.6237 13.9258 14.6119C13.9258 14.6001 13.9258 14.5883 13.9258 14.5765C13.9258 14.5647 13.9258 14.553 13.9258 14.5412C13.9258 14.5294 13.9258 14.5177 13.9258 14.506C13.9258 14.4942 13.9258 14.4825 13.9258 14.4708C13.9258 14.4591 13.9258 14.4474 13.9258 14.4358C13.9258 14.4241 13.9258 14.4124 13.9258 14.4008C13.9258 14.3891 13.9258 14.3775 13.9258 14.3658C13.9258 14.3542 13.9258 14.3426 13.9258 14.331C13.9258 14.3194 13.9258 14.3078 13.9258 14.2962C13.9258 14.2847 13.9258 14.2731 13.9258 14.2616C13.9258 14.25 13.9258 14.2385 13.9258 14.2269C13.9258 14.2154 13.9258 14.2039 13.9258 14.1924C13.9258 14.1809 13.9258 14.1695 13.9258 14.158C13.9258 14.1465 13.9258 14.1351 13.9258 14.1236C13.9258 14.1122 13.9258 14.1008 13.9258 14.0894C13.9258 14.0779 13.9258 14.0666 13.9258 14.0552C13.9258 14.0438 13.9258 14.0324 13.9258 14.0211C13.9258 14.0097 13.9258 13.9984 13.9258 13.987C13.9258 13.9757 13.9258 13.9644 13.9258 13.9531C13.9258 13.9418 13.9258 13.9305 13.9258 13.9192C13.9258 13.908 13.9258 13.8967 13.9258 13.8855C13.9258 13.8742 13.9258 13.863 13.9258 13.8518C13.9258 13.8406 13.9258 13.8294 13.9258 13.8182C13.9258 13.807 13.9258 13.7959 13.9258 13.7847C13.9258 13.7735 13.9258 13.7624 13.9258 13.7513C13.9258 13.7402 13.9258 13.729 13.9258 13.718C13.9258 13.7069 13.9258 13.6958 13.9258 13.6847C13.9258 13.6736 13.9258 13.6626 13.9258 13.6516C13.9258 13.6405 13.9258 13.6295 13.9258 13.6185C13.9258 13.6075 13.9258 13.5965 13.9258 13.5855C13.9258 13.5746 13.9258 13.5636 13.9258 13.5527C13.9258 13.5417 13.9258 13.5308 13.9258 13.5199C13.9258 13.509 13.9258 13.4981 13.9258 13.4872C13.9258 13.4763 13.9258 13.4654 13.9258 13.4546C13.9258 13.4437 13.9258 13.4329 13.9258 13.4221C13.9258 13.4113 13.9258 13.4005 13.9258 13.3897C13.9258 13.3789 13.9258 13.3681 13.9258 13.3574C13.9258 13.3466 13.9258 13.3359 13.9258 13.3251C13.9258 13.3144 13.9258 13.3037 13.9258 13.293C13.9258 13.2823 13.9258 13.2716 13.9258 13.261C13.9258 13.2503 13.9258 13.2397 13.9258 13.2291C13.9258 13.2184 13.9258 13.2078 13.9258 13.1972C13.9258 13.1866 13.9258 13.176 13.9258 13.1655C13.9258 13.1549 13.9258 13.1444 13.9258 13.1339C13.9258 13.1233 13.9258 13.1128 13.9258 13.1023C13.9258 13.0918 13.9258 13.0813 13.9258 13.0709C13.9258 13.0604 13.9258 13.05 13.9258 13.0396C13.9258 13.0291 13.9258 13.0187 13.9258 13.0083C13.9258 12.9979 13.9258 12.9875 13.9258 12.9772C13.9258 12.9668 13.9258 12.9565 13.9258 12.9462C13.9258 12.9358 13.9258 12.9255 13.9258 12.9152C13.9258 12.9049 13.9258 12.8947 13.9258 12.8844C13.9258 12.8742 13.9258 12.8639 13.9258 12.8537C13.9258 12.8435 13.9258 12.8333 13.9258 12.8231C13.9258 12.8129 13.9258 12.8027 13.9258 12.7926C13.9258 12.7824 13.9258 12.7723 13.9258 12.7622C13.9258 12.7521 13.9258 12.742 13.9258 12.7319C13.9258 12.7218 13.9258 12.7117 13.9258 12.7017C13.9258 12.6916 13.9258 12.6816 13.9258 12.6716C13.9258 12.6616 13.9258 12.6516 13.9258 12.6416C13.9258 12.6317 13.9258 12.6217 13.9258 12.6118C13.9258 12.6018 13.9258 12.5919 13.9258 12.582C13.9258 12.5721 13.9258 12.5622 13.9258 12.5524C13.9258 12.5425 13.9258 12.5326 13.9258 12.5228C13.9258 12.513 13.9258 12.5032 13.9258 12.4934C13.9258 12.4836 13.9258 12.4738 13.9258 12.4641C13.9258 12.4543 13.9258 12.4446 13.9258 12.4349C13.9258 12.4252 13.9258 12.4155 13.9258 12.4058C13.9258 12.3961 13.9258 12.3865 13.9258 12.3768C13.9258 12.3672 13.9258 12.3576 13.9258 12.3479C13.9258 12.3383 13.9258 12.3288 13.9258 12.3192C13.9258 12.3096 13.9258 12.3001 13.9258 12.2906C13.9258 12.281 13.9258 12.2715 13.9258 12.262C13.9258 12.2526 13.9258 12.2431 13.9258 12.2336C13.9258 12.2242 13.9258 12.2148 13.9258 12.2054C13.9258 12.1959 13.9258 12.1866 13.9258 12.1772C13.9258 12.1678 13.9258 12.1585 13.9258 12.1491C13.9258 12.1398 13.9258 12.1305 13.9258 12.1212C13.9258 12.1119 13.9258 12.1026 13.9258 12.0934C13.9258 12.0841 13.9258 12.0749 13.9258 12.0657C13.9258 12.0565 13.9258 12.0473 13.9258 12.0381C13.9258 12.0289 13.9258 12.0198 13.9258 12.0107C13.9258 12.0015 13.9258 11.9924 13.9258 11.9833H12.4258C12.4258 11.9924 12.4258 12.0015 12.4258 12.0107C12.4258 12.0198 12.4258 12.0289 12.4258 12.0381C12.4258 12.0473 12.4258 12.0565 12.4258 12.0657C12.4258 12.0749 12.4258 12.0841 12.4258 12.0934C12.4258 12.1026 12.4258 12.1119 12.4258 12.1212C12.4258 12.1305 12.4258 12.1398 12.4258 12.1491C12.4258 12.1585 12.4258 12.1678 12.4258 12.1772C12.4258 12.1866 12.4258 12.1959 12.4258 12.2054C12.4258 12.2148 12.4258 12.2242 12.4258 12.2336C12.4258 12.2431 12.4258 12.2526 12.4258 12.262C12.4258 12.2715 12.4258 12.281 12.4258 12.2906C12.4258 12.3001 12.4258 12.3096 12.4258 12.3192C12.4258 12.3288 12.4258 12.3383 12.4258 12.3479C12.4258 12.3576 12.4258 12.3672 12.4258 12.3768C12.4258 12.3865 12.4258 12.3961 12.4258 12.4058C12.4258 12.4155 12.4258 12.4252 12.4258 12.4349C12.4258 12.4446 12.4258 12.4543 12.4258 12.4641C12.4258 12.4738 12.4258 12.4836 12.4258 12.4934C12.4258 12.5032 12.4258 12.513 12.4258 12.5228C12.4258 12.5326 12.4258 12.5425 12.4258 12.5524C12.4258 12.5622 12.4258 12.5721 12.4258 12.582C12.4258 12.5919 12.4258 12.6018 12.4258 12.6118C12.4258 12.6217 12.4258 12.6317 12.4258 12.6416C12.4258 12.6516 12.4258 12.6616 12.4258 12.6716C12.4258 12.6816 12.4258 12.6916 12.4258 12.7017C12.4258 12.7117 12.4258 12.7218 12.4258 12.7319C12.4258 12.742 12.4258 12.7521 12.4258 12.7622C12.4258 12.7723 12.4258 12.7824 12.4258 12.7926C12.4258 12.8027 12.4258 12.8129 12.4258 12.8231C12.4258 12.8333 12.4258 12.8435 12.4258 12.8537C12.4258 12.8639 12.4258 12.8742 12.4258 12.8844C12.4258 12.8947 12.4258 12.9049 12.4258 12.9152C12.4258 12.9255 12.4258 12.9358 12.4258 12.9462C12.4258 12.9565 12.4258 12.9668 12.4258 12.9772C12.4258 12.9875 12.4258 12.9979 12.4258 13.0083C12.4258 13.0187 12.4258 13.0291 12.4258 13.0396C12.4258 13.05 12.4258 13.0604 12.4258 13.0709C12.4258 13.0813 12.4258 13.0918 12.4258 13.1023C12.4258 13.1128 12.4258 13.1233 12.4258 13.1339C12.4258 13.1444 12.4258 13.1549 12.4258 13.1655C12.4258 13.176 12.4258 13.1866 12.4258 13.1972C12.4258 13.2078 12.4258 13.2184 12.4258 13.2291C12.4258 13.2397 12.4258 13.2503 12.4258 13.261C12.4258 13.2716 12.4258 13.2823 12.4258 13.293C12.4258 13.3037 12.4258 13.3144 12.4258 13.3251C12.4258 13.3359 12.4258 13.3466 12.4258 13.3574C12.4258 13.3681 12.4258 13.3789 12.4258 13.3897C12.4258 13.4005 12.4258 13.4113 12.4258 13.4221C12.4258 13.4329 12.4258 13.4437 12.4258 13.4546C12.4258 13.4654 12.4258 13.4763 12.4258 13.4872C12.4258 13.4981 12.4258 13.509 12.4258 13.5199C12.4258 13.5308 12.4258 13.5417 12.4258 13.5527C12.4258 13.5636 12.4258 13.5746 12.4258 13.5855C12.4258 13.5965 12.4258 13.6075 12.4258 13.6185C12.4258 13.6295 12.4258 13.6405 12.4258 13.6516C12.4258 13.6626 12.4258 13.6736 12.4258 13.6847C12.4258 13.6958 12.4258 13.7069 12.4258 13.718C12.4258 13.729 12.4258 13.7402 12.4258 13.7513C12.4258 13.7624 12.4258 13.7735 12.4258 13.7847C12.4258 13.7959 12.4258 13.807 12.4258 13.8182C12.4258 13.8294 12.4258 13.8406 12.4258 13.8518C12.4258 13.863 12.4258 13.8742 12.4258 13.8855C12.4258 13.8967 12.4258 13.908 12.4258 13.9192C12.4258 13.9305 12.4258 13.9418 12.4258 13.9531C12.4258 13.9644 12.4258 13.9757 12.4258 13.987C12.4258 13.9984 12.4258 14.0097 12.4258 14.0211C12.4258 14.0324 12.4258 14.0438 12.4258 14.0552C12.4258 14.0666 12.4258 14.0779 12.4258 14.0894C12.4258 14.1008 12.4258 14.1122 12.4258 14.1236C12.4258 14.1351 12.4258 14.1465 12.4258 14.158C12.4258 14.1695 12.4258 14.1809 12.4258 14.1924C12.4258 14.2039 12.4258 14.2154 12.4258 14.2269C12.4258 14.2385 12.4258 14.25 12.4258 14.2616C12.4258 14.2731 12.4258 14.2847 12.4258 14.2962C12.4258 14.3078 12.4258 14.3194 12.4258 14.331C12.4258 14.3426 12.4258 14.3542 12.4258 14.3658C12.4258 14.3775 12.4258 14.3891 12.4258 14.4008C12.4258 14.4124 12.4258 14.4241 12.4258 14.4358C12.4258 14.4474 12.4258 14.4591 12.4258 14.4708C12.4258 14.4825 12.4258 14.4942 12.4258 14.506C12.4258 14.5177 12.4258 14.5294 12.4258 14.5412C12.4258 14.553 12.4258 14.5647 12.4258 14.5765C12.4258 14.5883 12.4258 14.6001 12.4258 14.6119C12.4258 14.6237 12.4258 14.6355 12.4258 14.6473C12.4258 14.6592 12.4258 14.671 12.4258 14.6829C12.4258 14.6947 12.4258 14.7066 12.4258 14.7185C12.4258 14.7303 12.4258 14.7422 12.4258 14.7541C12.4258 14.766 12.4258 14.778 12.4258 14.7899C12.4258 14.8018 12.4258 14.8138 12.4258 14.8257C12.4258 14.8377 12.4258 14.8496 12.4258 14.8616C12.4258 14.8736 12.4258 14.8856 12.4258 14.8976C12.4258 14.9096 12.4258 14.9216 12.4258 14.9336C12.4258 14.9456 12.4258 14.9576 12.4258 14.9697C12.4258 14.9817 12.4258 14.9938 12.4258 15.0059C12.4258 15.0179 12.4258 15.03 12.4258 15.0421C12.4258 15.0542 12.4258 15.0663 12.4258 15.0784C12.4258 15.0905 12.4258 15.1026 12.4258 15.1148C12.4258 15.1269 12.4258 15.1391 12.4258 15.1512C12.4258 15.1634 12.4258 15.1755 12.4258 15.1877C12.4258 15.1999 12.4258 15.2121 12.4258 15.2243C12.4258 15.2365 12.4258 15.2487 12.4258 15.2609C12.4258 15.2731 12.4258 15.2854 12.4258 15.2976C12.4258 15.3099 12.4258 15.3221 12.4258 15.3344C12.4258 15.3467 12.4258 15.3589 12.4258 15.3712C12.4258 15.3835 12.4258 15.3958 12.4258 15.4081C12.4258 15.4204 12.4258 15.4327 12.4258 15.4451C12.4258 15.4574 12.4258 15.4697 12.4258 15.4821C12.4258 15.4944 12.4258 15.5068 12.4258 15.5191C12.4258 15.5315 12.4258 15.5439 12.4258 15.5563C12.4258 15.5687 12.4258 15.5811 12.4258 15.5935C12.4258 15.6059 12.4258 15.6183 12.4258 15.6307C12.4258 15.6432 12.4258 15.6556 12.4258 15.668C12.4258 15.6805 12.4258 15.693 12.4258 15.7054C12.4258 15.7179 12.4258 15.7304 12.4258 15.7428C12.4258 15.7553 12.4258 15.7678 12.4258 15.7803C12.4258 15.7928 12.4258 15.8054 12.4258 15.8179C12.4258 15.8304 12.4258 15.8429 12.4258 15.8555C12.4258 15.868 12.4258 15.8806 12.4258 15.8931C12.4258 15.9057 12.4258 15.9183 12.4258 15.9308C12.4258 15.9434 12.4258 15.956 12.4258 15.9686C12.4258 15.9812 12.4258 15.9938 12.4258 16.0064C12.4258 16.019 12.4258 16.0317 12.4258 16.0443C12.4258 16.0569 12.4258 16.0696 12.4258 16.0822C12.4258 16.0949 12.4258 16.1075 12.4258 16.1202C12.4258 16.1329 12.4258 16.1455 12.4258 16.1582C12.4258 16.1709 12.4258 16.1836 12.4258 16.1963C12.4258 16.209 12.4258 16.2217 12.4258 16.2344C12.4258 16.2471 12.4258 16.2599 12.4258 16.2726C12.4258 16.2853 12.4258 16.2981 12.4258 16.3108C12.4258 16.3236 12.4258 16.3363 12.4258 16.3491C12.4258 16.3619 12.4258 16.3746 12.4258 16.3874C12.4258 16.4002 12.4258 16.413 12.4258 16.4258C12.4258 16.4386 12.4258 16.4514 12.4258 16.4642C12.4258 16.477 12.4258 16.4899 12.4258 16.5027C12.4258 16.5155 12.4258 16.5284 12.4258 16.5412C12.4258 16.554 12.4258 16.5669 12.4258 16.5798C12.4258 16.5926 12.4258 16.6055 12.4258 16.6184C12.4258 16.6312 12.4258 16.6441 12.4258 16.657C12.4258 16.6699 12.4258 16.6828 12.4258 16.6957C12.4258 16.7086 12.4258 16.7215 12.4258 16.7344C12.4258 16.7473 12.4258 16.7603 12.4258 16.7732C12.4258 16.7861 12.4258 16.7991 12.4258 16.812C12.4258 16.8249 12.4258 16.8379 12.4258 16.8509C12.4258 16.8638 12.4258 16.8768 12.4258 16.8898C12.4258 16.9027 12.4258 16.9157 12.4258 16.9287C12.4258 16.9417 12.4258 16.9547 12.4258 16.9677C12.4258 16.9807 12.4258 16.9937 12.4258 17.0067C12.4258 17.0197 12.4258 17.0327 12.4258 17.0457C12.4258 17.0588 12.4258 17.0718 12.4258 17.0848C12.4258 17.0979 12.4258 17.1109 12.4258 17.124C12.4258 17.137 12.4258 17.1501 12.4258 17.1631C12.4258 17.1762 12.4258 17.1893 12.4258 17.2023C12.4258 17.2154 12.4258 17.2285 12.4258 17.2416C12.4258 17.2547 12.4258 17.2677 12.4258 17.2808C12.4258 17.2939 12.4258 17.307 12.4258 17.3201C12.4258 17.3333 12.4258 17.3464 12.4258 17.3595C12.4258 17.3726 12.4258 17.3857 12.4258 17.3989C12.4258 17.412 12.4258 17.4251 12.4258 17.4383C12.4258 17.4514 12.4258 17.4646 12.4258 17.4777C12.4258 17.4909 12.4258 17.504 12.4258 17.5172C12.4258 17.5303 12.4258 17.5435 12.4258 17.5567C12.4258 17.5699 12.4258 17.583 12.4258 17.5962C12.4258 17.6094 12.4258 17.6226 12.4258 17.6358C12.4258 17.649 12.4258 17.6622 12.4258 17.6754C12.4258 17.6886 12.4258 17.7018 12.4258 17.715C12.4258 17.7282 12.4258 17.7414 12.4258 17.7546C12.4258 17.7679 12.4258 17.7811 12.4258 17.7943C12.4258 17.8076 12.4258 17.8208 12.4258 17.834C12.4258 17.8473 12.4258 17.8605 12.4258 17.8738C12.4258 17.887 12.4258 17.9003 12.4258 17.9135C12.4258 17.9268 12.4258 17.94 12.4258 17.9533C12.4258 17.9666 12.4258 17.9798 12.4258 17.9931C12.4258 18.0064 12.4258 18.0197 12.4258 18.0329C12.4258 18.0462 12.4258 18.0595 12.4258 18.0728C12.4258 18.0861 12.4258 18.0994 12.4258 18.1127C12.4258 18.126 12.4258 18.1393 12.4258 18.1526C12.4258 18.1659 12.4258 18.1792 12.4258 18.1925C12.4258 18.2058 12.4258 18.2191 12.4258 18.2324C12.4258 18.2458 12.4258 18.2591 12.4258 18.2724C12.4258 18.2857 12.4258 18.2991 12.4258 18.3124C12.4258 18.3257 12.4258 18.3391 12.4258 18.3524C12.4258 18.3657 12.4258 18.3791 12.4258 18.3924C12.4258 18.4058 12.4258 18.4191 12.4258 18.4325C12.4258 18.4458 12.4258 18.4592 12.4258 18.4725C12.4258 18.4859 12.4258 18.4992 12.4258 18.5126C12.4258 18.526 12.4258 18.5393 12.4258 18.5527C12.4258 18.5661 12.4258 18.5794 12.4258 18.5928C12.4258 18.6062 12.4258 18.6196 12.4258 18.6329C12.4258 18.6463 12.4258 18.6597 12.4258 18.6731C12.4258 18.6865 12.4258 18.6999 12.4258 18.7133C12.4258 18.7266 12.4258 18.74 12.4258 18.7534C12.4258 18.7668 12.4258 18.7802 12.4258 18.7936C12.4258 18.807 12.4258 18.8204 12.4258 18.8338C12.4258 18.8472 12.4258 18.8606 12.4258 18.874C12.4258 18.8874 12.4258 18.9008 12.4258 18.9142C12.4258 18.9277 12.4258 18.9411 12.4258 18.9545C12.4258 18.9679 12.4258 18.9813 12.4258 18.9947C12.4258 19.0081 12.4258 19.0216 12.4258 19.035C12.4258 19.0484 12.4258 19.0618 12.4258 19.0752C12.4258 19.0887 12.4258 19.1021 12.4258 19.1155C12.4258 19.1289 12.4258 19.1424 12.4258 19.1558C12.4258 19.1692 12.4258 19.1827 12.4258 19.1961C12.4258 19.2095 12.4258 19.223 12.4258 19.2364C12.4258 19.2498 12.4258 19.2633 12.4258 19.2767C12.4258 19.2901 12.4258 19.3036 12.4258 19.317C12.4258 19.3304 12.4258 19.3439 12.4258 19.3573C12.4258 19.3708 12.4258 19.3842 12.4258 19.3976C12.4258 19.4111 12.4258 19.4245 12.4258 19.438C12.4258 19.4514 12.4258 19.4649 12.4258 19.4783C12.4258 19.4918 12.4258 19.5052 12.4258 19.5186C12.4258 19.5321 12.4258 19.5455 12.4258 19.559C12.4258 19.5724 12.4258 19.5859 12.4258 19.5993C12.4258 19.6128 12.4258 19.6262 12.4258 19.6397C12.4258 19.6531 12.4258 19.6665 12.4258 19.68C12.4258 19.6934 12.4258 19.7069 12.4258 19.7203C12.4258 19.7338 12.4258 19.7472 12.4258 19.7607C12.4258 19.7741 12.4258 19.7876 12.4258 19.801C12.4258 19.8145 12.4258 19.8279 12.4258 19.8414C12.4258 19.8548 12.4258 19.8683 12.4258 19.8817C12.4258 19.8951 12.4258 19.9086 12.4258 19.922C12.4258 19.9355 12.4258 19.9489 12.4258 19.9624C12.4258 19.9758 12.4258 19.9893 12.4258 20.0027C12.4258 20.0161 12.4258 20.0296 12.4258 20.043C12.4258 20.0565 12.4258 20.0699 12.4258 20.0834C12.4258 20.0968 12.4258 20.1102 12.4258 20.1237C12.4258 20.1371 12.4258 20.1505 12.4258 20.164C12.4258 20.1774 12.4258 20.1909 12.4258 20.2043C12.4258 20.2177 12.4258 20.2312 12.4258 20.2446C12.4258 20.258 12.4258 20.2714 12.4258 20.2849C12.4258 20.2983 12.4258 20.3117 12.4258 20.3252C12.4258 20.3386 12.4258 20.352 12.4258 20.3654C12.4258 20.3789 12.4258 20.3923 12.4258 20.4057C12.4258 20.4191 12.4258 20.4325 12.4258 20.446C12.4258 20.4594 12.4258 20.4728 12.4258 20.4862C12.4258 20.4996 12.4258 20.513 12.4258 20.5264C12.4258 20.5398 12.4258 20.5533 12.4258 20.5667C12.4258 20.5801 12.4258 20.5935 12.4258 20.6069C12.4258 20.6203 12.4258 20.6337 12.4258 20.6471C12.4258 20.6605 12.4258 20.6739 12.4258 20.6873C12.4258 20.7006 12.4258 20.714 12.4258 20.7274C12.4258 20.7408 12.4258 20.7542 12.4258 20.7676C12.4258 20.781 12.4258 20.7943 12.4258 20.8077C12.4258 20.8211 12.4258 20.8345 12.4258 20.8479C12.4258 20.8612 12.4258 20.8746 12.4258 20.888C12.4258 20.9013 12.4258 20.9147 12.4258 20.9281C12.4258 20.9414 12.4258 20.9548 12.4258 20.9681C12.4258 20.9815 12.4258 20.9949 12.4258 21.0082C12.4258 21.0216 12.4258 21.0349 12.4258 21.0483C12.4258 21.0616 12.4258 21.0749 12.4258 21.0883C12.4258 21.1016 12.4258 21.115 12.4258 21.1283C12.4258 21.1416 12.4258 21.1549 12.4258 21.1683C12.4258 21.1816 12.4258 21.1949 12.4258 21.2082C12.4258 21.2216 12.4258 21.2349 12.4258 21.2482C12.4258 21.2615 12.4258 21.2748 12.4258 21.2881C12.4258 21.3014 12.4258 21.3147 12.4258 21.328C12.4258 21.3413 12.4258 21.3546 12.4258 21.3679C12.4258 21.3812 12.4258 21.3945 12.4258 21.4077C12.4258 21.421 12.4258 21.4343 12.4258 21.4476C12.4258 21.4608 12.4258 21.4741 12.4258 21.4874C12.4258 21.5006 12.4258 21.5139 12.4258 21.5272C12.4258 21.5404 12.4258 21.5537 12.4258 21.5669C12.4258 21.5802 12.4258 21.5934 12.4258 21.6066C12.4258 21.6199 12.4258 21.6331 12.4258 21.6463C12.4258 21.6596 12.4258 21.6728 12.4258 21.686C12.4258 21.6992 12.4258 21.7125 12.4258 21.7257C12.4258 21.7389 12.4258 21.7521 12.4258 21.7653C12.4258 21.7785 12.4258 21.7917 12.4258 21.8049C12.4258 21.8181 12.4258 21.8313 12.4258 21.8445C12.4258 21.8576 12.4258 21.8708 12.4258 21.884C12.4258 21.8972 12.4258 21.9103 12.4258 21.9235C12.4258 21.9367 12.4258 21.9498 12.4258 21.963C12.4258 21.9761 12.4258 21.9893 12.4258 22.0024C12.4258 22.0155 12.4258 22.0287 12.4258 22.0418C12.4258 22.0549 12.4258 22.0681 12.4258 22.0812C12.4258 22.0943 12.4258 22.1074 12.4258 22.1205C12.4258 22.1336 12.4258 22.1467 12.4258 22.1598C12.4258 22.1729 12.4258 22.186 12.4258 22.1991C12.4258 22.2122 12.4258 22.2253 12.4258 22.2383C12.4258 22.2514 12.4258 22.2645 12.4258 22.2775C12.4258 22.2906 12.4258 22.3037 12.4258 22.3167C12.4258 22.3298 12.4258 22.3428 12.4258 22.3558C12.4258 22.3689 12.4258 22.3819 12.4258 22.3949C12.4258 22.408 12.4258 22.421 12.4258 22.434C12.4258 22.447 12.4258 22.46 12.4258 22.473C12.4258 22.486 12.4258 22.499 12.4258 22.512C12.4258 22.525 12.4258 22.5379 12.4258 22.5509C12.4258 22.5639 12.4258 22.5769 12.4258 22.5898C12.4258 22.6028 12.4258 22.6157 12.4258 22.6287C12.4258 22.6416 12.4258 22.6545 12.4258 22.6675C12.4258 22.6804 12.4258 22.6933 12.4258 22.7063C12.4258 22.7192 12.4258 22.7321 12.4258 22.745C12.4258 22.7579 12.4258 22.7708 12.4258 22.7837C12.4258 22.7966 12.4258 22.8094 12.4258 22.8223C12.4258 22.8352 12.4258 22.8481 12.4258 22.8609C12.4258 22.8738 12.4258 22.8866 12.4258 22.8995C12.4258 22.9123 12.4258 22.9251 12.4258 22.938C12.4258 22.9508 12.4258 22.9636 12.4258 22.9764C12.4258 22.9893 12.4258 23.0021 12.4258 23.0149C12.4258 23.0277 12.4258 23.0405 12.4258 23.0532C12.4258 23.066 12.4258 23.0788 12.4258 23.0916C12.4258 23.1043 12.4258 23.1171 12.4258 23.1298C12.4258 23.1426 12.4258 23.1553 12.4258 23.1681C12.4258 23.1808 12.4258 23.1935 12.4258 23.2062C12.4258 23.219 12.4258 23.2317 12.4258 23.2444C12.4258 23.2571 12.4258 23.2698 12.4258 23.2824C12.4258 23.2951 12.4258 23.3078 12.4258 23.3205C12.4258 23.3331 12.4258 23.3458 12.4258 23.3584C12.4258 23.3711 12.4258 23.3837 12.4258 23.3964C12.4258 23.409 12.4258 23.4216 12.4258 23.4342C12.4258 23.4468 12.4258 23.4595 12.4258 23.4721C12.4258 23.4846 12.4258 23.4972 12.4258 23.5098C12.4258 23.5224 12.4258 23.535 12.4258 23.5475C12.4258 23.5601 12.4258 23.5726 12.4258 23.5852C12.4258 23.5977 12.4258 23.6103 12.4258 23.6228C12.4258 23.6353 12.4258 23.6478 12.4258 23.6603C12.4258 23.6728 12.4258 23.6853 12.4258 23.6978C12.4258 23.7103 12.4258 23.7228 12.4258 23.7352C12.4258 23.7477 12.4258 23.7602 12.4258 23.7726C12.4258 23.7851 12.4258 23.7975 12.4258 23.8099C12.4258 23.8223 12.4258 23.8348 12.4258 23.8472C12.4258 23.8596 12.4258 23.872 12.4258 23.8844C12.4258 23.8968 12.4258 23.9091 12.4258 23.9215C12.4258 23.9339 12.4258 23.9462 12.4258 23.9586C12.4258 23.9709 12.4258 23.9833 12.4258 23.9956C12.4258 24.0079 12.4258 24.0202 12.4258 24.0325C12.4258 24.0449 12.4258 24.0571 12.4258 24.0694C12.4258 24.0817 12.4258 24.094 12.4258 24.1063C12.4258 24.1185 12.4258 24.1308 12.4258 24.143C12.4258 24.1553 12.4258 24.1675 12.4258 24.1797C12.4258 24.1919 12.4258 24.2042 12.4258 24.2164C12.4258 24.2286 12.4258 24.2408 12.4258 24.2529C12.4258 24.2651 12.4258 24.2773 12.4258 24.2894C12.4258 24.3016 12.4258 24.3137 12.4258 24.3259C12.4258 24.338 12.4258 24.3501 12.4258 24.3622C12.4258 24.3744 12.4258 24.3865 12.4258 24.3986C12.4258 24.4106 12.4258 24.4227 12.4258 24.4348C12.4258 24.4469 12.4258 24.4589 12.4258 24.471C12.4258 24.483 12.4258 24.495 12.4258 24.5071C12.4258 24.5191 12.4258 24.5311 12.4258 24.5431C12.4258 24.5551 12.4258 24.5671 12.4258 24.579C12.4258 24.591 12.4258 24.603 12.4258 24.6149C12.4258 24.6269 12.4258 24.6388 12.4258 24.6508C12.4258 24.6627 12.4258 24.6746 12.4258 24.6865C12.4258 24.6984 12.4258 24.7103 12.4258 24.7222C12.4258 24.734 12.4258 24.7459 12.4258 24.7578C12.4258 24.7696 12.4258 24.7815 12.4258 24.7933C12.4258 24.8051 12.4258 24.8169 12.4258 24.8288C12.4258 24.8406 12.4258 24.8523 12.4258 24.8641C12.4258 24.8759 12.4258 24.8877 12.4258 24.8994C12.4258 24.9112 12.4258 24.9229 12.4258 24.9347C12.4258 24.9464 12.4258 24.9581 12.4258 24.9698C12.4258 24.9815 12.4258 24.9932 12.4258 25.0049C12.4258 25.0166 12.4258 25.0282 12.4258 25.0399C12.4258 25.0515 12.4258 25.0632 12.4258 25.0748C12.4258 25.0864 12.4258 25.098 12.4258 25.1096C12.4258 25.1212 12.4258 25.1328 12.4258 25.1444C12.4258 25.156 12.4258 25.1675 12.4258 25.1791C12.4258 25.1906 12.4258 25.2022 12.4258 25.2137C12.4258 25.2252 12.4258 25.2367 12.4258 25.2482C12.4258 25.2597 12.4258 25.2712 12.4258 25.2826C12.4258 25.2941 12.4258 25.3056 12.4258 25.317C12.4258 25.3284 12.4258 25.3399 12.4258 25.3513C12.4258 25.3627 12.4258 25.3741 12.4258 25.3855C12.4258 25.3968 12.4258 25.4082 12.4258 25.4196C12.4258 25.4309 12.4258 25.4423 12.4258 25.4536C12.4258 25.4649 12.4258 25.4762 12.4258 25.4875C12.4258 25.4988 12.4258 25.5101 12.4258 25.5214C12.4258 25.5326 12.4258 25.5439 12.4258 25.5551C12.4258 25.5664 12.4258 25.5776 12.4258 25.5888C12.4258 25.6 12.4258 25.6112 12.4258 25.6224C12.4258 25.6336 12.4258 25.6448 12.4258 25.6559C12.4258 25.6671 12.4258 25.6782 12.4258 25.6893C12.4258 25.7005 12.4258 25.7116 12.4258 25.7227C12.4258 25.7338 12.4258 25.7448 12.4258 25.7559C12.4258 25.767 12.4258 25.778 12.4258 25.7891C12.4258 25.8001 12.4258 25.8111 12.4258 25.8221C12.4258 25.8331 12.4258 25.8441 12.4258 25.8551C12.4258 25.8661 12.4258 25.877 12.4258 25.888C12.4258 25.8989 12.4258 25.9098 12.4258 25.9207C12.4258 25.9317 12.4258 25.9426 12.4258 25.9534C12.4258 25.9643 12.4258 25.9752 12.4258 25.986C12.4258 25.9969 12.4258 26.0077 12.4258 26.0185C12.4258 26.0294 12.4258 26.0402 12.4258 26.0509C12.4258 26.0617 12.4258 26.0725 12.4258 26.0833C12.4258 26.094 12.4258 26.1048 12.4258 26.1155C12.4258 26.1262 12.4258 26.1369 12.4258 26.1476C12.4258 26.1583 12.4258 26.169 12.4258 26.1796C12.4258 26.1903 12.4258 26.2009 12.4258 26.2116C12.4258 26.2222 12.4258 26.2328 12.4258 26.2434C12.4258 26.254 12.4258 26.2646 12.4258 26.2751C12.4258 26.2857 12.4258 26.2962 12.4258 26.3068C12.4258 26.3173 12.4258 26.3278 12.4258 26.3383C12.4258 26.3488 12.4258 26.3593 12.4258 26.3697C12.4258 26.3802 12.4258 26.3906 12.4258 26.4011C12.4258 26.4115 12.4258 26.4219 12.4258 26.4323C12.4258 26.4427 12.4258 26.4531 12.4258 26.4634C12.4258 26.4738 12.4258 26.4841 12.4258 26.4944C12.4258 26.5048 12.4258 26.5151 12.4258 26.5254C12.4258 26.5357 12.4258 26.5459 12.4258 26.5562C12.4258 26.5664 12.4258 26.5767 12.4258 26.5869C12.4258 26.5971 12.4258 26.6073 12.4258 26.6175C12.4258 26.6277 12.4258 26.6379 12.4258 26.648C12.4258 26.6582 12.4258 26.6683 12.4258 26.6784C12.4258 26.6885 12.4258 26.6986 12.4258 26.7087C12.4258 26.7188 12.4258 26.7289 12.4258 26.7389C12.4258 26.749 12.4258 26.759 12.4258 26.769C12.4258 26.779 12.4258 26.789 12.4258 26.799C12.4258 26.8089 12.4258 26.8189 12.4258 26.8288C12.4258 26.8388 12.4258 26.8487 12.4258 26.8586C12.4258 26.8685 12.4258 26.8784 12.4258 26.8882C12.4258 26.8981 12.4258 26.9079 12.4258 26.9178C12.4258 26.9276 12.4258 26.9374 12.4258 26.9472C12.4258 26.957 12.4258 26.9668 12.4258 26.9765C12.4258 26.9863 12.4258 26.996 12.4258 27.0057C12.4258 27.0154 12.4258 27.0251 12.4258 27.0348C12.4258 27.0445 12.4258 27.0541 12.4258 27.0638C12.4258 27.0734 12.4258 27.083 12.4258 27.0926C12.4258 27.1022 12.4258 27.1118 12.4258 27.1214C12.4258 27.1309 12.4258 27.1405 12.4258 27.15C12.4258 27.1595 12.4258 27.169 12.4258 27.1785C12.4258 27.188 12.4258 27.1975 12.4258 27.2069C12.4258 27.2164 12.4258 27.2258 12.4258 27.2352C12.4258 27.2446 12.4258 27.254 12.4258 27.2634C12.4258 27.2728 12.4258 27.2821 12.4258 27.2914C12.4258 27.3008 12.4258 27.3101 12.4258 27.3194C12.4258 27.3287 12.4258 27.3379 12.4258 27.3472C12.4258 27.3564 12.4258 27.3657 12.4258 27.3749C12.4258 27.3841 12.4258 27.3933 12.4258 27.4025C12.4258 27.4116 12.4258 27.4208 12.4258 27.4299C12.4258 27.439 12.4258 27.4481 12.4258 27.4572C12.4258 27.4663 12.4258 27.4754 12.4258 27.4844C12.4258 27.4935 12.4258 27.5025 12.4258 27.5115C12.4258 27.5205 12.4258 27.5295 12.4258 27.5385C12.4258 27.5475 12.4258 27.5564 12.4258 27.5653C12.4258 27.5743 12.4258 27.5832 12.4258 27.5921C12.4258 27.601 12.4258 27.6098 12.4258 27.6187C12.4258 27.6275 12.4258 27.6363 12.4258 27.6451C12.4258 27.6539 12.4258 27.6627 12.4258 27.6715C12.4258 27.6802 12.4258 27.689 12.4258 27.6977C12.4258 27.7064 12.4258 27.7151 12.4258 27.7238C12.4258 27.7325 12.4258 27.7411 12.4258 27.7497C12.4258 27.7584 12.4258 27.767 12.4258 27.7756C12.4258 27.7842 12.4258 27.7927 12.4258 27.8013C12.4258 27.8098 12.4258 27.8184 12.4258 27.8269C12.4258 27.8354 12.4258 27.8439 12.4258 27.8523C12.4258 27.8608 12.4258 27.8692 12.4258 27.8776C12.4258 27.8861 12.4258 27.8945 12.4258 27.9028C12.4258 27.9112 12.4258 27.9196 12.4258 27.9279C12.4258 27.9362 12.4258 27.9445 12.4258 27.9528C12.4258 27.9611 12.4258 27.9694 12.4258 27.9776C12.4258 27.9859 12.4258 27.9941 12.4258 28.0023C12.4258 28.0105 12.4258 28.0186 12.4258 28.0268C12.4258 28.035 12.4258 28.0431 12.4258 28.0512C12.4258 28.0593 12.4258 28.0674 12.4258 28.0755C12.4258 28.0835 12.4258 28.0916 12.4258 28.0996C12.4258 28.1076 12.4258 28.1156 12.4258 28.1236C12.4258 28.1315 12.4258 28.1395 12.4258 28.1474C12.4258 28.1553 12.4258 28.1632 12.4258 28.1711C12.4258 28.179 12.4258 28.1869 12.4258 28.1947C12.4258 28.2025 12.4258 28.2104 12.4258 28.2181C12.4258 28.2259 12.4258 28.2337 12.4258 28.2414C12.4258 28.2492 12.4258 28.2569 12.4258 28.2646C12.4258 28.2723 12.4258 28.28 12.4258 28.2876C12.4258 28.2953 12.4258 28.3029 12.4258 28.3105C12.4258 28.3181 12.4258 28.3257 12.4258 28.3333C12.4258 28.3408 12.4258 28.3483 12.4258 28.3559C12.4258 28.3634 12.4258 28.3708 12.4258 28.3783C12.4258 28.3858 12.4258 28.3932 12.4258 28.4006C12.4258 28.408 12.4258 28.4154 12.4258 28.4228C12.4258 28.4302 12.4258 28.4375 12.4258 28.4448C12.4258 28.4521 12.4258 28.4594 12.4258 28.4667C12.4258 28.474 12.4258 28.4812 12.4258 28.4884C12.4258 28.4957 12.4258 28.5029 12.4258 28.51C12.4258 28.5172 12.4258 28.5244 12.4258 28.5315C12.4258 28.5386 12.4258 28.5457 12.4258 28.5528C12.4258 28.5599 12.4258 28.5669 12.4258 28.5739C12.4258 28.581 12.4258 28.588 12.4258 28.595C12.4258 28.6019 12.4258 28.6089 12.4258 28.6158C12.4258 28.6227 12.4258 28.6296 12.4258 28.6365C12.4258 28.6434 12.4258 28.6503 12.4258 28.6571C12.4258 28.6639 12.4258 28.6707 12.4258 28.6775C12.4258 28.6843 12.4258 28.691 12.4258 28.6978C12.4258 28.7045 12.4258 28.7112 12.4258 28.7179C12.4258 28.7245 12.4258 28.7312 12.4258 28.7378C12.4258 28.7445 12.4258 28.7511 12.4258 28.7576C12.4258 28.7642 12.4258 28.7708 12.4258 28.7773C12.4258 28.7838 12.4258 28.7903 12.4258 28.7968C12.4258 28.8033 12.4258 28.8097 12.4258 28.8161C12.4258 28.8226 12.4258 28.829 12.4258 28.8353C12.4258 28.8417 12.4258 28.848 12.4258 28.8544C12.4258 28.8607 12.4258 28.867 12.4258 28.8732C12.4258 28.8795 12.4258 28.8858 12.4258 28.892C12.4258 28.8982 12.4258 28.9044 12.4258 28.9105C12.4258 28.9167 12.4258 28.9228 12.4258 28.9289C12.4258 28.9351 12.4258 28.9411 12.4258 28.9472C12.4258 28.9533 12.4258 28.9593 12.4258 28.9653C12.4258 28.9713 12.4258 28.9773 12.4258 28.9832C12.4258 28.9892 12.4258 28.9951 12.4258 29.001C12.4258 29.0069 12.4258 29.0128 12.4258 29.0186C12.4258 29.0245 12.4258 29.0303 12.4258 29.0361C12.4258 29.0419 12.4258 29.0476 12.4258 29.0534C12.4258 29.0591 12.4258 29.0648 12.4258 29.0705C12.4258 29.0762 12.4258 29.0819 12.4258 29.0875C12.4258 29.0931 12.4258 29.0987 12.4258 29.1043C12.4258 29.1099 12.4258 29.1154 12.4258 29.1209C12.4258 29.1265 12.4258 29.132 12.4258 29.1374C12.4258 29.1429 12.4258 29.1483 12.4258 29.1537C12.4258 29.1591 12.4258 29.1645 12.4258 29.1699C12.4258 29.1752 12.4258 29.1806 12.4258 29.1859C12.4258 29.1912 12.4258 29.1964 12.4258 29.2017C12.4258 29.2069 12.4258 29.2122 12.4258 29.2173C12.4258 29.2225 12.4258 29.2277 12.4258 29.2328H13.9258ZM13.8591 12.2924C14.0065 11.9667 14.2148 11.6152 14.461 11.3256C14.7128 11.0296 14.9619 10.8474 15.1797 10.7751C15.3612 10.7148 15.5662 10.7123 15.8401 10.8832C16.1461 11.0741 16.5527 11.4949 17.012 12.3411L18.3304 11.6256C17.8089 10.6647 17.2483 9.99372 16.634 9.61049C15.9874 9.20719 15.3189 9.14829 14.7069 9.35152C14.1312 9.54273 13.6668 9.94409 13.3183 10.3539C12.9643 10.7702 12.6857 11.247 12.4924 11.6743L13.8591 12.2924ZM16.9212 11.9833V22.2509H18.4212V11.9833H16.9212ZM18.4212 22.2509V5.41207H16.9212V22.2509H18.4212ZM18.3152 5.79654C18.6865 5.17463 19.2909 4.55391 19.8914 4.39017C20.1567 4.31784 20.4334 4.32936 20.7426 4.49476C21.071 4.67043 21.4836 5.0466 21.9313 5.79654L23.2192 5.0276C22.6862 4.13473 22.0975 3.51837 21.4502 3.17211C20.7837 2.81558 20.1102 2.77576 19.4968 2.943C18.3401 3.25842 17.4733 4.2805 17.0272 5.0276L18.3152 5.79654ZM21.8253 5.41207V21.0187H23.3253V5.41207H21.8253ZM23.3253 21.0187V3.35847H21.8253V21.0187H23.3253ZM23.2364 3.71268C23.4501 3.31376 23.7427 2.88008 24.08 2.51888C24.4236 2.15091 24.7703 1.90445 25.0843 1.803C25.3622 1.71317 25.6374 1.72559 25.9522 1.93275C26.3024 2.16326 26.745 2.66659 27.2065 3.67148L28.5696 3.04546C28.0503 1.9147 27.4575 1.12774 26.7767 0.679732C26.0605 0.208377 25.3088 0.154058 24.623 0.375676C23.9732 0.585672 23.4191 1.02886 22.9837 1.49512C22.5419 1.96816 22.1772 2.51332 21.9142 3.00426L23.2364 3.71268ZM27.138 3.35847V5.41207H28.638V3.35847H27.138ZM27.138 5.41207V18.6603H28.638V5.41207H27.138ZM28.532 5.79655C28.8945 5.18945 29.5143 4.56257 30.1779 4.39342C30.483 4.31568 30.8175 4.32746 31.1945 4.50914C31.5856 4.69761 32.0618 5.08905 32.5854 5.84075L33.8162 4.98339C33.1955 4.09236 32.5376 3.4913 31.8457 3.15786C31.1397 2.81763 30.4424 2.77807 29.8075 2.93989C28.5912 3.24988 27.699 4.26574 27.2441 5.02759L28.532 5.79655ZM32.4508 5.41207V16.9116H33.9508V5.41207H32.4508ZM32.4508 16.9116V24.3042H33.9508V16.9116H32.4508ZM33.8377 17.3077C34.1256 16.8447 34.6195 16.371 35.1444 16.2442C35.3845 16.1862 35.6497 16.1945 35.9522 16.3317C36.2658 16.474 36.6569 16.7729 37.0951 17.3601L38.2973 16.463C37.7547 15.736 37.1786 15.2409 36.5719 14.9657C35.954 14.6853 35.3457 14.6525 34.7922 14.7861C33.7301 15.0427 32.9571 15.8833 32.5639 16.5155L33.8377 17.3077ZM36.9462 16.9116V29.2328H38.4462V16.9116H36.9462ZM36.9616 29.0816C36.5553 31.0553 35.8754 34.0115 35.1577 36.4664C34.7977 37.6979 34.4355 38.7776 34.1014 39.5392C33.9325 39.9243 33.7859 40.1927 33.6692 40.353C33.6107 40.4334 33.5796 40.4587 33.5807 40.4578C33.5832 40.4559 33.6031 40.4409 33.6406 40.4256C33.6798 40.4097 33.7392 40.3932 33.8138 40.3932V41.8932C34.1075 41.8932 34.3394 41.7663 34.4933 41.6483C34.6486 41.5292 34.777 41.38 34.8821 41.2355C35.0927 40.9461 35.2902 40.5631 35.4751 40.1418C35.8485 39.2905 36.2321 38.137 36.5975 36.8873C37.3306 34.3795 38.0198 31.3804 38.4308 29.3841L36.9616 29.0816ZM20.4777 24.0133C17.6824 25.8862 15.3971 31.1828 19.0855 36.8631L20.3436 36.0462C17.0982 31.0482 19.2039 26.6723 21.3126 25.2595L20.4777 24.0133ZM19.0855 36.8631C19.4809 37.4719 20.2133 38.0407 21.0807 38.4887C21.9668 38.9464 23.067 39.3163 24.276 39.4813C26.7033 39.8125 29.6109 39.3196 32.0795 37.0013L31.0527 35.9079C28.973 37.8609 26.5452 38.2771 24.4789 37.9951C23.4411 37.8534 22.505 37.5361 21.769 37.1559C21.0142 36.7661 20.5386 36.3464 20.3436 36.0462L19.0855 36.8631ZM32.1477 36.9281C33.4826 35.2885 35.413 30.9563 32.1477 26.9456L30.9845 27.8927C33.6041 31.1104 32.1016 34.6089 30.9845 35.9811L32.1477 36.9281ZM32.0556 26.8509C30.8891 25.8461 27.8135 24.6169 24.2314 26.7769L25.0059 28.0614C27.9626 26.2786 30.336 27.3494 31.0766 27.9874L32.0556 26.8509ZM24.087 26.8901C23.4653 27.515 22.7134 28.6136 22.4899 29.9213C22.2566 31.2861 22.6144 32.816 24.1234 34.1429L25.1139 33.0165C24.0074 32.0435 23.8203 31.0407 23.9684 30.174C24.1263 29.2502 24.6822 28.4185 25.1503 27.9482L24.087 26.8901ZM24.4492 34.3103C25.4142 34.5341 26.9747 34.6531 28.2852 34.3045C28.9449 34.129 29.6166 33.8149 30.0925 33.2588C30.5909 32.6766 30.8024 31.9136 30.6739 31.0099L29.1889 31.221C29.2647 31.7548 29.1357 32.0699 28.953 32.2834C28.7478 32.5231 28.3977 32.7224 27.8996 32.8549C26.8942 33.1223 25.594 33.036 24.7881 32.8491L24.4492 34.3103ZM30.6592 30.9344C30.4274 30.0024 29.8845 29.0194 28.8944 28.6118C27.8586 28.1854 26.6594 28.5141 25.4213 29.5056L26.3589 30.6764C27.3912 29.8497 28.0083 29.8692 28.3234 29.9989C28.6842 30.1474 29.0268 30.5858 29.2036 31.2965L30.6592 30.9344Z" fill="#29B384"/>
</svg>
