<svg width="53" height="52" viewBox="0 0 53 52" fill="none" xmlns="http://www.w3.org/2000/svg">
<path d="M35.5443 51.0002L35.1062 51.6089C35.3481 51.7831 35.6702 51.7974 35.9267 51.6454L35.5443 51.0002ZM52.087 41.1963L52.4693 41.8415C52.7388 41.6818 52.8807 41.3714 52.825 41.0631L52.087 41.1963ZM41.8694 17.1767L42.1404 16.4773C42.0834 16.4552 42.0238 16.4402 41.9631 16.4325L41.8694 17.1767ZM38.9501 20.1178L38.3722 20.5959C38.5983 20.8692 38.9849 20.9467 39.2989 20.7818C39.6129 20.6168 39.7685 20.2545 39.6717 19.9132L38.9501 20.1178ZM36.5174 17.1767L37.0953 16.6986C37.0416 16.6337 36.9774 16.5784 36.9054 16.5348L36.5174 17.1767ZM31.1653 20.1178L30.7273 20.7266C30.9467 20.8845 31.2341 20.9121 31.4795 20.7989C31.725 20.6856 31.8905 20.4491 31.9128 20.1797L31.1653 20.1178ZM24.8402 22.5688L24.2441 23.0239C24.4448 23.2868 24.7941 23.3872 25.1038 23.271C25.4134 23.1547 25.6104 22.8494 25.5886 22.5193L24.8402 22.5688ZM15.1099 9.82372L15.7061 9.3686C15.653 9.29915 15.5883 9.2395 15.5147 9.19234L15.1099 9.82372ZM9.27134 13.2551L8.52501 13.3292C8.53736 13.4536 8.58063 13.573 8.65089 13.6764L9.27134 13.2551ZM21.3012 32.3039C21.5339 32.6466 22.0003 32.7357 22.343 32.503C22.6856 32.2703 22.7748 31.8038 22.5421 31.4612L21.3012 32.3039ZM18.934 32.5051C19.2778 32.2742 19.3693 31.8082 19.1384 31.4644C18.9074 31.1205 18.4415 31.029 18.0976 31.2599L18.934 32.5051ZM18.5158 38.7453L18.0154 39.304C18.0353 39.3218 18.0561 39.3385 18.0777 39.354L18.5158 38.7453ZM8.26384 15.8143C8.59432 15.5645 8.65979 15.0942 8.41007 14.7637C8.16036 14.4332 7.69002 14.3678 7.35954 14.6175L8.26384 15.8143ZM3.46715 17.5587C3.13667 17.8084 3.0712 18.2787 3.32091 18.6092C3.57063 18.9397 4.04097 19.0051 4.37145 18.7554L3.46715 17.5587ZM6.35204 10.5737C6.76626 10.5737 7.10204 10.2379 7.10204 9.82372C7.10204 9.4095 6.76626 9.07372 6.35204 9.07372V10.5737ZM1 9.07372C0.585786 9.07372 0.25 9.4095 0.25 9.82372C0.25 10.2379 0.585786 10.5737 1 10.5737V9.07372ZM7.23377 7.36056C7.49777 7.67974 7.97053 7.72446 8.28971 7.46046C8.60889 7.19646 8.65362 6.72369 8.38962 6.40452L7.23377 7.36056ZM5.95687 3.46334C5.69286 3.14416 5.2201 3.09943 4.90092 3.36344C4.58174 3.62744 4.53702 4.1002 4.80102 4.41938L5.95687 3.46334ZM11.4406 4.92175C11.4406 5.33597 11.7764 5.67175 12.1906 5.67175C12.6048 5.67175 12.9406 5.33597 12.9406 4.92175H11.4406ZM12.9406 1.00018C12.9406 0.58597 12.6048 0.250183 12.1906 0.250183C11.7764 0.250183 11.4406 0.58597 11.4406 1.00018H12.9406ZM15.9441 6.46866C15.7155 6.8141 15.8103 7.27942 16.1557 7.508C16.5011 7.73658 16.9665 7.64185 17.195 7.29641L15.9441 6.46866ZM19.1412 4.35523C19.3698 4.0098 19.2751 3.54447 18.9297 3.31589C18.5842 3.08732 18.1189 3.18205 17.8903 3.52748L19.1412 4.35523ZM35.9267 51.6454L52.4693 41.8415L51.7046 40.5511L35.1619 50.355L35.9267 51.6454ZM52.825 41.0631C52.1712 37.4399 50.8724 31.882 49.0944 26.9704C48.206 24.5162 47.1884 22.1964 46.0574 20.3536C44.9437 18.539 43.6446 17.0602 42.1404 16.4773L41.5984 17.876C42.6243 18.2735 43.7052 19.3886 44.779 21.1382C45.8354 22.8595 46.8127 25.074 47.684 27.481C49.4254 32.2916 50.7053 37.7631 51.3489 41.3295L52.825 41.0631ZM41.9631 16.4325C41.2379 16.3412 40.1109 16.3764 39.2359 16.9193C38.7755 17.2049 38.3805 17.636 38.1822 18.245C37.9875 18.843 38.0063 19.5387 38.2286 20.3225L39.6717 19.9132C39.5047 19.3245 39.5316 18.9458 39.6085 18.7094C39.6819 18.4841 39.8221 18.3208 40.0267 18.1938C40.4816 17.9116 41.2035 17.8487 41.7757 17.9208L41.9631 16.4325ZM39.5281 19.6398L37.0953 16.6986L35.9395 17.6547L38.3722 20.5959L39.5281 19.6398ZM36.9054 16.5348C36.0235 16.0018 34.5681 15.4472 33.1985 15.787C32.4831 15.9645 31.82 16.3814 31.3194 17.1107C30.8293 17.8247 30.522 18.7971 30.4179 20.056L31.9128 20.1797C32.0033 19.0857 32.2596 18.3914 32.5561 17.9596C32.842 17.5431 33.1885 17.335 33.5598 17.2429C34.3635 17.0434 35.3894 17.3712 36.1294 17.8185L36.9054 16.5348ZM31.6034 19.5091C30.9987 19.0739 30.246 18.6249 29.4547 18.2927C28.6737 17.9649 27.7952 17.7254 26.9599 17.7761C26.0881 17.829 25.2569 18.2038 24.7097 19.0758C24.1913 19.9018 23.9899 21.0781 24.0918 22.6183L25.5886 22.5193C25.4959 21.1183 25.704 20.3134 25.9803 19.8731C26.2278 19.4787 26.5765 19.3021 27.0508 19.2733C27.5616 19.2423 28.1955 19.3909 28.8741 19.6758C29.5424 19.9564 30.1967 20.3447 30.7273 20.7266L31.6034 19.5091ZM25.4363 22.1137L15.7061 9.3686L14.5138 10.2788L24.2441 23.0239L25.4363 22.1137ZM15.5147 9.19234C14.4677 8.52108 12.662 8.09375 11.1243 8.5537C10.3272 8.79211 9.58143 9.27723 9.08466 10.1037C8.59315 10.9214 8.39253 11.9945 8.52501 13.3292L10.0177 13.181C9.90687 12.0647 10.0914 11.3404 10.3703 10.8765C10.6439 10.4213 11.0537 10.1405 11.5541 9.99079C12.6112 9.6746 13.9681 9.98256 14.7051 10.4551L15.5147 9.19234ZM8.65089 13.6764L21.3012 32.3039L22.5421 31.4612L9.89179 12.8337L8.65089 13.6764ZM18.0976 31.2599C17.2655 31.8188 16.2299 32.8973 15.9211 34.3491C15.5969 35.8733 16.1144 37.6015 18.0154 39.304L19.0161 38.1866C17.414 36.7518 17.2016 35.5388 17.3883 34.6611C17.5904 33.7109 18.3064 32.9267 18.934 32.5051L18.0976 31.2599ZM18.0777 39.354L35.1062 51.6089L35.9824 50.3914L18.9539 38.1365L18.0777 39.354ZM7.35954 14.6175L3.46715 17.5587L4.37145 18.7554L8.26384 15.8143L7.35954 14.6175ZM6.35204 9.07372H1V10.5737H6.35204V9.07372ZM8.38962 6.40452L5.95687 3.46334L4.80102 4.41938L7.23377 7.36056L8.38962 6.40452ZM12.9406 4.92175V1.00018H11.4406V4.92175H12.9406ZM17.195 7.29641L19.1412 4.35523L17.8903 3.52748L15.9441 6.46866L17.195 7.29641Z" fill="#29B384"/>
</svg>
