<svg width="52" height="52" viewBox="0 0 52 52" fill="none" xmlns="http://www.w3.org/2000/svg">
<path d="M2.30773 33.9014L1.7822 33.3663C1.67005 33.4765 1.59534 33.6191 1.56863 33.774L2.30773 33.9014ZM35.1005 1.69427L34.9534 0.958838C34.8104 0.987426 34.6789 1.05705 34.5749 1.15919L35.1005 1.69427ZM49.7401 16.9195L50.2704 17.4498C50.3828 17.3374 50.4565 17.1923 50.4811 17.0353L49.7401 16.9195ZM16.3618 50.2978L16.3876 51.0474C16.5775 51.0408 16.7578 50.9625 16.8921 50.8282L16.3618 50.2978ZM10.5062 25.8493L11.0318 26.3844L10.5062 25.8493ZM1.13688 16.9195L0.392014 17.0071C0.412441 17.1807 0.492881 17.3418 0.619434 17.4624L1.13688 16.9195ZM17.5332 1.69427L18.022 1.12543C17.9335 1.04935 17.8284 0.994982 17.7151 0.966667L17.5332 1.69427ZM26.903 9.74539L27.4285 10.2805L26.903 9.74539ZM49.7401 33.9014L50.3985 33.5422C50.3683 33.487 50.3313 33.4357 50.2884 33.3897L49.7401 33.9014ZM35.1005 48.541L34.6679 49.1537C34.7379 49.2031 34.8158 49.2401 34.8982 49.2632L35.1005 48.541ZM25.1462 41.5134L24.6159 40.983L25.1462 41.5134ZM28.6597 8.02L28.1342 7.48492L28.6597 8.02ZM36.9097 17.4463C37.2007 17.7411 37.6755 17.7442 37.9703 17.4533C38.2651 17.1623 38.2682 16.6874 37.9773 16.3926L36.9097 17.4463ZM40.3162 18.1459C40.0233 17.853 39.5484 17.853 39.2555 18.1459C38.9626 18.4388 38.9626 18.9136 39.2555 19.2065L40.3162 18.1459ZM41.0122 20.9633C41.3051 21.2562 41.78 21.2562 42.0729 20.9633C42.3658 20.6704 42.3658 20.1955 42.0729 19.9026L41.0122 20.9633ZM11.6225 29.8576C11.3296 29.5647 10.8547 29.5647 10.5619 29.8576C10.269 30.1504 10.269 30.6253 10.5619 30.9182L11.6225 29.8576ZM12.3186 32.675C12.6115 32.9679 13.0864 32.9679 13.3793 32.675C13.6722 32.3821 13.6722 31.9072 13.3793 31.6143L12.3186 32.675ZM15.1529 33.3885C14.8696 33.0863 14.3949 33.071 14.0928 33.3543C13.7906 33.6375 13.7752 34.1122 14.0585 34.4144L15.1529 33.3885ZM17.5332 27.46L16.9727 26.9617C16.8923 27.0521 16.835 27.1606 16.8056 27.278L17.5332 27.46ZM26.903 16.9195L26.7022 16.1968C26.5632 16.2355 26.4383 16.3134 26.3424 16.4212L26.903 16.9195ZM35.6867 24.532L36.2312 25.0478C36.3339 24.9394 36.402 24.8027 36.4265 24.6553L35.6867 24.532ZM25.1462 35.6581L25.2338 36.403C25.4082 36.3825 25.5699 36.3014 25.6907 36.174L25.1462 35.6581ZM35.2475 2.42971C38.075 1.86422 42.0951 1.94453 45.0879 3.87621C46.5661 4.83035 47.8121 6.24581 48.5592 8.30709C49.3101 10.3789 49.571 13.1435 48.9991 16.8037L50.4811 17.0353C51.0803 13.1999 50.8289 10.1673 49.9694 7.79597C49.1061 5.41412 47.6438 3.74062 45.9013 2.61593C42.4526 0.38996 37.9818 0.353159 34.9534 0.958838L35.2475 2.42971ZM16.3359 49.5483C13.6172 49.642 9.71203 48.9592 6.79588 46.6768C3.94277 44.4437 1.91614 40.5868 3.04682 34.0289L1.56863 33.774C0.356976 40.8016 2.52703 45.2405 5.87136 47.858C9.15265 50.4262 13.4456 51.1488 16.3876 51.0474L16.3359 49.5483ZM2.83326 34.4365L11.0318 26.3844L9.9807 25.3142L1.7822 33.3663L2.83326 34.4365ZM11.0237 25.3064L1.65432 16.3766L0.619434 17.4624L9.98879 26.3922L11.0237 25.3064ZM1.88174 16.8318C1.50169 13.6014 1.86127 9.06721 4.04252 5.83199C5.11965 4.23439 6.64137 2.95013 8.76492 2.27343C10.8985 1.59354 13.6985 1.50867 17.3513 2.42188L17.7151 0.966667C13.8725 0.00598836 10.7776 0.057748 8.30949 0.844245C5.83131 1.63395 4.04448 3.14585 2.7988 4.99344C0.334409 8.64861 -0.00871956 13.6009 0.392014 17.0071L1.88174 16.8318ZM11.0318 26.3844L27.4285 10.2805L26.3774 9.2103L9.9807 25.3142L11.0318 26.3844ZM17.0445 2.26312L26.4142 10.3142L27.3918 9.17654L18.022 1.12543L17.0445 2.26312ZM49.2097 16.3891L41.0122 24.5867L42.0729 25.6473L50.2704 17.4498L49.2097 16.3891ZM40.9942 25.6287L49.1917 34.4131L50.2884 33.3897L42.0909 24.6053L40.9942 25.6287ZM49.0817 34.2606C50.713 37.2507 50.7092 41.634 48.606 44.7547C47.5663 46.2975 46.0082 47.5419 43.8491 48.1684C41.6819 48.7973 38.8639 48.8159 35.3027 47.8188L34.8982 49.2632C38.6568 50.3156 41.7679 50.3342 44.2672 49.609C46.7746 48.8814 48.6204 47.4174 49.8499 45.593C52.2852 41.9796 52.2814 36.9935 50.3985 33.5422L49.0817 34.2606ZM41.0122 24.5867L24.6159 40.983L25.6765 42.0437L42.0729 25.6473L41.0122 24.5867ZM35.533 47.9283L25.5788 40.9007L24.7137 42.1261L34.6679 49.1537L35.533 47.9283ZM27.4285 10.2805L29.1852 8.55509L28.1342 7.48492L26.3774 9.2103L27.4285 10.2805ZM29.1852 8.55509L35.626 2.22936L34.5749 1.15919L28.1342 7.48492L29.1852 8.55509ZM28.1259 8.54685L36.9097 17.4463L37.9773 16.3926L29.1935 7.49315L28.1259 8.54685ZM39.2555 19.2065L41.0122 20.9633L42.0729 19.9026L40.3162 18.1459L39.2555 19.2065ZM10.5619 30.9182L12.3186 32.675L13.3793 31.6143L11.6225 29.8576L10.5619 30.9182ZM24.6159 40.983L22.8585 42.7404L23.9192 43.8011L25.6765 42.0437L24.6159 40.983ZM22.8585 42.7404L15.8314 49.7675L16.8921 50.8282L23.9192 43.8011L22.8585 42.7404ZM14.0585 34.4144L22.8417 43.7837L23.936 42.7578L15.1529 33.3885L14.0585 34.4144ZM18.0938 27.9582L27.4635 17.4178L26.3424 16.4212L16.9727 26.9617L18.0938 27.9582ZM27.1037 17.6421C28.7834 17.1755 31.112 17.0181 32.8027 17.8677C33.621 18.279 34.2979 18.928 34.7067 19.931C35.1217 20.9491 35.2834 22.39 34.9469 24.4087L36.4265 24.6553C36.7928 22.4579 36.647 20.7171 36.0958 19.3648C35.5384 17.9974 34.5903 17.0873 33.4762 16.5275C31.302 15.4349 28.536 15.6874 26.7022 16.1968L27.1037 17.6421ZM35.1423 24.0162L24.6017 35.1423L25.6907 36.174L36.2312 25.0478L35.1423 24.0162ZM25.0586 34.9133C23.4872 35.0981 21.3244 34.9142 19.8117 33.8944C19.0754 33.3979 18.4901 32.7034 18.18 31.7303C17.8667 30.7471 17.816 29.4208 18.2608 27.6419L16.8056 27.278C16.3134 29.2468 16.3309 30.868 16.7508 32.1857C17.1739 33.5135 17.9869 34.4732 18.9732 35.1381C20.9059 36.4411 23.4866 36.6085 25.2338 36.403L25.0586 34.9133Z" fill="#29B384"/>
<path d="M22.4033 30.0178C22.8718 29.5493 27.2832 24.7475 29.4303 22.4052" stroke="#29B384" stroke-width="1.5" stroke-linecap="round" stroke-linejoin="round"/>
</svg>
