<svg width="52" height="52" viewBox="0 0 52 52" fill="none" xmlns="http://www.w3.org/2000/svg">
<path d="M17.8269 51.0002H17.0769C17.0769 51.4144 17.4127 51.7502 17.8269 51.7502V51.0002ZM30.3269 42.781H31.0769C31.0769 42.6652 31.0501 42.5509 30.9985 42.4471L30.3269 42.781ZM26.4808 35.0454H25.7308C25.7308 35.1613 25.7576 35.2755 25.8092 35.3793L26.4808 35.0454ZM26.4808 17.6402L25.7948 17.337C25.7526 17.4325 25.7308 17.5358 25.7308 17.6402H26.4808ZM30.5385 26.3428C30.5385 26.757 30.8742 27.0928 31.2885 27.0928C31.7027 27.0928 32.0385 26.757 32.0385 26.3428H30.5385ZM31.2885 6.03673L30.6515 5.64083C30.5776 5.75967 30.5385 5.89681 30.5385 6.03673H31.2885ZM35.8269 21.0245C35.8269 21.4387 36.1627 21.7745 36.5769 21.7745C36.9911 21.7745 37.3269 21.4387 37.3269 21.0245H35.8269ZM36.5769 3.13582L35.9994 2.65728C35.8879 2.79182 35.8269 2.96108 35.8269 3.13582H36.5769ZM41.3846 3.13582H42.1346C42.1346 2.96108 42.0736 2.79182 41.9621 2.65728L41.3846 3.13582ZM40.6346 21.0245C40.6346 21.4387 40.9704 21.7745 41.3846 21.7745C41.7988 21.7745 42.1346 21.4387 42.1346 21.0245H40.6346ZM46.1923 5.06974H46.9423C46.9423 4.92982 46.9032 4.79269 46.8293 4.67385L46.1923 5.06974ZM45.4423 21.0245C45.4423 21.4387 45.7781 21.7745 46.1923 21.7745C46.6065 21.7745 46.9423 21.4387 46.9423 21.0245H45.4423ZM51 11.355H51.75C51.75 11.1993 51.7016 11.0475 51.6115 10.9207L51 11.355ZM51 34.5619L51.6793 34.8798C51.7259 34.7803 51.75 34.6718 51.75 34.5619H51ZM47.1538 42.781L46.4745 42.4632C46.428 42.5627 46.4038 42.6712 46.4038 42.781H47.1538ZM47.1538 51.0002V51.7502C47.5681 51.7502 47.9038 51.4144 47.9038 51.0002H47.1538ZM44.2692 48.3659C44.6834 48.3659 45.0192 48.0301 45.0192 47.6159C45.0192 47.2016 44.6834 46.8659 44.2692 46.8659V48.3659ZM38.9808 46.8659C38.5666 46.8659 38.2308 47.2016 38.2308 47.6159C38.2308 48.0301 38.5666 48.3659 38.9808 48.3659V46.8659ZM17.8269 44.2315H18.5769C18.5769 44.1104 18.5476 43.9911 18.4914 43.8837L17.8269 44.2315ZM13.0192 35.0454H12.2692C12.2692 35.1665 12.2986 35.2858 12.3547 35.3932L13.0192 35.0454ZM13.0192 17.6402L12.4078 17.2059C12.3176 17.3327 12.2692 17.4845 12.2692 17.6402H13.0192ZM17.0769 25.8593C17.0769 26.2735 17.4127 26.6093 17.8269 26.6093C18.2411 26.6093 18.5769 26.2735 18.5769 25.8593H17.0769ZM17.8269 6.03673L17.2018 5.62232C17.1204 5.74518 17.0769 5.88932 17.0769 6.03673H17.8269ZM22.3654 21.0245C22.3654 21.4387 22.7012 21.7745 23.1154 21.7745C23.5296 21.7745 23.8654 21.4387 23.8654 21.0245H22.3654ZM23.1154 3.13582L22.4438 2.80191C22.3922 2.90566 22.3654 3.01995 22.3654 3.13582H23.1154ZM27.6538 11.355C27.6538 11.7692 27.9896 12.105 28.4038 12.105C28.8181 12.105 29.1538 11.7692 29.1538 11.355H27.6538ZM32.54 3.46972C32.7244 3.84062 33.1745 3.9918 33.5454 3.80739C33.9163 3.62298 34.0675 3.17282 33.8831 2.80192L32.54 3.46972ZM9.65385 8.67116C9.23963 8.67116 8.90385 9.00695 8.90385 9.42116C8.90385 9.83537 9.23963 10.1712 9.65385 10.1712V8.67116ZM6.28846 10.1712C6.70267 10.1712 7.03846 9.83537 7.03846 9.42116C7.03846 9.00695 6.70267 8.67116 6.28846 8.67116V10.1712ZM1 8.67116C0.585786 8.67116 0.25 9.00695 0.25 9.42116C0.25 9.83537 0.585786 10.1712 1 10.1712V8.67116ZM1.48077 18.3407C1.06656 18.3407 0.730769 18.6765 0.730769 19.0907C0.730769 19.5049 1.06656 19.8407 1.48077 19.8407V18.3407ZM8.21154 26.3181C7.79732 26.3181 7.46154 26.6538 7.46154 27.0681C7.46154 27.4823 7.79732 27.8181 8.21154 27.8181V26.3181ZM5.80769 27.8181C6.22191 27.8181 6.55769 27.4823 6.55769 27.0681C6.55769 26.6538 6.22191 26.3181 5.80769 26.3181V27.8181ZM4.36538 26.3181C3.95117 26.3181 3.61538 26.6538 3.61538 27.0681C3.61538 27.4823 3.95117 27.8181 4.36538 27.8181V26.3181ZM8.69231 30.9607C9.10652 30.9607 9.44231 30.625 9.44231 30.2107C9.44231 29.7965 9.10652 29.4607 8.69231 29.4607V30.9607ZM1.48077 29.4607C1.06656 29.4607 0.730769 29.7965 0.730769 30.2107C0.730769 30.625 1.06656 30.9607 1.48077 30.9607V29.4607ZM4.84615 39.1799C5.26037 39.1799 5.59615 38.8441 5.59615 38.4299C5.59615 38.0157 5.26037 37.6799 4.84615 37.6799V39.1799ZM1 37.6799C0.585786 37.6799 0.25 38.0157 0.25 38.4299C0.25 38.8441 0.585786 39.1799 1 39.1799V37.6799ZM1.48077 41.0642C1.06656 41.0642 0.730769 41.4 0.730769 41.8142C0.730769 42.2284 1.06656 42.5642 1.48077 42.5642V41.0642ZM16.5618 41.8142L17.2263 41.4664L16.5618 41.8142ZM17.8269 51.7502H30.3269V50.2502H17.8269V51.7502ZM31.0769 51.0002V42.781H29.5769V51.0002H31.0769ZM30.9985 42.4471L27.1523 34.7115L25.8092 35.3793L29.6554 43.115L30.9985 42.4471ZM27.2308 35.0454V17.6402H25.7308V35.0454H27.2308ZM27.1668 17.9433C27.3016 17.6383 27.499 17.3079 27.7398 17.0354C27.9835 16.7598 28.237 16.5818 28.4781 16.5083C28.6943 16.4425 28.9559 16.4419 29.2957 16.6266C29.6582 16.8236 30.1247 17.242 30.6633 18.0546L31.9136 17.2258C31.2984 16.2978 30.6671 15.6646 30.0119 15.3086C29.3342 14.9404 28.6582 14.8854 28.0411 15.0734C27.4489 15.2538 26.9732 15.6378 26.6159 16.042C26.2558 16.4495 25.9805 16.9168 25.7948 17.337L27.1668 17.9433ZM30.5385 17.6402V26.3428H32.0385V17.6402H30.5385ZM32.0385 17.6402V6.03673H30.5385V17.6402H32.0385ZM31.9255 6.43262C32.2735 5.87254 32.8792 5.28258 33.544 5.12191C33.8539 5.04699 34.1961 5.05883 34.5797 5.23295C34.9745 5.41219 35.4509 5.78145 35.9757 6.48511L37.1781 5.58835C36.5491 4.74487 35.8877 4.1794 35.1998 3.86711C34.5006 3.5497 33.8151 3.51318 33.1916 3.66389C31.9893 3.95447 31.1047 4.91163 30.6515 5.64083L31.9255 6.43262ZM35.8269 6.03673V21.0245H37.3269V6.03673H35.8269ZM37.3269 6.03673V3.13582H35.8269V6.03673H37.3269ZM37.1544 3.61436C37.4842 3.21636 38.0651 2.76451 38.7047 2.63886C39.268 2.5282 40.0016 2.64233 40.8071 3.61436L41.9621 2.65728C40.8445 1.30858 39.575 0.939217 38.4155 1.167C37.3323 1.37979 36.4709 2.08831 35.9994 2.65728L37.1544 3.61436ZM40.6346 3.13582V5.06974H42.1346V3.13582H40.6346ZM40.6346 5.06974V21.0245H42.1346V5.06974H40.6346ZM42.0216 5.46564C42.3806 4.88809 42.9683 4.30585 43.5578 4.15144C43.8214 4.08241 44.0962 4.09414 44.3997 4.25013C44.7197 4.41455 45.1201 4.76544 45.5553 5.46564L46.8293 4.67385C46.3029 3.82691 45.7218 3.24308 45.0853 2.91597C44.4323 2.58041 43.7756 2.54381 43.1777 2.70039C42.0445 2.99723 41.19 3.96212 40.7476 4.67385L42.0216 5.46564ZM45.4423 5.06974V11.355H46.9423V5.06974H45.4423ZM45.4423 11.355V21.0245H46.9423V11.355H45.4423ZM46.8038 11.7893C47.1485 11.3039 47.7311 10.7879 48.343 10.6477C48.6277 10.5824 48.9253 10.5955 49.2426 10.7381C49.5687 10.8848 49.9631 11.1903 50.3885 11.7893L51.6115 10.9207C51.0753 10.1659 50.4882 9.65353 49.8577 9.37007C49.2185 9.08265 48.5846 9.05339 48.0079 9.18557C46.8971 9.44016 46.0374 10.2779 45.5809 10.9207L46.8038 11.7893ZM50.25 11.355V34.5619H51.75V11.355H50.25ZM50.3207 34.2441L46.4745 42.4632L47.8331 43.0989L51.6793 34.8798L50.3207 34.2441ZM46.4038 42.781V51.0002H47.9038V42.781H46.4038ZM47.1538 50.2502H30.3269V51.7502H47.1538V50.2502ZM44.2692 46.8659H38.9808V48.3659H44.2692V46.8659ZM18.5769 51.0002V44.2315H17.0769V51.0002H18.5769ZM13.6307 18.0745C13.9754 17.5891 14.558 17.0731 15.17 16.9329C15.4546 16.8676 15.7522 16.8807 16.0695 17.0233C16.3957 17.17 16.79 17.4755 17.2155 18.0745L18.4384 17.2059C17.9023 16.4511 17.3151 15.9387 16.6847 15.6553C16.0454 15.3678 15.4116 15.3386 14.8349 15.4708C13.7241 15.7254 12.8643 16.5631 12.4078 17.2059L13.6307 18.0745ZM17.0769 17.6402V25.8593H18.5769V17.6402H17.0769ZM18.452 6.45114C18.8939 5.78467 19.6036 5.09694 20.302 4.91259C20.6175 4.82932 20.9296 4.84715 21.256 5.02378C21.6001 5.21004 22.0212 5.60713 22.4589 6.3994L23.7719 5.67406C23.248 4.72581 22.6475 4.07134 21.97 3.70462C21.2747 3.32828 20.5652 3.29172 19.9192 3.46227C18.6944 3.78557 17.7215 4.83836 17.2018 5.62232L18.452 6.45114ZM22.3654 6.03673V21.0245H23.8654V6.03673H22.3654ZM23.8654 6.03673V3.13582H22.3654V6.03673H23.8654ZM23.787 3.46972C23.9607 3.12027 24.2079 2.74004 24.5031 2.42416C24.8021 2.1043 25.114 1.8889 25.4116 1.79898C25.6825 1.71715 25.9841 1.72407 26.3465 1.92973C26.7338 2.1495 27.2201 2.6155 27.7598 3.52009L29.0479 2.75154C28.4338 1.72221 27.7823 1.0198 27.0868 0.625151C26.3665 0.216391 25.6404 0.162878 24.9778 0.363079C24.3419 0.555185 23.8145 0.964283 23.4073 1.39986C22.9965 1.83942 22.6707 2.34556 22.4438 2.80191L23.787 3.46972ZM27.6538 3.13582V11.355H29.1538V3.13582H27.6538ZM28.8935 3.7039C29.401 3.26646 30.1952 2.77633 30.9317 2.64049C31.2875 2.57487 31.5857 2.59966 31.8282 2.7068C32.0605 2.80945 32.3165 3.02032 32.54 3.46972L33.8831 2.80192C33.5296 2.09095 33.0364 1.60076 32.4344 1.33476C31.8426 1.07324 31.2213 1.06177 30.6596 1.16537C29.5612 1.36797 28.5285 2.03821 27.9142 2.56774L28.8935 3.7039ZM18.5769 17.6402V9.42116H17.0769V17.6402H18.5769ZM18.5769 9.42116V6.03673H17.0769V9.42116H18.5769ZM9.65385 10.1712H17.8269V8.67116H9.65385V10.1712ZM6.28846 8.67116H1V10.1712H6.28846V8.67116ZM13.7692 19.0907V17.6402H12.2692V19.0907H13.7692ZM13.0192 18.3407H1.48077V19.8407H13.0192V18.3407ZM13.7692 35.0454V27.0681H12.2692V35.0454H13.7692ZM13.7692 27.0681V19.0907H12.2692V27.0681H13.7692ZM13.0192 26.3181H8.21154V27.8181H13.0192V26.3181ZM5.80769 26.3181H4.36538V27.8181H5.80769V26.3181ZM8.69231 29.4607H1.48077V30.9607H8.69231V29.4607ZM4.84615 37.6799H1V39.1799H4.84615V37.6799ZM18.4914 43.8837L17.2263 41.4664L15.8973 42.162L17.1624 44.5793L18.4914 43.8837ZM17.2263 41.4664L13.6837 34.6976L12.3547 35.3932L15.8973 42.162L17.2263 41.4664ZM1.48077 42.5642H16.5618V41.0642H1.48077V42.5642Z" fill="#29B384"/>
</svg>
