<svg width="52" height="50" viewBox="0 0 52 50" fill="none" xmlns="http://www.w3.org/2000/svg">
<path d="M1 20.4105L0.48393 19.8663C0.334583 20.0079 0.25 20.2047 0.25 20.4105C0.25 20.6163 0.334583 20.8131 0.48393 20.9547L1 20.4105ZM8.48031 13.3171V12.5671C8.28829 12.5671 8.10358 12.6407 7.96424 12.7728L8.48031 13.3171ZM20.685 13.3171L21.4172 13.4796C21.4665 13.2576 21.4124 13.0251 21.27 12.8477C21.1277 12.6703 20.9125 12.5671 20.685 12.5671V13.3171ZM19.8976 16.8638L19.1655 16.7012C19.1536 16.7546 19.1476 16.8091 19.1476 16.8638H19.8976ZM24.2283 18.046H24.9783C24.9783 17.6318 24.6426 17.296 24.2283 17.296V18.046ZM16.3543 18.046V17.296C16.1034 17.296 15.8692 17.4215 15.7301 17.6303L16.3543 18.046ZM14.7795 20.4105V21.1605C15.0304 21.1605 15.2647 21.0351 15.4037 20.8263L14.7795 20.4105ZM8.48031 19.6605C8.0661 19.6605 7.73031 19.9963 7.73031 20.4105C7.73031 20.8247 8.0661 21.1605 8.48031 21.1605V19.6605ZM19.8976 22.775V22.025C19.6772 22.025 19.4679 22.122 19.3254 22.2902C19.1829 22.4584 19.1216 22.6807 19.1578 22.8982L19.8976 22.775ZM20.685 27.5039V28.2539C20.9055 28.2539 21.1148 28.157 21.2573 27.9888C21.3998 27.8206 21.4611 27.5982 21.4249 27.3808L20.685 27.5039ZM8.48031 27.5039L7.96424 28.0482C8.10358 28.1803 8.28829 28.2539 8.48031 28.2539V27.5039ZM24.622 14.4993L23.9296 14.2111C23.8962 14.2913 23.877 14.3768 23.8729 14.4637L24.622 14.4993ZM28.9528 14.4993H29.7028C29.7028 14.3291 29.6449 14.164 29.5386 14.0311L28.9528 14.4993ZM28.2028 21.5928C28.2028 22.007 28.5385 22.3428 28.9528 22.3428C29.367 22.3428 29.7028 22.007 29.7028 21.5928H28.2028ZM28.9528 11.7408L28.3095 11.3552C28.2396 11.4717 28.2028 11.605 28.2028 11.7408H28.9528ZM32.9272 16.0756C32.9272 16.4898 33.263 16.8256 33.6772 16.8256C34.0914 16.8256 34.4272 16.4898 34.4272 16.0756H32.9272ZM36.8642 16.0756C36.8642 16.4898 37.2 16.8256 37.6142 16.8256C38.0284 16.8256 38.3642 16.4898 38.3642 16.0756H36.8642ZM41.9449 11.7408H42.6949C42.6949 11.6104 42.6609 11.4822 42.5962 11.369L41.9449 11.7408ZM41.1949 16.0756C41.1949 16.4898 41.5307 16.8256 41.9449 16.8256C42.3591 16.8256 42.6949 16.4898 42.6949 16.0756H41.1949ZM46.2756 12.9229H47.0256C47.0256 12.7608 46.973 12.603 46.8758 12.4732L46.2756 12.9229ZM43.9134 27.5039L43.2548 27.1451C43.1948 27.2552 43.1634 27.3786 43.1634 27.5039H43.9134ZM50.2126 23.169V23.919C50.4968 23.919 50.7565 23.7584 50.8835 23.5042L50.2126 23.169ZM50.2126 18.046L50.7432 17.5159C50.6025 17.3751 50.4116 17.296 50.2126 17.296V18.046ZM51 18.8341H51.75C51.75 18.6354 51.6711 18.4447 51.5306 18.3041L51 18.8341ZM51 21.5928L51.6709 21.928C51.7229 21.8239 51.75 21.7091 51.75 21.5928H51ZM28.5591 27.898H29.3091C29.3091 27.4838 28.9733 27.148 28.5591 27.148V27.898ZM46.2756 32.6269H47.0256C47.0256 32.343 46.8652 32.0833 46.6113 31.9563L46.2756 32.6269ZM46.2756 35.7796L46.8062 36.3097C46.9467 36.169 47.0256 35.9784 47.0256 35.7796H46.2756ZM45.0945 36.9618L45.1124 37.7116C45.3052 37.707 45.4888 37.6283 45.6251 37.4919L45.0945 36.9618ZM26.5906 35.7796H25.8406C25.8406 36.0073 25.944 36.2227 26.1218 36.365L26.5906 35.7796ZM26.5906 32.6269L26.2044 31.984C25.9787 32.1196 25.8406 32.3636 25.8406 32.6269H26.5906ZM28.0669 40.5085H27.3169C27.3169 40.9228 27.6527 41.2585 28.0669 41.2585V40.5085ZM43.9134 40.5085V41.2585C44.3276 41.2585 44.6634 40.9228 44.6634 40.5085H43.9134ZM1.51607 20.9547L8.99638 13.8613L7.96424 12.7728L0.48393 19.8663L1.51607 20.9547ZM8.48031 14.0671H20.685V12.5671H8.48031V14.0671ZM19.9529 13.1545L19.1655 16.7012L20.6298 17.0263L21.4172 13.4796L19.9529 13.1545ZM19.1476 16.8638V18.046H20.6476V16.8638H19.1476ZM19.8976 18.796H24.2283V17.296H19.8976V18.796ZM19.8976 17.296H16.3543V18.796H19.8976V17.296ZM15.7301 17.6303L14.1553 19.9948L15.4037 20.8263L16.9786 18.4618L15.7301 17.6303ZM14.7795 19.6605H8.48031V21.1605H14.7795V19.6605ZM23.4783 18.046V22.775H24.9783V18.046H23.4783ZM24.2283 22.025H19.8976V23.525H24.2283V22.025ZM19.1578 22.8982L19.9452 27.6271L21.4249 27.3808L20.6375 22.6518L19.1578 22.8982ZM20.685 26.7539H8.48031V28.2539H20.685V26.7539ZM8.99638 26.9597L1.51607 19.8663L0.48393 20.9547L7.96424 28.0482L8.99638 26.9597ZM24.9775 22.8106L25.3712 14.5349L23.8729 14.4637L23.4792 22.7393L24.9775 22.8106ZM25.3145 14.7875C25.5368 14.2534 25.9816 13.949 26.4888 13.9179C26.9972 13.8867 27.6964 14.1286 28.3669 14.9675L29.5386 14.0311C28.6344 12.8996 27.4963 12.3533 26.397 12.4207C25.2967 12.4881 24.3635 13.1689 23.9296 14.2111L25.3145 14.7875ZM28.2028 14.4993V21.5928H29.7028V14.4993H28.2028ZM29.7028 21.5928V11.7408H28.2028V21.5928H29.7028ZM29.596 12.1264C29.9519 11.5327 30.5292 10.9443 31.0981 10.7897C31.348 10.7219 31.6081 10.7325 31.8998 10.888C32.2104 11.0535 32.6044 11.4099 33.0339 12.1264L34.3204 11.3552C33.805 10.4954 33.2345 9.89945 32.6051 9.56414C31.9569 9.21876 31.3016 9.18016 30.705 9.34217C29.581 9.64742 28.741 10.6353 28.3095 11.3552L29.596 12.1264ZM32.9272 11.7408V16.0756H34.4272V11.7408H32.9272ZM34.3133 12.138C34.5992 11.6802 35.0561 11.2399 35.4904 11.1267C35.6767 11.0781 35.868 11.0856 36.0854 11.1968C36.3189 11.3162 36.6302 11.5811 36.978 12.138L38.2503 11.3436C37.8107 10.6395 37.3182 10.1425 36.7684 9.86131C36.2025 9.57186 35.631 9.53991 35.112 9.67522C34.1355 9.9298 33.4113 10.7505 33.041 11.3436L34.3133 12.138ZM36.8642 11.7408V16.0756H38.3642V11.7408H36.8642ZM38.3258 11.9777C38.3577 11.8818 38.4686 11.7147 38.7094 11.5464C38.941 11.3846 39.2423 11.2589 39.5632 11.212C40.1704 11.1232 40.8341 11.3079 41.2935 12.1126L42.5962 11.369C41.7958 9.96686 40.491 9.56041 39.3462 9.72776C38.7912 9.8089 38.2706 10.0231 37.8502 10.3169C37.4389 10.6043 37.0675 11.0087 36.9026 11.5038L38.3258 11.9777ZM41.1949 11.7408V12.9229H42.6949V11.7408H41.1949ZM41.1949 12.9229V16.0756H42.6949V12.9229H41.1949ZM42.5451 13.3727C42.9162 12.8774 43.3926 12.4302 43.8759 12.3114C44.0902 12.2587 44.324 12.2653 44.5975 12.3919C44.8848 12.5247 45.2521 12.8077 45.6754 13.3727L46.8758 12.4732C46.3542 11.7771 45.8061 11.2982 45.2273 11.0304C44.6346 10.7563 44.0515 10.7235 43.5178 10.8548C42.5051 11.1037 41.761 11.9176 41.3447 12.4732L42.5451 13.3727ZM45.564 22.9321C45.3756 23.498 45.0337 24.3912 44.6287 25.2113C44.4262 25.6215 44.2148 25.9991 44.0067 26.3035C43.7896 26.6209 43.6134 26.8025 43.4971 26.8801L44.3297 28.1278C44.6858 27.8902 44.9919 27.52 45.2448 27.1503C45.5066 26.7675 45.7529 26.3225 45.9737 25.8755C46.4152 24.9813 46.7819 24.0223 46.9872 23.406L45.564 22.9321ZM43.1634 27.5039V31.4447H44.6634V27.5039H43.1634ZM44.572 27.8628L46.9342 23.5279L45.617 22.8102L43.2548 27.1451L44.572 27.8628ZM50.2126 22.419H46.2756V23.919H50.2126V22.419ZM45.5256 12.9229V18.046H47.0256V12.9229H45.5256ZM45.5256 18.046V23.169H47.0256V18.046H45.5256ZM46.2756 18.796H50.2126V17.296H46.2756V18.796ZM49.682 18.5761L50.4694 19.3642L51.5306 18.3041L50.7432 17.5159L49.682 18.5761ZM50.25 18.8341V21.5928H51.75V18.8341H50.25ZM50.3291 21.2576L49.5417 22.8339L50.8835 23.5042L51.6709 21.928L50.3291 21.2576ZM23.6115 23.2016C24.2082 24.0643 25.1443 25.3605 26.0154 26.4462C26.4492 26.9869 26.8791 27.4908 27.2496 27.8652C27.4333 28.0508 27.6193 28.222 27.7961 28.352C27.8846 28.4171 27.9863 28.4835 28.0968 28.5362C28.1991 28.585 28.3621 28.648 28.5591 28.648V27.148C28.6226 27.148 28.6702 27.1585 28.6967 27.1659C28.7237 27.1734 28.7394 27.1808 28.7423 27.1822C28.7462 27.184 28.728 27.1754 28.685 27.1437C28.5988 27.0804 28.4754 26.9714 28.3158 26.8101C27.9998 26.4908 27.6078 26.0341 27.1854 25.5075C26.3439 24.4586 25.4296 23.1933 24.8452 22.3484L23.6115 23.2016ZM27.8091 27.898V31.4447H29.3091V27.898H27.8091ZM28.5591 32.1947H43.9134V30.6947H28.5591V32.1947ZM43.5777 32.1154L45.9399 33.2976L46.6113 31.9563L44.2491 30.774L43.5777 32.1154ZM45.5256 32.6269V35.7796H47.0256V32.6269H45.5256ZM45.745 35.2495L44.5639 36.4317L45.6251 37.4919L46.8062 36.3097L45.745 35.2495ZM27.3406 35.7796V32.6269H25.8406V35.7796H27.3406ZM26.9767 33.2699L28.9452 32.0877L28.1729 30.8017L26.2044 31.984L26.9767 33.2699ZM28.5357 36.3764L27.0593 35.1941L26.1218 36.365L27.5981 37.5473L28.5357 36.3764ZM27.3169 36.9618V40.5085H28.8169V36.9618H27.3169ZM28.0669 41.2585H43.9134V39.7585H28.0669V41.2585ZM45.0766 36.212L43.8955 36.2402L43.9313 37.7398L45.1124 37.7116L45.0766 36.212ZM43.9147 36.24L28.0683 36.2118L28.0656 37.7118L43.9121 37.74L43.9147 36.24ZM44.6634 40.5085V36.99H43.1634V40.5085H44.6634Z" fill="#29B384"/>
</svg>
