<svg width="50" height="54" viewBox="0 0 50 54" fill="none" xmlns="http://www.w3.org/2000/svg">
<path d="M34.9525 6.12519L34.9311 6.11805L34.9092 6.11222C31.6233 5.23263 28.5516 3.73347 25.8705 1.70239C25.5562 1.42311 25.1527 1.26459 24.7337 1.25058L24.7337 1.25047L24.7213 1.25026C24.2681 1.2426 23.8253 1.40258 23.4841 1.7032C20.8309 3.75009 17.7704 5.25077 14.491 6.11126L14.4664 6.11772L14.4423 6.12582C13.3113 6.50608 10.7046 7.0565 8.30334 7.51924C7.11496 7.74825 5.99532 7.95239 5.16303 8.09918C4.74678 8.17259 4.40352 8.23147 4.1602 8.27183C4.0382 8.29207 3.94328 8.30733 3.87761 8.31736C3.85591 8.32068 3.83868 8.32323 3.82551 8.32511H3.80996L3.75227 8.33415C3.34254 8.39834 2.96453 8.60138 2.68767 8.91361C2.41029 9.22644 2.25312 9.62842 2.25002 10.0489L2.25 10.0489V10.0544C2.25 26.1906 2.43425 33.9129 7.71184 41.7507C10.0089 45.1653 14.0208 47.8543 17.4345 49.6943C20.6722 51.4395 23.471 52.4721 23.9825 52.6608C24.0139 52.6724 24.0368 52.6808 24.0505 52.686L24.1158 52.7107L24.1846 52.7229C24.3629 52.7546 24.545 52.7585 24.7242 52.7345H25.0188H25.1559L25.2841 52.686C25.2988 52.6805 25.324 52.6712 25.3594 52.6582C25.8907 52.4631 28.6981 51.4319 31.9398 49.6952C35.3735 47.8557 39.4074 45.1666 41.7053 41.751C46.9831 33.9131 47.1673 26.1908 47.1673 10.0544L47.1673 10.0489C47.1642 9.62841 47.007 9.22644 46.7296 8.91361C46.4541 8.60286 46.0784 8.40027 45.6709 8.33507L45.6692 8.33479L45.6513 8.33173L45.5809 8.31962L45.3103 8.2728C45.0758 8.23204 44.7379 8.17288 44.3249 8.09938C43.4986 7.95235 42.3725 7.74807 41.1721 7.51899C38.746 7.05599 36.0937 6.50559 34.9525 6.12519ZM3.79261 8.32941C3.79285 8.32934 3.7961 8.32892 3.80163 8.32838C3.79513 8.32921 3.79236 8.32948 3.79261 8.32941ZM15.5851 9.62328L15.6075 9.61774L15.6295 9.61083C18.871 8.5936 21.9346 7.10854 24.7168 5.20622C27.5279 7.0559 30.6101 8.48792 33.8607 9.45426L33.8774 9.45922L33.8943 9.46341C37.1141 10.2599 40.3729 10.9007 43.6584 11.3834C43.5664 27.5703 43.0682 33.3028 38.7244 39.754L38.5965 39.944V40.0194C36.8764 42.458 33.8893 44.5698 31.0045 46.1864C28.3091 47.6969 25.7861 48.7301 24.6675 49.1628C23.5532 48.7306 21.0495 47.6977 18.3734 46.1875C15.4371 44.5305 12.3909 42.3524 10.6929 39.834C6.34972 33.3836 5.85085 27.6514 5.81854 11.5437C9.10492 11.0611 12.3645 10.4202 15.5851 9.62328Z" stroke="#29B384" stroke-width="1.5"/>
<path d="M25.0818 39.1272C31.4735 39.1272 36.6549 33.9458 36.6549 27.5541C36.6549 21.1625 31.4735 15.9811 25.0818 15.9811C18.6902 15.9811 13.5088 21.1625 13.5088 27.5541C13.5088 33.9458 18.6902 39.1272 25.0818 39.1272Z" stroke="#29B384" stroke-width="1.5"/>
<path d="M19.1787 27.5542L23.6063 31.9818L30.9857 23.6185" stroke="#29B384" stroke-width="1.5" stroke-linecap="round" stroke-linejoin="round"/>
</svg>
