<svg width="50" height="50" viewBox="0 0 50 50" fill="none" xmlns="http://www.w3.org/2000/svg">
<g clip-path="url(#clip0_206_12869)">
<path d="M49.1626 22.2819L49.1501 21.9588L49.3017 21.5474C49.3806 21.334 49.4121 21.111 49.3996 20.893C49.7495 20.6075 49.966 20.1888 49.9964 19.738C50.0267 19.2827 49.8656 18.8356 49.5505 18.5054L48.8797 17.8005L48.6829 17.4319C48.3997 16.9003 47.8464 16.5685 47.244 16.5685H46.8394L45.7489 15.8307C45.4793 15.6487 45.1619 15.552 44.8366 15.552H42.4797L42.0808 14.8414C41.7922 14.3272 41.2485 14.0087 40.6589 14.0087H39.1157C38.6706 14.0087 38.2467 14.1907 37.9407 14.5089L37.3287 14.2916C37.2426 14.2612 37.1547 14.2377 37.0656 14.2218L36.1741 12.6244C35.9345 12.1944 35.5132 11.896 35.0282 11.8122L34.2752 11.6817C34.4295 11.1839 34.3416 10.6215 33.9954 10.1851L33.1915 9.17122L32.3403 7.77964C32.043 7.29316 31.5144 7.00006 30.9499 7.00006C30.9131 7.00006 30.8759 7.0012 30.8391 7.00385L28.5057 7.16273C28.2084 7.18282 27.9225 7.28406 27.6787 7.45583L27.1255 7.84448L27.08 7.81907C26.8339 7.68105 26.5594 7.61129 26.283 7.61129C26.0915 7.61129 25.8993 7.64504 25.7161 7.71291L23.3827 8.57819C22.9868 8.72493 22.6634 9.01956 22.4803 9.39948L21.9911 10.4153C21.9524 10.4957 21.9206 10.5791 21.8956 10.6644C21.8167 10.6709 21.7386 10.6834 21.6609 10.7012L21.3954 10.7626C21.1099 10.2326 20.5556 9.90608 19.961 9.90608C19.8518 9.90608 19.7415 9.91707 19.6315 9.93982L18.6047 10.1514L17.1676 9.99178C17.1077 9.98533 17.0474 9.98192 16.9875 9.98192C16.9045 9.98192 16.8218 9.98836 16.7395 10.0009L16.5143 10.0358L16.1458 9.71118C15.8716 9.4704 15.5251 9.32784 15.1607 9.30736L13.8127 9.23114L12.9034 8.27107C12.5914 7.94157 12.161 7.76184 11.7197 7.76184C11.5745 7.76184 11.4285 7.78155 11.2844 7.82099L8.16033 8.68627C7.84789 8.77272 7.56844 8.95056 7.35762 9.19664L7.13429 9.45714C6.9739 9.40595 6.80706 9.37978 6.6387 9.37978C6.50448 9.37978 6.36949 9.39609 6.23754 9.42983C5.78404 9.5451 5.40259 9.84882 5.18832 10.2648L4.51111 11.582C4.20815 12.1709 4.29157 12.8837 4.72155 13.3873L5.43479 14.2222L4.83835 14.5703C4.69881 14.6518 4.57217 14.7535 4.46221 14.8721L1.71506 17.8457C1.32868 18.2635 1.18838 18.8528 1.34499 19.4003L1.50083 19.946L1.12924 20.2447C0.898324 20.4324 0.723143 20.6797 0.622657 20.9595L0.0959818 22.4273C-0.0329353 22.7856 -0.0317997 23.178 0.0982568 23.5356L0.700385 25.1915C0.842959 25.5836 1.13037 25.9062 1.50385 26.0928L3.15975 26.9205C3.38649 27.0335 3.63599 27.0927 3.88928 27.0927H5.35822L7.25106 27.6247L7.79405 28.0383C8.08525 28.2602 8.43371 28.372 8.78221 28.372C9.10071 28.372 9.41998 28.2791 9.6964 28.0914L10.4711 27.567L12.5186 27.506C12.9615 27.4931 13.3801 27.3001 13.6781 26.9717L14.6113 25.9426L15.5649 26.0128L16.2584 26.577C16.3361 26.6399 16.4188 26.696 16.5068 26.7438L17.7979 27.4483L18.6544 28.7773L19.3153 29.8538C18.5896 29.8553 17.9299 30.3448 17.7406 31.0789L17.4334 32.2733L16.6728 34.0376L15.9315 34.7509C15.6081 35.0618 15.4272 35.4929 15.431 35.9419C15.4352 36.3909 15.6244 36.8182 15.9539 37.1231L16.9697 38.0642C17.2757 38.3474 17.6731 38.4983 18.0781 38.4983C18.2449 38.4983 18.4125 38.4729 18.5759 38.4206L19.6619 38.0721L20.0165 38.4016C20.3213 38.6849 20.7187 38.8377 21.126 38.8377C21.2473 38.8377 21.3694 38.824 21.4903 38.7964C22.0166 38.6758 22.4493 38.3023 22.6453 37.7995L23.3285 36.0465L24.7217 35.0887C25.1164 34.8176 25.372 34.3865 25.4201 33.9098L25.5001 33.126L25.7982 33.12C25.8619 33.5484 26.0943 33.936 26.4465 34.1941L27.5757 35.0219C27.608 35.0454 27.641 35.0681 27.6747 35.0886C27.3812 35.3893 27.2106 35.7965 27.2106 36.228V36.793C27.2106 37.6696 27.9037 38.3893 28.78 38.4227L30.4324 38.4852L30.5173 38.5266C30.2781 38.9869 30.2716 39.5374 30.5064 40.0069L31.0713 41.1361C31.3474 41.6885 31.9123 42.0374 32.5296 42.0374H34.562C35.022 42.0374 35.4607 41.8432 35.7696 41.5023C36.0791 41.1615 36.2296 40.7061 36.1848 40.2484L36.1469 39.856L36.1522 39.8537C36.269 39.7995 36.3794 39.7312 36.4798 39.6508L37.4528 38.8773L39.0426 38.985C39.0794 38.9877 39.1166 38.9888 39.1534 38.9888C39.7437 38.9888 40.292 38.6688 40.5802 38.1466L41.3704 36.7164C41.7674 35.9983 41.5687 35.0977 40.9074 34.6128L40.3424 34.1987C40.0599 33.9917 39.7217 33.8828 39.3782 33.8828C39.2481 33.8828 39.1177 33.8988 38.9892 33.9302L37.2226 34.364L36.6099 34.2214C36.9458 34.0736 37.2237 33.8161 37.3963 33.4881L37.6905 32.9292H38.1364C38.2771 32.9292 38.417 32.9114 38.5528 32.8754L40.5472 32.3487C40.9021 32.255 41.2153 32.0442 41.4356 31.7507L41.7299 31.3583L43.7971 30.5123C44.1194 30.3808 44.3906 30.1491 44.5718 29.8518L45.5129 28.3086C45.5319 28.2771 45.5505 28.2449 45.5671 28.2119L45.9019 27.5685L46.0407 27.4547L48.045 27.3959C48.8587 27.372 49.5303 26.7513 49.6182 25.9425L49.8063 24.2112C49.8389 23.9124 49.7877 23.6106 49.6595 23.3387L49.1626 22.2819ZM47.7714 20.9832L47.5079 21.698L47.5454 22.6762L48.1851 24.031L47.997 25.7623L45.438 25.8374L44.6102 26.5146L44.1211 27.4557L43.18 28.9989L40.6956 30.0148L40.1306 30.7678L38.1362 31.2945H36.706L35.9529 32.7247L34.4851 33.1763V34.6441L35.6143 35.6599L37.2327 36.036L39.3777 35.5093L39.9427 35.9234L39.1525 37.3536L36.932 37.2031L35.4642 38.3699L34.4102 38.859L34.5607 40.4022H32.5283L31.9633 39.273L32.603 38.2572L32.0763 37.467L30.8341 36.8648L28.8396 36.7894L28.84 36.2259L31.3616 34.7957L32.1893 34.3441L31.211 33.2525L30.6461 33.5536L28.5386 33.7041L27.4094 32.8764L28.313 32.0486L27.4477 31.4465L25.9045 31.484L24.0226 31.5216L23.797 33.742L21.9907 34.9842L21.1254 37.2047L20.0713 36.2264L18.0768 36.8661L17.061 35.9249L18.0393 34.9838L18.9804 32.8009L19.319 31.4837L20.7117 31.8223H21.6153L21.3518 30.0534L20.0346 27.9084L18.9429 26.2147L17.287 25.3111L16.1954 24.4234L13.9374 24.2577L12.4696 25.8761L9.94805 25.9511L8.78128 26.7414L7.99108 26.1392L5.58261 25.462H3.88885L2.23296 24.6343L1.63083 22.9784L2.15751 21.5106L3.36213 20.5323L2.91054 18.9516L5.65768 15.9781L7.01247 15.1879L7.50161 14.1338L5.95841 12.3274L6.63562 11.0102L7.46336 11.5752L8.59256 10.258L11.7166 9.39267L13.0714 10.8229L15.0659 10.9359L16.007 11.7636L16.9853 11.6131L18.679 11.8012L19.9588 11.5376L20.4104 12.6668L22.0287 12.2907L23.4589 12.5918V11.124L23.948 10.1082L26.2815 9.24287L27.2226 9.76955L28.6153 8.79129L30.9488 8.63241L31.8523 10.1082L32.7176 11.1998L32.1155 11.7265L32.7927 13.0813L34.7496 13.4199L35.6532 15.0382L35.9918 15.8659L36.782 15.8284L38.4757 16.4305L39.1154 15.6403H40.6586L41.5239 17.1835H44.836L46.3413 18.1994H47.2449L47.546 18.7643L48.3695 19.6296L47.2449 20.5332L47.7714 20.9832Z" fill="#29B384"/>
</g>
<defs>
<clipPath id="clip0_206_12869">
<rect width="50" height="50" fill="white"/>
</clipPath>
</defs>
</svg>
