<svg width="50" height="50" viewBox="0 0 50 50" fill="none" xmlns="http://www.w3.org/2000/svg">
<g clip-path="url(#clip0_206_12875)">
<path d="M23.8061 11.9705V14.5428C22.3604 14.7417 21.1616 15.344 20.2221 16.35C19.2822 17.356 18.8066 18.5488 18.8066 19.9279C18.8066 21.0905 19.114 22.0965 19.7344 22.9461C20.3548 23.7956 21.7102 24.7291 23.8066 25.7351V33.0479C22.9813 33.0479 22.0837 32.8854 21.1322 32.5538C20.1746 32.2226 19.4215 31.8188 18.8672 31.3311V33.8131C20.1322 34.6324 21.7828 35.0417 23.8066 35.0417V38.0235H25.2947V34.9272C26.915 34.6683 28.174 34.0837 29.0836 33.1624C29.9932 32.2407 30.445 31.1084 30.445 29.7591C30.445 28.6385 30.0836 27.6329 29.3546 26.7531C28.6257 25.8738 27.2703 24.9642 25.2947 24.0183L25.2943 16.4823C26.9025 16.5363 28.1918 16.9461 29.1614 17.7109V15.2833C28.4507 14.8073 27.1554 14.5423 25.2943 14.4822V11.9704L23.8061 11.9705ZM23.8061 23.2233C22.8364 22.6872 22.1615 22.1632 21.7759 21.6392C21.3964 21.1153 21.2035 20.4464 21.2035 19.6272C21.2035 18.8443 21.4383 18.1815 21.9022 17.6333C22.3661 17.0851 23.0047 16.7297 23.7997 16.5672L23.8001 23.2233H23.8061ZM28.0468 29.9638C28.0468 31.5422 27.1251 32.5361 25.2881 32.9335V26.4762C27.1251 27.4879 28.0468 28.6509 28.0468 29.9638Z" fill="#29B384"/>
<path d="M39.8176 0.134171C39.5526 -0.0283901 39.2154 -0.0465445 38.9383 0.0978664L24.6256 7.32078L10.313 0.0982796C10.0359 -0.0400757 9.69865 -0.0283862 9.43363 0.134584C9.16256 0.302793 9 0.59202 9 0.905441V49.0964C9 49.5962 9.40379 50 9.90358 50H39.3416C39.8413 50 40.2451 49.5962 40.2451 49.0964V0.905441C40.2512 0.592009 40.0886 0.302793 39.8175 0.134171H39.8176ZM38.4441 48.1919H10.8071V2.37503L24.2162 9.14575C24.4691 9.27242 24.7764 9.27242 25.0294 9.14575L38.4384 2.37503L38.438 48.1919H38.4441Z" fill="#29B384"/>
<path d="M12.4985 42.3017C12.4985 42.8015 12.9023 43.2053 13.4021 43.2053H35.8469C36.3467 43.2053 36.7505 42.8015 36.7505 42.3017C36.7505 41.802 36.3467 41.3982 35.8469 41.3982H13.4021C12.9023 41.3982 12.4985 41.8016 12.4985 42.3017Z" fill="#29B384"/>
</g>
<defs>
<clipPath id="clip0_206_12875">
<rect width="50" height="50" fill="white"/>
</clipPath>
</defs>
</svg>
