<svg width="50" height="50" viewBox="0 0 50 50" fill="none" xmlns="http://www.w3.org/2000/svg">
<g clip-path="url(#clip0_206_12883)">
<path d="M49.3257 14.6505L25.5752 2.15004C25.2182 1.94999 24.7821 1.94999 24.4252 2.15004L0.674672 14.6505C0.263263 14.8635 0.00335359 15.287 0 15.7504V45.7506C0 46.082 0.131422 46.4001 0.365798 46.6345C0.600592 46.8689 0.918252 47.0007 1.24973 47.0007H8.74977C9.08125 47.0007 9.39933 46.8689 9.63371 46.6345C9.86808 46.4001 9.99992 46.082 9.99992 45.7506V24.5008H40.0001V45.7506C40.0001 46.082 40.1319 46.4001 40.3663 46.6345C40.6007 46.8689 40.9187 47.0007 41.2502 47.0007H48.7503C49.0817 47.0007 49.3994 46.8689 49.6342 46.6345C49.8686 46.4001 50 46.082 50 45.7506V15.7504C49.9967 15.2871 49.7367 14.8635 49.3253 14.6505H49.3257ZM47.5005 44.5006H42.5004V23.2498C42.5004 22.9183 42.3689 22.6007 42.1346 22.3659C41.8998 22.1315 41.5821 22.0001 41.2506 22.0001H8.74974C8.05959 22.0001 7.50002 22.5596 7.50002 23.2498V44.5006H2.49985V16.4998L25 4.66255L47.5001 16.4998L47.5005 44.5006Z" fill="#29B384"/>
<path d="M32.4997 37.0006H29.9999V30.7503C29.9999 30.4188 29.868 30.1011 29.6337 29.8664C29.3993 29.632 29.0812 29.5005 28.7497 29.5005H21.2497C20.5595 29.5005 19.9995 30.0601 19.9995 30.7503V37.0002L17.4997 37.0006C16.8095 37.0006 16.2495 37.5602 16.2495 38.2503V45.7503C16.2495 46.0818 16.3814 46.3999 16.6157 46.6343C16.8501 46.8686 17.1682 47.0005 17.4997 47.0005H32.4997C32.8312 47.0005 33.1493 46.8686 33.3837 46.6343C33.6181 46.3999 33.7499 46.0818 33.7499 45.7503V38.2503C33.7499 37.9188 33.6181 37.6012 33.3837 37.3664C33.1493 37.132 32.8312 37.0006 32.4997 37.0006V37.0006ZM22.4998 32.0004H27.5V37.0006H22.4998V32.0004ZM18.7498 39.5005H23.75V44.5006H18.7498V39.5005ZM31.2502 44.5006H26.2501V39.5005H31.2502V44.5006Z" fill="#29B384"/>
</g>
<defs>
<clipPath id="clip0_206_12883">
<rect width="50" height="50" fill="white"/>
</clipPath>
</defs>
</svg>
