<svg width="50" height="50" viewBox="0 0 50 50" fill="none" xmlns="http://www.w3.org/2000/svg">
<g clip-path="url(#clip0_206_12890)">
<path d="M31.0419 13.3034C30.665 13.0343 30.1809 13.142 29.9117 13.4648L23.7241 22.1277L20.9261 18.2536C20.657 17.8768 20.1728 17.8231 19.7959 18.0922C19.4191 18.3613 19.3654 18.8455 19.6346 19.2223L23.0782 24.0111C23.2396 24.2262 23.455 24.3339 23.7238 24.3339C23.9929 24.3339 24.2079 24.2262 24.3693 24.0111L31.2566 14.4335C31.5265 14.0567 31.4188 13.5722 31.0419 13.3034H31.0419Z" fill="#29B384"/>
<path d="M25.4461 5.93176C19.1507 5.93176 14.0391 11.0433 14.0391 17.3388C14.0391 23.6345 19.1506 28.7458 25.4461 28.7458C31.7416 28.7458 36.8532 23.6343 36.8532 17.3388C36.8532 11.0431 31.7416 5.93176 25.4461 5.93176ZM25.4461 27.1316C20.0654 27.1316 15.6533 22.7193 15.6533 17.3388C15.6533 11.9585 20.0656 7.54597 25.4461 7.54597C30.8266 7.54597 35.239 11.9583 35.239 17.3388C35.239 22.7193 30.8266 27.1316 25.4461 27.1316Z" fill="#29B384"/>
<path d="M40.1353 26.2708C40.4044 26.1094 40.5122 25.8403 40.5122 25.5716V21.3747L42.6106 17.716C42.772 17.4469 42.772 17.1778 42.6106 16.909L40.5122 13.3037V9.10676C40.5122 8.83765 40.3508 8.56854 40.0817 8.40715L36.423 6.30869L34.3245 2.65001C34.1631 2.3809 33.894 2.21951 33.6249 2.21951H29.428L25.7693 0.121044C25.5002 -0.0403479 25.2311 -0.0403479 24.9624 0.121044L21.3037 2.21951H17.1068C16.8376 2.21951 16.5685 2.3809 16.4072 2.65001L14.3087 6.30869L10.65 8.40715C10.3809 8.56855 10.2195 8.83766 10.2195 9.10676V13.3037L8.12104 16.9624C7.95965 17.2315 7.95965 17.5006 8.12104 17.7693L10.2195 21.428L10.2188 25.5716C10.2188 25.8407 10.3802 26.1098 10.6493 26.2712L14.3079 28.3697L15.5994 30.6296L9.68045 45.8031C9.57273 46.1259 9.62678 46.4487 9.89551 46.6641C10.1106 46.8791 10.4874 46.9332 10.8102 46.8255L15.6526 44.6193L17.6974 49.5158C17.8051 49.8386 18.1279 50 18.4506 50C18.7734 50 19.0962 49.7849 19.2039 49.4618L25.0688 34.5035C25.1765 34.5571 25.2838 34.5571 25.3915 34.5571C25.4993 34.5571 25.6066 34.5035 25.7143 34.5035L31.5792 49.4618C31.6869 49.7846 32.0097 49.946 32.3325 50C32.6552 50 32.9243 49.7849 33.0857 49.5158L35.1305 44.6193L39.9729 46.8255C40.2957 46.9869 40.6185 46.8791 40.8876 46.6641C41.1026 46.449 41.2104 46.0722 41.1026 45.8031L35.1837 30.6296L36.4752 28.3697L40.1353 26.2708ZM18.505 47.0941L16.8907 43.2736C16.783 43.0585 16.6216 42.8968 16.4602 42.8431C16.3525 42.7894 16.2451 42.7894 16.1911 42.7894C16.0834 42.7894 15.976 42.7894 15.8683 42.8431L12.1019 44.5651L16.8907 32.2971C16.9444 32.2971 16.9984 32.3508 17.0521 32.3508H17.1058C17.1594 32.3508 17.2672 32.4045 17.3208 32.4045H18.9888C20.9258 32.3508 21.5714 32.3508 23.4011 33.4805H23.4548C23.5625 33.5342 23.6698 33.5882 23.7776 33.6956C23.7776 33.6956 23.8312 33.6956 23.8312 33.7493L18.505 47.0941ZM35.1313 42.8431C34.9162 42.7354 34.7008 42.7354 34.4857 42.8431C34.2707 42.8968 34.1089 43.0582 34.0552 43.2736L32.4409 47.0941L27.2217 33.6962C29.3737 32.2973 29.9657 32.351 32.0641 32.351H33.6784C33.8398 32.351 34.0012 32.2974 34.1626 32.2433L38.8977 44.5651L35.1313 42.8431ZM35.185 27.3468L33.5707 30.1448L33.1938 30.7904H32.0101H31.8487C29.5352 30.7367 28.6742 30.8441 26.253 32.4047C26.0916 32.5124 25.9302 32.6198 25.7148 32.7275L25.446 32.8892L25.1769 32.7278C25.0155 32.6201 24.8541 32.5128 24.6927 32.4051C24.6391 32.3514 24.5313 32.2973 24.4777 32.2973C24.424 32.2437 24.3163 32.1896 24.2626 32.136C24.1549 32.0823 24.1012 32.0282 24.0475 31.9746C23.9939 31.9209 23.9398 31.9209 23.8861 31.8668C23.8325 31.8132 23.7248 31.7591 23.6711 31.7591C23.6174 31.7055 23.5634 31.7055 23.5097 31.6514C23.456 31.5977 23.3483 31.5977 23.2946 31.5437C23.241 31.5437 23.1869 31.49 23.1332 31.49C23.0796 31.4363 22.9718 31.4363 22.9182 31.3823C22.8645 31.3823 22.8105 31.3286 22.8105 31.3286C22.7568 31.275 22.6491 31.275 22.5954 31.2209C22.5417 31.2209 22.5417 31.1672 22.4877 31.1672C22.38 31.1136 22.2726 31.0595 22.1108 31.0595C22.0572 31.0595 22.0031 31.0058 21.9494 31.0058C21.8958 31.0058 21.8417 30.9522 21.7881 30.9522H21.5719C21.5182 30.9522 21.4641 30.9522 21.4105 30.8985C21.3568 30.8985 21.3028 30.8985 21.2491 30.8448H21.0877H20.9263H20.7649H20.5498H20.4421H20.173H20.0653H19.6885H18.7738H17.59L17.2132 30.1993L15.5989 27.4012C15.5452 27.2935 15.4375 27.1861 15.3298 27.1321L11.9943 25.087V21.1592C11.9943 20.9978 11.9406 20.89 11.8865 20.7287L9.89578 17.285L11.8865 13.8414C11.9402 13.7337 11.9943 13.5723 11.9943 13.4109V9.48307L15.4379 7.49231C15.5456 7.43864 15.653 7.33092 15.707 7.2232L17.6978 3.77956H21.6256C21.787 3.77956 21.8947 3.72589 22.0561 3.67184L25.446 1.78841L28.8896 3.77917C28.9974 3.83284 29.1587 3.88689 29.3201 3.88689H33.2479L35.2387 7.33052C35.2924 7.43824 35.4001 7.54559 35.5078 7.59964L38.9514 9.59039V13.5182C38.9514 13.6796 39.0051 13.7873 39.0592 13.9487L41.0499 17.3923L39.0056 20.7287C38.9519 20.8364 38.8978 20.9978 38.8978 21.1592V25.087L35.4542 27.0777C35.3465 27.1318 35.2928 27.2395 35.1851 27.3468L35.185 27.3468Z" fill="#29B384"/>
</g>
<defs>
<clipPath id="clip0_206_12890">
<rect width="50" height="50" fill="white"/>
</clipPath>
</defs>
</svg>
